<?xml version="1.0" encoding="utf-8"?>
<svg version="1.1" xmlns:xlink="http://www.w3.org/1999/xlink" width="309px" height="100px" xmlns="http://www.w3.org/2000/svg">
  <g transform="matrix(1 0 0 1 -1418 -148 )">
    <path d="M 1419 152  A 3 3 0 0 1 1422 149 L 1723 149  A 3 3 0 0 1 1726 152 L 1726 244  A 3 3 0 0 1 1723 247 L 1422 247  A 3 3 0 0 1 1419 244 L 1419 152  Z " fill-rule="nonzero" fill="#ff3399" stroke="none" fill-opacity="0.0980392156862745" />
    <path d="M 1418.5 152  A 3.5 3.5 0 0 1 1422 148.5 L 1723 148.5  A 3.5 3.5 0 0 1 1726.5 152 L 1726.5 244  A 3.5 3.5 0 0 1 1723 247.5 L 1422 247.5  A 3.5 3.5 0 0 1 1418.5 244 L 1418.5 152  Z " stroke-width="1" stroke-dasharray="9,4" stroke="#ff3399" fill="none" stroke-dashoffset="0.5" />
  </g>
</svg>