<?xml version="1.0" encoding="utf-8"?>
<svg version="1.1" xmlns:xlink="http://www.w3.org/1999/xlink" width="424px" height="53px" xmlns="http://www.w3.org/2000/svg">
  <g transform="matrix(1 0 0 1 -386 -97 )">
    <path d="M 387 101  A 3 3 0 0 1 390 98 L 806 98  A 3 3 0 0 1 809 101 L 809 146  A 3 3 0 0 1 806 149 L 390 149  A 3 3 0 0 1 387 146 L 387 101  Z " fill-rule="nonzero" fill="#ff3399" stroke="none" fill-opacity="0.0980392156862745" />
    <path d="M 386.5 101  A 3.5 3.5 0 0 1 390 97.5 L 806 97.5  A 3.5 3.5 0 0 1 809.5 101 L 809.5 146  A 3.5 3.5 0 0 1 806 149.5 L 390 149.5  A 3.5 3.5 0 0 1 386.5 146 L 386.5 101  Z " stroke-width="1" stroke-dasharray="9,4" stroke="#ff3399" fill="none" stroke-dashoffset="0.5" />
  </g>
</svg>