<?xml version="1.0" encoding="utf-8"?>
<svg version="1.1" xmlns:xlink="http://www.w3.org/1999/xlink" width="424px" height="53px" xmlns="http://www.w3.org/2000/svg">
  <g transform="matrix(1 0 0 1 -1418 -395 )">
    <path d="M 1419 399  A 3 3 0 0 1 1422 396 L 1838 396  A 3 3 0 0 1 1841 399 L 1841 444  A 3 3 0 0 1 1838 447 L 1422 447  A 3 3 0 0 1 1419 444 L 1419 399  Z " fill-rule="nonzero" fill="#ff3399" stroke="none" fill-opacity="0.0980392156862745" />
    <path d="M 1418.5 399  A 3.5 3.5 0 0 1 1422 395.5 L 1838 395.5  A 3.5 3.5 0 0 1 1841.5 399 L 1841.5 444  A 3.5 3.5 0 0 1 1838 447.5 L 1422 447.5  A 3.5 3.5 0 0 1 1418.5 444 L 1418.5 399  Z " stroke-width="1" stroke-dasharray="9,4" stroke="#ff3399" fill="none" stroke-dashoffset="0.5" />
  </g>
</svg>