<?xml version="1.0" encoding="utf-8"?><svg version="1.1" xmlns:xlink="http://www.w3.org/1999/xlink" width="200px" height="100px" xmlns="http://www.w3.org/2000/svg"><defs><mask fill="white" id="clip5"><path d="M 0 96  L 0 4  C 0 1.75999999999999  1.75999999999999 0  4 0  L 196 0  C 198.24 0  200 1.75999999999999  200 4  L 200 96  C 200 98.24  198.24 100  196 100  L 70 100  L 4 100  C 1.75999999999999 100  0 98.24  0 96  Z " fill-rule="evenodd" /></mask></defs><g transform="matrix(1 0 0 1 -520 -464 )"><path d="M 0 96  L 0 4  C 0 1.75999999999999  1.75999999999999 0  4 0  L 196 0  C 198.24 0  200 1.75999999999999  200 4  L 200 96  C 200 98.24  198.24 100  196 100  L 70 100  L 4 100  C 1.75999999999999 100  0 98.24  0 96  Z " fill-rule="nonzero" fill="#ff3399" stroke="none" fill-opacity="0.0980392156862745" transform="matrix(1 0 0 1 520 464 )" /><path d="M 0 96  L 0 4  C 0 1.75999999999999  1.75999999999999 0  4 0  L 196 0  C 198.24 0  200 1.75999999999999  200 4  L 200 96  C 200 98.24  198.24 100  196 100  L 70 100  L 4 100  C 1.75999999999999 100  0 98.24  0 96  Z " stroke-width="2" stroke-dasharray="9,4" stroke="#ff3399" fill="none" transform="matrix(1 0 0 1 520 464 )" mask="url(#clip5)" /></g></svg>