<?xml version="1.0" encoding="utf-8"?>
<svg version="1.1" xmlns:xlink="http://www.w3.org/1999/xlink" width="7px" height="16px" xmlns="http://www.w3.org/2000/svg">
  <g transform="matrix(1 0 0 1 -385 -124 )">
    <path d="M 6.87972508591068 7.63126252505006  C 6.95990836197019 7.73814295257186  7 7.86105544422177  7 8  C 7 8.13894455577823  6.95990836197019 8.26185704742814  6.87972508591068 8.36873747494994  L 1.27491408934705 15.8396793587174  C 1.19473081328753 15.9465597862391  1.10252004581905 16  0.99828178694159 16  C 0.894043528064131 16  0.801832760595644 15.9465597862391  0.72164948453613 15.8396793587174  L 0.120274914089322 15.0380761523047  C 0.0400916380298071 14.9311957247829  0 14.8082832331329  0 14.6693386773547  C 0 14.5303941215764  0.0400916380298071 14.4074816299265  0.120274914089322 14.3006012024048  L 4.84707903780068 8  L 0.120274914089322 1.69939879759517  C 0.0400916380298071 1.59251837007347  0 1.46960587842356  0 1.33066132264528  C 0 1.1917167668671  0.0400916380298071 1.06880427521714  0.120274914089322 0.961923847695339  L 0.72164948453613 0.160320641282599  C 0.801832760595644 0.0534402137608999  0.894043528064131 0  0.99828178694159 0  C 1.10252004581905 0  1.19473081328753 0.0534402137608999  1.27491408934705 0.160320641282599  L 6.87972508591068 7.63126252505006  Z " fill-rule="nonzero" fill="#e4e4e4" stroke="none" transform="matrix(1 0 0 1 385 124 )" />
  </g>
</svg>