<?xml version="1.0" encoding="utf-8"?>
<svg version="1.1" xmlns:xlink="http://www.w3.org/1999/xlink" width="299px" height="70px" xmlns="http://www.w3.org/2000/svg">
  <g transform="matrix(1 0 0 1 -350 -429 )">
    <path d="M 0 61.25  L 0 8.75  C 0 3.84999999999998  0.401097560975569 0  0.911585365853693 0  L 95.1579365079365 0  L 100.14126984127 0  L 298.088414634146 0  C 298.598902439024 0  299 3.84999999999998  299 8.75  L 299 61.25  C 299 66.15  298.598902439024 70  298.088414634146 70  L 168.87118902439 70  L 127.668253968254 70  L 115.328571428571 70  L 105.599206349206 70  L 90.1746031746032 70  L 0.911585365853693 70  C 0.401097560975569 70  0 66.15  0 61.25  Z " fill-rule="nonzero" fill="#ffffff" stroke="none" transform="matrix(1 0 0 1 350 429 )" />
  </g>
</svg>