<?xml version="1.0" encoding="utf-8"?>
<svg version="1.1" xmlns:xlink="http://www.w3.org/1999/xlink" width="62px" height="16px" xmlns="http://www.w3.org/2000/svg">
  <g transform="matrix(1 0 0 1 -771 -455 )">
    <path d="M 0 14  L 0 2  C 0 0.879999999999995  0.137777777777777 0  0.313131313131313 0  L 20.2752525252525 0  L 25.6767676767677 0  L 26.6161616161616 0  L 61.6868686868687 0  C 61.8622222222222 0  62 0.879999999999995  62 2  L 62 14  C 62 15.12  61.8622222222222 16  61.6868686868687 16  L 25.5984848484849 16  L 24.8156565656566 16  L 20.7449494949495 16  L 0.313131313131313 16  C 0.137777777777777 16  0 15.12  0 14  Z " fill-rule="nonzero" fill="#ffffff" stroke="none" transform="matrix(1 0 0 1 771 455 )" />
  </g>
</svg>