<?xml version="1.0" encoding="utf-8"?>
<svg version="1.1" xmlns:xlink="http://www.w3.org/1999/xlink" width="10px" height="26px" preserveAspectRatio="xMidYMin meet" viewBox="1436 215  8 26" xmlns="http://www.w3.org/2000/svg">
  <path d="M 466.5 251  L 466.5 245  A 5 5 0 0 1 471.5 240.5 L 1085 240.5  A 5 5 0 0 0 1090.5 235.5 L 1090.5 225  A 5 5 0 0 1 1095.5 220.5 L 1435 220.5  A 5 5 0 0 1 1440.5 225.5 L 1440.5 241  " stroke-width="1" stroke="#ff3399" fill="none" />
  <path d="M 466.5 246  A 3 3 0 0 0 463.5 249 A 3 3 0 0 0 466.5 252 A 3 3 0 0 0 469.5 249 A 3 3 0 0 0 466.5 246 Z " fill-rule="nonzero" fill="#ff3399" stroke="none" />
</svg>