<?xml version="1.0" encoding="utf-8"?>
<svg version="1.1" xmlns:xlink="http://www.w3.org/1999/xlink" width="89px" height="32px" xmlns="http://www.w3.org/2000/svg">
  <g transform="matrix(1 0 0 1 -278 -151 )">
    <path d="M 279 155  A 3 3 0 0 1 282 152 L 363 152  A 3 3 0 0 1 366 155 L 366 179  A 3 3 0 0 1 363 182 L 282 182  A 3 3 0 0 1 279 179 L 279 155  Z " fill-rule="nonzero" fill="#ffffff" stroke="none" />
    <path d="M 278.5 155  A 3.5 3.5 0 0 1 282 151.5 L 363 151.5  A 3.5 3.5 0 0 1 366.5 155 L 366.5 179  A 3.5 3.5 0 0 1 363 182.5 L 282 182.5  A 3.5 3.5 0 0 1 278.5 179 L 278.5 155  Z " stroke-width="1" stroke-dasharray="3,1" stroke="#d9d9d9" fill="none" stroke-dashoffset="0.5" />
  </g>
</svg>