<?xml version="1.0" encoding="utf-8"?>
<svg version="1.1" xmlns:xlink="http://www.w3.org/1999/xlink" width="480px" height="32px" xmlns="http://www.w3.org/2000/svg">
  <g transform="matrix(1 0 0 1 -80 -199 )">
    <path d="M 81 203  A 3 3 0 0 1 84 200 L 556 200  A 3 3 0 0 1 559 203 L 559 227  A 3 3 0 0 1 556 230 L 84 230  A 3 3 0 0 1 81 227 L 81 203  Z " fill-rule="nonzero" fill="#ffffff" stroke="none" />
    <path d="M 80.5 203  A 3.5 3.5 0 0 1 84 199.5 L 556 199.5  A 3.5 3.5 0 0 1 559.5 203 L 559.5 227  A 3.5 3.5 0 0 1 556 230.5 L 84 230.5  A 3.5 3.5 0 0 1 80.5 227 L 80.5 203  Z " stroke-width="1" stroke-dasharray="9,4" stroke="#d9d9d9" fill="none" stroke-dashoffset="0.5" />
  </g>
</svg>