<?xml version="1.0" encoding="utf-8"?>
<svg version="1.1" xmlns:xlink="http://www.w3.org/1999/xlink" width="276px" height="70px" xmlns="http://www.w3.org/2000/svg">
  <g transform="matrix(1 0 0 1 -350 -429 )">
    <path d="M 0 61.25  L 0 8.75  C 0 3.84999999999998  0.370243902438986 0  0.841463414634178 0  L 87.8380952380952 0  L 92.4380952380952 0  L 275.158536585366 0  C 275.629756097561 0  276 3.84999999999998  276 8.75  L 276 61.25  C 276 66.15  275.629756097561 70  275.158536585366 70  L 155.881097560976 70  L 117.847619047619 70  L 106.457142857143 70  L 97.4761904761905 70  L 83.2380952380952 70  L 0.841463414634178 70  C 0.370243902438986 70  0 66.15  0 61.25  Z " fill-rule="nonzero" fill="#ffffff" stroke="none" transform="matrix(1 0 0 1 350 429 )" />
  </g>
</svg>