<?xml version="1.0" encoding="utf-8"?><svg version="1.1" xmlns:xlink="http://www.w3.org/1999/xlink" width="56px" height="33px" xmlns="http://www.w3.org/2000/svg"><g transform="matrix(1 0 0 1 -605 -210 )"><path d="M 54.5 26.2857142857143  L 54.5 5.71428571428571  C 54.5 2.19428571428573  53.3022222222222 0.571428571428571  50.2222222222223 0.571428571428571  L 0 0.571428571428571  L 0 31.5  L 50.2222222222223 31.5  C 53.3022222222222 31.4285714285714  54.5 29.8057142857143  54.5 26.2857142857143  Z " fill-rule="nonzero" fill="#ebebeb" stroke="none" transform="matrix(1 0 0 1 605 210 )" /><path d="M 0 31.5  L 50.2222222222223 31.5  C 53.3022222222222 31.4285714285714  54.5 29.8057142857143  54.5 26.2857142857143  L 54.5 5.71428571428571  C 54.5 2.19428571428573  53.3022222222222 0.571428571428571  50.2222222222223 0.571428571428571  L 0 0.571428571428571  " stroke-width="1" stroke="#d9d9d9" fill="none" transform="matrix(1 0 0 1 605 210 )" /></g></svg>