<?xml version="1.0" encoding="utf-8"?><svg version="1.1" xmlns:xlink="http://www.w3.org/1999/xlink" width="69px" height="32px" xmlns="http://www.w3.org/2000/svg"><defs><mask fill="white" id="clip11"><path d="M 69 27.4285714285714  L 69 4.57142857142857  C 69 2.01142857142857  67.1025 0  64.6875 0  L 0 0  L 0 32  L 64.6875 32  C 67.1025 32  69 29.9885714285714  69 27.4285714285714  Z " fill-rule="evenodd" /></mask></defs><g transform="matrix(1 0 0 1 -361 -999 )"><path d="M 69 27.4285714285714  L 69 4.57142857142857  C 69 2.01142857142857  67.1025 0  64.6875 0  L 0 0  L 0 32  L 64.6875 32  C 67.1025 32  69 29.9885714285714  69 27.4285714285714  Z " fill-rule="nonzero" fill="#ffffff" stroke="none" transform="matrix(1 0 0 1 361 999 )" /><path d="M 69 27.4285714285714  L 69 4.57142857142857  C 69 2.01142857142857  67.1025 0  64.6875 0  L 0 0  L 0 32  L 64.6875 32  C 67.1025 32  69 29.9885714285714  69 27.4285714285714  Z " stroke-width="2" stroke="#d9d9d9" fill="none" transform="matrix(1 0 0 1 361 999 )" mask="url(#clip11)" /></g></svg>