<?xml version="1.0" encoding="utf-8"?><svg version="1.1" xmlns:xlink="http://www.w3.org/1999/xlink" width="200px" height="159px" xmlns="http://www.w3.org/2000/svg"><g transform="matrix(1 0 0 1 -219 -704 )"><path d="M 220 708  A 3 3 0 0 1 223 705 L 415 705  A 3 3 0 0 1 418 708 L 418 859  A 3 3 0 0 1 415 862 L 223 862  A 3 3 0 0 1 220 859 L 220 708  Z " fill-rule="nonzero" fill="#ff3399" stroke="none" fill-opacity="0.0980392156862745" /><path d="M 219.5 708  A 3.5 3.5 0 0 1 223 704.5 L 415 704.5  A 3.5 3.5 0 0 1 418.5 708 L 418.5 859  A 3.5 3.5 0 0 1 415 862.5 L 223 862.5  A 3.5 3.5 0 0 1 219.5 859 L 219.5 708  Z " stroke-width="1" stroke-dasharray="9,4" stroke="#ff3399" fill="none" stroke-dashoffset="0.5" /></g></svg>