<?xml version="1.0" encoding="utf-8"?>
<svg version="1.1" xmlns:xlink="http://www.w3.org/1999/xlink" width="264px" height="6px" viewBox="257 892  264 6" xmlns="http://www.w3.org/2000/svg">
  <path d="M 422 193  L 422 255  A 5 5 0 0 1 417 260 L 350 260  A 3 3 0 0 0 347 257 A 3 3 0 0 0 344 260 L 265 260  A 5 5 0 0 0 260 265 L 260 346  A 3 3 0 0 1 263 349 A 3 3 0 0 1 260 352 L 260 865  A 3 3 0 0 1 263 868 A 3 3 0 0 1 260 871 L 260 890  A 5 5 0 0 0 265 895 L 513 895  A 5 5 0 0 1 518 900 L 518 926  " stroke-width="2" stroke="#0099cc" fill="none" />
</svg>