<?xml version="1.0" encoding="utf-8"?>
<svg version="1.1" xmlns:xlink="http://www.w3.org/1999/xlink" width="14px" height="14px" xmlns="http://www.w3.org/2000/svg">
  <g transform="matrix(1 0 0 1 -1146 -1274 )">
    <path d="M 1153 1274  C 1156.92 1274  1160 1277.08  1160 1281  C 1160 1284.92  1156.92 1288  1153 1288  C 1149.08 1288  1146 1284.92  1146 1281  C 1146 1277.08  1149.08 1274  1153 1274  Z " fill-rule="nonzero" fill="#ffffff" stroke="none" fill-opacity="0" />
    <path d="M 1153 1274.5  C 1156.64 1274.5  1159.5 1277.36  1159.5 1281  C 1159.5 1284.64  1156.64 1287.5  1153 1287.5  C 1149.36 1287.5  1146.5 1284.64  1146.5 1281  C 1146.5 1277.36  1149.36 1274.5  1153 1274.5  Z " stroke-width="1" stroke="#d9d9d9" fill="none" />
  </g>
</svg>