<?xml version="1.0" encoding="utf-8"?>
<svg version="1.1" xmlns:xlink="http://www.w3.org/1999/xlink" width="10px" height="868px" preserveAspectRatio="xMidYMin meet" viewBox="1416 607  8 868" xmlns="http://www.w3.org/2000/svg">
  <path d="M 1294 612  L 1377 612  A 3 3 0 0 1 1380 609 A 3 3 0 0 1 1383 612 L 1393 612  A 3 3 0 0 1 1396 609 A 3 3 0 0 1 1399 612 L 1405 612  A 3 3 0 0 1 1408 609 A 3 3 0 0 1 1411 612 L 1415 612  A 5 5 0 0 1 1420 617 L 1420 1465  A 5 5 0 0 0 1425 1470 L 1598 1470  A 5 5 0 0 1 1603 1475 L 1603 1486  " stroke-width="2" stroke="#0099cc" fill="none" />
</svg>