<?xml version="1.0" encoding="utf-8"?>
<svg version="1.1" xmlns:xlink="http://www.w3.org/1999/xlink" width="1043px" height="62px" xmlns="http://www.w3.org/2000/svg">
  <g transform="matrix(1 0 0 1 -261 -375 )">
    <path d="M 262 379  A 3 3 0 0 1 265 376 L 1300 376  A 3 3 0 0 1 1303 379 L 1303 433  A 3 3 0 0 1 1300 436 L 265 436  A 3 3 0 0 1 262 433 L 262 379  Z " fill-rule="nonzero" fill="#ff3399" stroke="none" fill-opacity="0.0980392156862745" />
    <path d="M 261.5 379  A 3.5 3.5 0 0 1 265 375.5 L 1300 375.5  A 3.5 3.5 0 0 1 1303.5 379 L 1303.5 433  A 3.5 3.5 0 0 1 1300 436.5 L 265 436.5  A 3.5 3.5 0 0 1 261.5 433 L 261.5 379  Z " stroke-width="1" stroke-dasharray="9,4" stroke="#ff3399" fill="none" stroke-dashoffset="0.5" />
  </g>
</svg>