<?xml version="1.0" encoding="utf-8"?>
<svg version="1.1" xmlns:xlink="http://www.w3.org/1999/xlink" width="60px" height="17px" xmlns="http://www.w3.org/2000/svg">
  <g transform="matrix(1 0 0 1 -137 -260 )">
    <path d="M 138 264  A 3 3 0 0 1 141 261 L 193 261  A 3 3 0 0 1 196 264 L 196 273  A 3 3 0 0 1 193 276 L 141 276  A 3 3 0 0 1 138 273 L 138 264  Z " fill-rule="nonzero" fill="#ff3399" stroke="none" fill-opacity="0.0980392156862745" />
    <path d="M 137.5 264  A 3.5 3.5 0 0 1 141 260.5 L 193 260.5  A 3.5 3.5 0 0 1 196.5 264 L 196.5 273  A 3.5 3.5 0 0 1 193 276.5 L 141 276.5  A 3.5 3.5 0 0 1 137.5 273 L 137.5 264  Z " stroke-width="1" stroke-dasharray="9,4" stroke="#ff3399" fill="none" stroke-dashoffset="0.5" />
  </g>
</svg>