<?xml version="1.0" encoding="utf-8"?>
<svg version="1.1" xmlns:xlink="http://www.w3.org/1999/xlink" width="114px" height="28px" xmlns="http://www.w3.org/2000/svg">
  <g transform="matrix(1 0 0 1 -596 -204 )">
    <path d="M 597 208  A 3 3 0 0 1 600 205 L 706 205  A 3 3 0 0 1 709 208 L 709 228  A 3 3 0 0 1 706 231 L 600 231  A 3 3 0 0 1 597 228 L 597 208  Z " fill-rule="nonzero" fill="#ff3399" stroke="none" fill-opacity="0.0980392156862745" />
    <path d="M 596.5 208  A 3.5 3.5 0 0 1 600 204.5 L 706 204.5  A 3.5 3.5 0 0 1 709.5 208 L 709.5 228  A 3.5 3.5 0 0 1 706 231.5 L 600 231.5  A 3.5 3.5 0 0 1 596.5 228 L 596.5 208  Z " stroke-width="1" stroke-dasharray="9,4" stroke="#ff3399" fill="none" stroke-dashoffset="0.5" />
  </g>
</svg>