<?xml version="1.0" encoding="utf-8"?>
<svg version="1.1" xmlns:xlink="http://www.w3.org/1999/xlink" width="10px" height="220px" preserveAspectRatio="xMidYMin meet" viewBox="696 965  8 220" xmlns="http://www.w3.org/2000/svg">
  <path d="M 653 182  L 653 175  A 5 5 0 0 1 658 170 L 715 170  A 5 5 0 0 1 720 175 L 720 785  A 5 5 0 0 1 715 790 L 665 790  A 5 5 0 0 0 660 795 L 660 965  A 5 5 0 0 0 665 970 L 695 970  A 5 5 0 0 1 700 975 L 700 1175  A 5 5 0 0 1 695 1180 L 523 1180  A 5 5 0 0 0 518 1185 L 518 1196  " stroke-width="2" stroke="#0099cc" fill="none" />
</svg>