<?xml version="1.0" encoding="utf-8"?>
<svg version="1.1" xmlns:xlink="http://www.w3.org/1999/xlink" width="14px" height="14px" xmlns="http://www.w3.org/2000/svg">
  <g transform="matrix(1 0 0 1 -1057 -1274 )">
    <path d="M 1064 1274  C 1067.92 1274  1071 1277.08  1071 1281  C 1071 1284.92  1067.92 1288  1064 1288  C 1060.08 1288  1057 1284.92  1057 1281  C 1057 1277.08  1060.08 1274  1064 1274  Z " fill-rule="nonzero" fill="#ffffff" stroke="none" fill-opacity="0" />
    <path d="M 1064 1274.5  C 1067.64 1274.5  1070.5 1277.36  1070.5 1281  C 1070.5 1284.64  1067.64 1287.5  1064 1287.5  C 1060.36 1287.5  1057.5 1284.64  1057.5 1281  C 1057.5 1277.36  1060.36 1274.5  1064 1274.5  Z " stroke-width="1" stroke="#1890ff" fill="none" />
  </g>
</svg>