<?xml version="1.0" encoding="utf-8"?>
<svg version="1.1" xmlns:xlink="http://www.w3.org/1999/xlink" width="261px" height="100px" xmlns="http://www.w3.org/2000/svg">
  <g transform="matrix(1 0 0 1 -1334 -350 )">
    <path d="M 1335 354  A 3 3 0 0 1 1338 351 L 1591 351  A 3 3 0 0 1 1594 354 L 1594 446  A 3 3 0 0 1 1591 449 L 1338 449  A 3 3 0 0 1 1335 446 L 1335 354  Z " fill-rule="nonzero" fill="#ff3399" stroke="none" fill-opacity="0.0980392156862745" />
    <path d="M 1334.5 354  A 3.5 3.5 0 0 1 1338 350.5 L 1591 350.5  A 3.5 3.5 0 0 1 1594.5 354 L 1594.5 446  A 3.5 3.5 0 0 1 1591 449.5 L 1338 449.5  A 3.5 3.5 0 0 1 1334.5 446 L 1334.5 354  Z " stroke-width="1" stroke-dasharray="9,4" stroke="#ff3399" fill="none" stroke-dashoffset="0.5" />
  </g>
</svg>