<?xml version="1.0" encoding="utf-8"?>
<svg version="1.1" xmlns:xlink="http://www.w3.org/1999/xlink" width="301px" height="144px" xmlns="http://www.w3.org/2000/svg">
  <g transform="matrix(1 0 0 1 -1375 -191 )">
    <path d="M 1376 195  A 3 3 0 0 1 1379 192 L 1672 192  A 3 3 0 0 1 1675 195 L 1675 331  A 3 3 0 0 1 1672 334 L 1379 334  A 3 3 0 0 1 1376 331 L 1376 195  Z " fill-rule="nonzero" fill="#ff3399" stroke="none" fill-opacity="0.0980392156862745" />
    <path d="M 1375.5 195  A 3.5 3.5 0 0 1 1379 191.5 L 1672 191.5  A 3.5 3.5 0 0 1 1675.5 195 L 1675.5 331  A 3.5 3.5 0 0 1 1672 334.5 L 1379 334.5  A 3.5 3.5 0 0 1 1375.5 331 L 1375.5 195  Z " stroke-width="1" stroke-dasharray="9,4" stroke="#ff3399" fill="none" stroke-dashoffset="0.5" />
  </g>
</svg>