<?xml version="1.0" encoding="utf-8"?>
<svg version="1.1" xmlns:xlink="http://www.w3.org/1999/xlink" width="263px" height="82px" xmlns="http://www.w3.org/2000/svg">
  <g transform="matrix(1 0 0 1 -5 -94 )">
    <path d="M 6 98  A 3 3 0 0 1 9 95 L 264 95  A 3 3 0 0 1 267 98 L 267 172  A 3 3 0 0 1 264 175 L 9 175  A 3 3 0 0 1 6 172 L 6 98  Z " fill-rule="nonzero" fill="#ff3399" stroke="none" fill-opacity="0.0980392156862745" />
    <path d="M 5.5 98  A 3.5 3.5 0 0 1 9 94.5 L 264 94.5  A 3.5 3.5 0 0 1 267.5 98 L 267.5 172  A 3.5 3.5 0 0 1 264 175.5 L 9 175.5  A 3.5 3.5 0 0 1 5.5 172 L 5.5 98  Z " stroke-width="1" stroke-dasharray="9,4" stroke="#ff3399" fill="none" stroke-dashoffset="0.5" />
  </g>
</svg>