<?xml version="1.0" encoding="utf-8"?>
<svg version="1.1" xmlns:xlink="http://www.w3.org/1999/xlink" width="20px" height="20px" xmlns="http://www.w3.org/2000/svg">
  <g transform="matrix(1 0 0 1 -543 -201 )">
    <path d="M 19.7879464285714 6.6375  C 19.9293154761905 6.79583333333333  20 6.98333333333333  20 7.2  C 20 7.41666666666666  19.9293154761905 7.60416666666667  19.7879464285714 7.7625  L 14.0736607142857 14.1625  C 13.9322916666667 14.3208333333333  13.764880952381 14.4  13.5714285714286 14.4  C 13.3779761904762 14.4  13.2105654761905 14.3208333333333  13.0691964285714 14.1625  C 12.9278273809524 14.0041666666667  12.8571428571429 13.8166666666667  12.8571428571429 13.6  L 12.8571428571429 10.4  L 10.3571428571429 10.4  C 9.62797619047619 10.4  8.97507440476191 10.425  8.3984375 10.475  C 7.82180059523809 10.525  7.24888392857143 10.6145833333333  6.6796875 10.74375  C 6.11049107142857 10.8729166666667  5.61569940476191 11.05  5.1953125 11.275  C 4.7749255952381 11.5  4.38244047619048 11.7895833333333  4.01785714285714 12.14375  C 3.65327380952381 12.4979166666667  3.35565476190476 12.91875  3.125 13.40625  C 2.89434523809524 13.89375  2.71391369047619 14.4708333333333  2.58370535714286 15.1375  C 2.45349702380952 15.8041666666667  2.38839285714286 16.5583333333333  2.38839285714286 17.4  C 2.38839285714286 17.8583333333333  2.40699404761905 18.3708333333333  2.44419642857143 18.9375  C 2.44419642857143 18.9875  2.45349702380952 19.0854166666667  2.47209821428571 19.23125  C 2.49069940476191 19.3770833333333  2.5 19.4875  2.5 19.5625  C 2.5 19.6875  2.46837797619048 19.7916666666667  2.40513392857143 19.875  C 2.34188988095238 19.9583333333333  2.25446428571429 20  2.14285714285714 20  C 2.02380952380952 20  1.91964285714286 19.9291666666667  1.83035714285714 19.7875  C 1.77827380952381 19.7125  1.72991071428571 19.6208333333333  1.68526785714286 19.5125  C 1.640625 19.4041666666667  1.59040178571429 19.2791666666667  1.53459821428571 19.1375  C 1.47879464285714 18.9958333333333  1.43973214285714 18.8958333333333  1.41741071428571 18.8375  C 0.472470238095238 16.4625  0 14.5833333333333  0 13.2  C 0 11.5416666666667  0.197172619047619 10.1541666666667  0.591517857142857 9.0375  C 1.796875 5.67916666666667  5.05208333333333 4  10.3571428571429 4  L 12.8571428571429 4  L 12.8571428571429 0.800000000000001  C 12.8571428571429 0.583333333333331  12.9278273809524 0.395833333333331  13.0691964285714 0.237499999999999  C 13.2105654761905 0.0791666666666657  13.3779761904762 0  13.5714285714286 0  C 13.764880952381 0  13.9322916666667 0.0791666666666657  14.0736607142857 0.237499999999999  L 19.7879464285714 6.6375  Z " fill-rule="nonzero" fill="#000000" stroke="none" transform="matrix(1 0 0 1 543 201 )" />
  </g>
</svg>