<?xml version="1.0" encoding="utf-8"?>
<svg version="1.1" xmlns:xlink="http://www.w3.org/1999/xlink" width="105px" height="32px" xmlns="http://www.w3.org/2000/svg">
  <g transform="matrix(1 0 0 1 -50 -279 )">
    <path d="M 51 283  A 3 3 0 0 1 54 280 L 151 280  A 3 3 0 0 1 154 283 L 154 307  A 3 3 0 0 1 151 310 L 54 310  A 3 3 0 0 1 51 307 L 51 283  Z " fill-rule="nonzero" fill="#ffffff" stroke="none" />
    <path d="M 50.5 283  A 3.5 3.5 0 0 1 54 279.5 L 151 279.5  A 3.5 3.5 0 0 1 154.5 283 L 154.5 307  A 3.5 3.5 0 0 1 151 310.5 L 54 310.5  A 3.5 3.5 0 0 1 50.5 307 L 50.5 283  Z " stroke-width="1" stroke="#1890ff" fill="none" stroke-opacity="0.647058823529412" />
  </g>
</svg>