<?xml version="1.0" encoding="utf-8"?>
<svg version="1.1" xmlns:xlink="http://www.w3.org/1999/xlink" width="17px" height="17px" xmlns="http://www.w3.org/2000/svg">
  <g transform="matrix(1 0 0 1 -994 -1032 )">
    <path d="M 13.8004261363636 7.8359375  C 13.8728693181818 7.90838068181818  13.9090909090909 8.00094696969697  13.9090909090909 8.11363636363636  L 13.9090909090909 8.88636363636364  C 13.9090909090909 8.99905303030303  13.8728693181818 9.09161931818182  13.8004261363636 9.1640625  C 13.7279829545455 9.23650568181818  13.6354166666667 9.27272727272727  13.5227272727273 9.27272727272727  L 9.27272727272727 9.27272727272727  L 9.27272727272727 13.5227272727273  C 9.27272727272727 13.6354166666667  9.23650568181818 13.7279829545455  9.1640625 13.8004261363636  C 9.09161931818182 13.8728693181818  8.99905303030303 13.9090909090909  8.88636363636364 13.9090909090909  L 8.11363636363636 13.9090909090909  C 8.00094696969697 13.9090909090909  7.90838068181818 13.8728693181818  7.8359375 13.8004261363636  C 7.76349431818182 13.7279829545455  7.72727272727273 13.6354166666667  7.72727272727273 13.5227272727273  L 7.72727272727273 9.27272727272727  L 3.47727272727273 9.27272727272727  C 3.36458333333333 9.27272727272727  3.27201704545455 9.23650568181818  3.19957386363636 9.1640625  C 3.12713068181818 9.09161931818182  3.09090909090909 8.99905303030303  3.09090909090909 8.88636363636364  L 3.09090909090909 8.11363636363636  C 3.09090909090909 8.00094696969697  3.12713068181818 7.90838068181818  3.19957386363636 7.8359375  C 3.27201704545455 7.76349431818182  3.36458333333333 7.72727272727273  3.47727272727273 7.72727272727273  L 7.72727272727273 7.72727272727273  L 7.72727272727273 3.47727272727273  C 7.72727272727273 3.36458333333333  7.76349431818182 3.27201704545455  7.8359375 3.19957386363636  C 7.90838068181818 3.12713068181818  8.00094696969697 3.09090909090909  8.11363636363636 3.09090909090909  L 8.88636363636364 3.09090909090909  C 8.99905303030303 3.09090909090909  9.09161931818182 3.12713068181818  9.1640625 3.19957386363636  C 9.23650568181818 3.27201704545455  9.27272727272727 3.36458333333333  9.27272727272727 3.47727272727273  L 9.27272727272727 7.72727272727273  L 13.5227272727273 7.72727272727273  C 13.6354166666667 7.72727272727273  13.7279829545455 7.76349431818182  13.8004261363636 7.8359375  Z M 14.8870738636364 14.8870738636364  C 15.2653882575758 14.508759469697  15.4545454545455 14.0539772727273  15.4545454545455 13.5227272727273  L 15.4545454545455 3.47727272727273  C 15.4545454545455 2.94602272727273  15.2653882575758 2.49124053030303  14.8870738636364 2.11292613636364  C 14.508759469697 1.73461174242424  14.0539772727273 1.54545454545455  13.5227272727273 1.54545454545455  L 3.47727272727273 1.54545454545455  C 2.94602272727273 1.54545454545455  2.49124053030303 1.73461174242424  2.11292613636364 2.11292613636364  C 1.73461174242424 2.49124053030303  1.54545454545455 2.94602272727273  1.54545454545455 3.47727272727273  L 1.54545454545455 13.5227272727273  C 1.54545454545455 14.0539772727273  1.73461174242424 14.508759469697  2.11292613636364 14.8870738636364  C 2.49124053030303 15.2653882575758  2.94602272727273 15.4545454545455  3.47727272727273 15.4545454545455  L 13.5227272727273 15.4545454545455  C 14.0539772727273 15.4545454545455  14.508759469697 15.2653882575758  14.8870738636364 14.8870738636364  Z M 15.9797585227273 1.02024147727273  C 16.6599195075758 1.70040246212121  17 2.51941287878788  17 3.47727272727273  L 17 13.5227272727273  C 17 14.4805871212121  16.6599195075758 15.2995975378788  15.9797585227273 15.9797585227273  C 15.2995975378788 16.6599195075758  14.4805871212121 17  13.5227272727273 17  L 3.47727272727273 17  C 2.51941287878788 17  1.70040246212121 16.6599195075758  1.02024147727273 15.9797585227273  C 0.340080492424242 15.2995975378788  0 14.4805871212121  0 13.5227272727273  L 0 3.47727272727273  C 0 2.51941287878788  0.340080492424242 1.70040246212121  1.02024147727273 1.02024147727273  C 1.70040246212121 0.340080492424241  2.51941287878788 0  3.47727272727273 0  L 13.5227272727273 0  C 14.4805871212121 0  15.2995975378788 0.340080492424241  15.9797585227273 1.02024147727273  Z " fill-rule="nonzero" fill="#000000" stroke="none" transform="matrix(1 0 0 1 994 1032 )" />
  </g>
</svg>