<?xml version="1.0" encoding="utf-8"?>
<svg version="1.1" xmlns:xlink="http://www.w3.org/1999/xlink" width="231px" height="100px" xmlns="http://www.w3.org/2000/svg">
  <g transform="matrix(1 0 0 1 -1102 -797 )">
    <path d="M 1103 801  A 3 3 0 0 1 1106 798 L 1329 798  A 3 3 0 0 1 1332 801 L 1332 893  A 3 3 0 0 1 1329 896 L 1106 896  A 3 3 0 0 1 1103 893 L 1103 801  Z " fill-rule="nonzero" fill="#ff3399" stroke="none" fill-opacity="0.0980392156862745" />
    <path d="M 1102.5 801  A 3.5 3.5 0 0 1 1106 797.5 L 1329 797.5  A 3.5 3.5 0 0 1 1332.5 801 L 1332.5 893  A 3.5 3.5 0 0 1 1329 896.5 L 1106 896.5  A 3.5 3.5 0 0 1 1102.5 893 L 1102.5 801  Z " stroke-width="1" stroke-dasharray="9,4" stroke="#ff3399" fill="none" stroke-dashoffset="0.5" />
  </g>
</svg>