<?xml version="1.0" encoding="utf-8"?>
<svg version="1.1" xmlns:xlink="http://www.w3.org/1999/xlink" width="341px" height="233px" xmlns="http://www.w3.org/2000/svg">
  <g transform="matrix(1 0 0 1 -1384 -333 )">
    <path d="M 1385 337  A 3 3 0 0 1 1388 334 L 1721 334  A 3 3 0 0 1 1724 337 L 1724 562  A 3 3 0 0 1 1721 565 L 1388 565  A 3 3 0 0 1 1385 562 L 1385 337  Z " fill-rule="nonzero" fill="#ff3399" stroke="none" fill-opacity="0.0980392156862745" />
    <path d="M 1384.5 337  A 3.5 3.5 0 0 1 1388 333.5 L 1721 333.5  A 3.5 3.5 0 0 1 1724.5 337 L 1724.5 562  A 3.5 3.5 0 0 1 1721 565.5 L 1388 565.5  A 3.5 3.5 0 0 1 1384.5 562 L 1384.5 337  Z " stroke-width="1" stroke-dasharray="9,4" stroke="#ff3399" fill="none" stroke-dashoffset="0.5" />
  </g>
</svg>