<?xml version="1.0" encoding="utf-8"?>
<svg version="1.1" xmlns:xlink="http://www.w3.org/1999/xlink" width="116px" height="32px" xmlns="http://www.w3.org/2000/svg">
  <g transform="matrix(1 0 0 1 -315 -198 )">
    <path d="M 316 202  A 3 3 0 0 1 319 199 L 427 199  A 3 3 0 0 1 430 202 L 430 226  A 3 3 0 0 1 427 229 L 319 229  A 3 3 0 0 1 316 226 L 316 202  Z " fill-rule="nonzero" fill="#ffffff" stroke="none" />
    <path d="M 315.5 202  A 3.5 3.5 0 0 1 319 198.5 L 427 198.5  A 3.5 3.5 0 0 1 430.5 202 L 430.5 226  A 3.5 3.5 0 0 1 427 229.5 L 319 229.5  A 3.5 3.5 0 0 1 315.5 226 L 315.5 202  Z " stroke-width="1" stroke="#1890ff" fill="none" stroke-opacity="0.647058823529412" />
  </g>
</svg>