<?xml version="1.0" encoding="utf-8"?>
<svg version="1.1" xmlns:xlink="http://www.w3.org/1999/xlink" width="20px" height="20px" xmlns="http://www.w3.org/2000/svg">
  <g transform="matrix(1 0 0 1 -453 -205 )">
    <path d="M 16.3802083333333 15.1822916666667  C 16.5711805555556 14.7222222222222  16.6666666666667 14.2838541666667  16.6666666666667 13.8671875  C 16.6666666666667 13.7717013888889  16.6579861111111 13.7022569444444  16.640625 13.6588541666667  C 16.6232638888889 13.6154513888889  16.5451388888889 13.5438368055556  16.40625 13.4440104166667  C 16.2673611111111 13.3441840277778  16.0915798611111 13.2356770833333  15.87890625 13.1184895833333  C 15.6662326388889 13.0013020833333  15.4600694444444 12.8862847222222  15.2604166666667 12.7734375  C 15.0607638888889 12.6605902777778  14.86328125 12.5520833333333  14.66796875 12.4479166666667  C 14.47265625 12.34375  14.3489583333333 12.2786458333333  14.296875 12.2526041666667  C 14.2534722222222 12.2265625  14.1710069444444 12.1701388888889  14.0494791666667 12.0833333333333  C 13.9279513888889 11.9965277777778  13.8194444444444 11.9314236111111  13.7239583333333 11.8880208333333  C 13.6284722222222 11.8446180555556  13.5373263888889 11.8229166666667  13.4505208333333 11.8229166666667  C 13.3203125 11.8229166666667  13.1618923611111 11.9118923611111  12.9752604166667 12.08984375  C 12.7886284722222 12.2677951388889  12.6171875 12.4631076388889  12.4609375 12.67578125  C 12.3046875 12.8884548611111  12.1375868055556 13.0837673611111  11.9596354166667 13.26171875  C 11.7816840277778 13.4396701388889  11.6362847222222 13.5286458333333  11.5234375 13.5286458333333  C 11.4626736111111 13.5286458333333  11.3910590277778 13.5134548611111  11.30859375 13.4830729166667  C 11.2261284722222 13.4526909722222  11.1588541666667 13.4244791666667  11.1067708333333 13.3984375  C 11.0546875 13.3723958333333  10.9809027777778 13.3311631944444  10.8854166666667 13.2747395833333  C 10.7899305555556 13.2183159722222  10.7291666666667 13.1814236111111  10.703125 13.1640625  C 9.84375 12.6866319444444  9.10590277777778 12.1375868055556  8.48958333333333 11.5169270833333  C 7.87326388888889 10.8962673611111  7.32204861111111 10.15625  6.8359375 9.296875  C 6.81857638888889 9.27083333333333  6.78168402777778 9.21006944444444  6.72526041666667 9.11458333333333  C 6.66883680555556 9.01909722222222  6.62760416666667 8.9453125  6.6015625 8.89322916666667  C 6.57552083333333 8.84114583333333  6.54730902777778 8.77387152777778  6.51692708333333 8.69140625  C 6.48654513888889 8.60894097222222  6.47135416666667 8.53732638888889  6.47135416666667 8.4765625  C 6.47135416666667 8.36371527777778  6.56032986111111 8.21831597222222  6.73828125 8.04036458333333  C 6.91623263888889 7.86241319444444  7.11154513888889 7.6953125  7.32421875 7.5390625  C 7.53689236111111 7.3828125  7.73220486111111 7.21137152777778  7.91015625 7.02473958333333  C 8.08810763888889 6.83810763888889  8.17708333333333 6.6796875  8.17708333333333 6.54947916666667  C 8.17708333333333 6.46267361111111  8.15538194444444 6.37152777777778  8.11197916666667 6.27604166666667  C 8.06857638888889 6.18055555555555  8.00347222222222 6.07204861111111  7.91666666666667 5.95052083333333  C 7.82986111111111 5.82899305555555  7.7734375 5.74652777777778  7.74739583333333 5.703125  C 7.72135416666667 5.65104166666667  7.65625 5.52734375  7.55208333333333 5.33203125  C 7.44791666666667 5.13671875  7.33940972222222 4.93923611111111  7.2265625 4.73958333333333  C 7.11371527777778 4.53993055555555  6.99869791666667 4.33376736111111  6.88151041666667 4.12109375  C 6.76432291666667 3.90842013888889  6.65581597222222 3.73263888888889  6.55598958333333 3.59375  C 6.45616319444445 3.45486111111111  6.38454861111111 3.37673611111111  6.34114583333333 3.359375  C 6.29774305555556 3.34201388888889  6.22829861111111 3.33333333333333  6.1328125 3.33333333333333  C 5.71614583333333 3.33333333333333  5.27777777777778 3.42881944444444  4.81770833333333 3.61979166666667  C 4.41840277777778 3.80208333333333  4.07118055555556 4.21223958333333  3.77604166666667 4.85026041666667  C 3.48090277777778 5.48828125  3.33333333333333 6.0546875  3.33333333333333 6.54947916666667  C 3.33333333333333 6.68836805555556  3.34418402777778 6.8359375  3.36588541666667 6.9921875  C 3.38758680555556 7.1484375  3.40928819444444 7.28081597222222  3.43098958333333 7.38932291666667  C 3.45269097222222 7.49782986111111  3.49175347222222 7.64105902777778  3.54817708333333 7.81901041666667  C 3.60460069444444 7.99696180555556  3.64800347222222 8.125  3.67838541666667 8.203125  C 3.70876736111111 8.28125  3.76302083333333 8.42447916666667  3.84114583333333 8.6328125  C 3.91927083333333 8.84114583333333  3.96701388888889 8.97135416666667  3.984375 9.0234375  C 4.50520833333333 10.4470486111111  5.44487847222222 11.8381076388889  6.80338541666667 13.1966145833333  C 8.16189236111111 14.5551215277778  9.55295138888889 15.4947916666667  10.9765625 16.015625  C 11.0286458333333 16.0329861111111  11.1588541666667 16.0807291666667  11.3671875 16.1588541666667  C 11.5755208333333 16.2369791666667  11.71875 16.2912326388889  11.796875 16.3216145833333  C 11.875 16.3519965277778  12.0030381944444 16.3953993055556  12.1809895833333 16.4518229166667  C 12.3589409722222 16.5082465277778  12.5021701388889 16.5473090277778  12.6106770833333 16.5690104166667  C 12.7191840277778 16.5907118055556  12.8515625 16.6124131944444  13.0078125 16.6341145833333  C 13.1640625 16.6558159722222  13.3116319444444 16.6666666666667  13.4505208333333 16.6666666666667  C 13.9453125 16.6666666666667  14.51171875 16.5190972222222  15.1497395833333 16.2239583333333  C 15.7877604166667 15.9288194444444  16.1979166666667 15.5815972222222  16.3802083333333 15.1822916666667  Z M 18.8997395833333 1.10026041666667  C 19.6332465277778 1.83376736111111  20 2.71701388888889  20 3.75  L 20 16.25  C 20 17.2829861111111  19.6332465277778 18.1662326388889  18.8997395833333 18.8997395833333  C 18.1662326388889 19.6332465277778  17.2829861111111 20  16.25 20  L 3.75 20  C 2.71701388888889 20  1.83376736111111 19.6332465277778  1.10026041666667 18.8997395833333  C 0.366753472222222 18.1662326388889  0 17.2829861111111  0 16.25  L 0 3.75  C 0 2.71701388888889  0.366753472222222 1.83376736111111  1.10026041666667 1.10026041666667  C 1.83376736111111 0.366753472222221  2.71701388888889 0  3.75 0  L 16.25 0  C 17.2829861111111 0  18.1662326388889 0.366753472222221  18.8997395833333 1.10026041666667  Z " fill-rule="nonzero" fill="#000000" stroke="none" transform="matrix(1 0 0 1 453 205 )" />
  </g>
</svg>