<?xml version="1.0" encoding="utf-8"?>
<svg version="1.1" xmlns:xlink="http://www.w3.org/1999/xlink" width="281px" height="89px" xmlns="http://www.w3.org/2000/svg">
  <g transform="matrix(1 0 0 1 -1384 -333 )">
    <path d="M 1385 337  A 3 3 0 0 1 1388 334 L 1661 334  A 3 3 0 0 1 1664 337 L 1664 418  A 3 3 0 0 1 1661 421 L 1388 421  A 3 3 0 0 1 1385 418 L 1385 337  Z " fill-rule="nonzero" fill="#ff3399" stroke="none" fill-opacity="0.0980392156862745" />
    <path d="M 1384.5 337  A 3.5 3.5 0 0 1 1388 333.5 L 1661 333.5  A 3.5 3.5 0 0 1 1664.5 337 L 1664.5 418  A 3.5 3.5 0 0 1 1661 421.5 L 1388 421.5  A 3.5 3.5 0 0 1 1384.5 418 L 1384.5 337  Z " stroke-width="1" stroke-dasharray="9,4" stroke="#ff3399" fill="none" stroke-dashoffset="0.5" />
  </g>
</svg>