<?xml version="1.0" encoding="utf-8"?>
<svg version="1.1" xmlns:xlink="http://www.w3.org/1999/xlink" width="28px" height="21px" xmlns="http://www.w3.org/2000/svg">
  <g transform="matrix(1 0 0 1 -106 -198 )">
    <path d="M 13.494140625 15.1689453125  C 13.8313802083333 14.7815755208333  14 14.2962239583333  14 13.712890625  C 14 13.1295572916667  13.958984375 12.5940755208333  13.876953125 12.1064453125  C 13.794921875 11.6188151041667  13.6604817708333 11.1494140625  13.4736328125 10.6982421875  C 13.2867838541667 10.2470703125  13.0110677083333 9.8916015625  12.646484375 9.6318359375  C 12.2819010416667 9.3720703125  11.83984375 9.2421875  11.3203125 9.2421875  C 11.265625 9.27864583333333  11.12890625 9.36067708333333  10.91015625 9.48828125  C 10.69140625 9.61588541666666  10.5205078125 9.7138671875  10.3974609375 9.7822265625  C 10.2744140625 9.8505859375  10.1126302083333 9.93033854166667  9.912109375 10.021484375  C 9.71158854166667 10.1126302083333  9.515625 10.1787109375  9.32421875 10.2197265625  C 9.1328125 10.2607421875  8.94140625 10.28125  8.75 10.28125  C 8.55859375 10.28125  8.3671875 10.2607421875  8.17578125 10.2197265625  C 7.984375 10.1787109375  7.78841145833333 10.1126302083333  7.587890625 10.021484375  C 7.38736979166667 9.93033854166667  7.2255859375 9.8505859375  7.1025390625 9.7822265625  C 6.9794921875 9.7138671875  6.80859375 9.61588541666666  6.58984375 9.48828125  C 6.37109375 9.36067708333333  6.234375 9.27864583333333  6.1796875 9.2421875  C 5.66015625 9.2421875  5.21809895833333 9.3720703125  4.853515625 9.6318359375  C 4.48893229166667 9.8916015625  4.21321614583333 10.2470703125  4.0263671875 10.6982421875  C 3.83951822916667 11.1494140625  3.705078125 11.6188151041667  3.623046875 12.1064453125  C 3.541015625 12.5940755208333  3.5 13.1295572916667  3.5 13.712890625  C 3.5 14.2962239583333  3.66861979166667 14.7815755208333  4.005859375 15.1689453125  C 4.34309895833333 15.5563151041667  4.7578125 15.75  5.25 15.75  L 12.25 15.75  C 12.7421875 15.75  13.1569010416667 15.5563151041667  13.494140625 15.1689453125  Z M 10.9443359375 8.7978515625  C 11.5504557291667 8.19173177083333  11.853515625 7.46028645833333  11.853515625 6.603515625  C 11.853515625 5.74674479166667  11.5504557291667 5.01529947916667  10.9443359375 4.4091796875  C 10.3382161458333 3.80305989583333  9.60677083333333 3.5  8.75 3.5  C 7.89322916666667 3.5  7.16178385416667 3.80305989583333  6.5556640625 4.4091796875  C 5.94954427083333 5.01529947916667  5.646484375 5.74674479166667  5.646484375 6.603515625  C 5.646484375 7.46028645833333  5.94954427083333 8.19173177083333  6.5556640625 8.7978515625  C 7.16178385416667 9.40397135416667  7.89322916666667 9.70703125  8.75 9.70703125  C 9.60677083333333 9.70703125  10.3382161458333 9.40397135416667  10.9443359375 8.7978515625  Z M 24.376953125 13.876953125  C 24.458984375 13.794921875  24.5 13.6901041666667  24.5 13.5625  L 24.5 12.6875  C 24.5 12.5598958333333  24.458984375 12.455078125  24.376953125 12.373046875  C 24.294921875 12.291015625  24.1901041666667 12.25  24.0625 12.25  L 16.1875 12.25  C 16.0598958333333 12.25  15.955078125 12.291015625  15.873046875 12.373046875  C 15.791015625 12.455078125  15.75 12.5598958333333  15.75 12.6875  L 15.75 13.5625  C 15.75 13.6901041666667  15.791015625 13.794921875  15.873046875 13.876953125  C 15.955078125 13.958984375  16.0598958333333 14  16.1875 14  L 24.0625 14  C 24.1901041666667 14  24.294921875 13.958984375  24.376953125 13.876953125  Z M 24.3564453125 10.3564453125  C 24.4521484375 10.2607421875  24.5 10.14453125  24.5 10.0078125  L 24.5 9.2421875  C 24.5 9.10546875  24.4521484375 8.9892578125  24.3564453125 8.8935546875  C 24.2607421875 8.7978515625  24.14453125 8.75  24.0078125 8.75  L 16.2421875 8.75  C 16.10546875 8.75  15.9892578125 8.7978515625  15.8935546875 8.8935546875  C 15.7978515625 8.9892578125  15.75 9.10546875  15.75 9.2421875  L 15.75 10.0078125  C 15.75 10.14453125  15.7978515625 10.2607421875  15.8935546875 10.3564453125  C 15.9892578125 10.4521484375  16.10546875 10.5  16.2421875 10.5  L 24.0078125 10.5  C 24.14453125 10.5  24.2607421875 10.4521484375  24.3564453125 10.3564453125  Z M 24.376953125 6.876953125  C 24.458984375 6.794921875  24.5 6.69010416666667  24.5 6.5625  L 24.5 5.6875  C 24.5 5.55989583333333  24.458984375 5.455078125  24.376953125 5.373046875  C 24.294921875 5.291015625  24.1901041666667 5.25  24.0625 5.25  L 16.1875 5.25  C 16.0598958333333 5.25  15.955078125 5.291015625  15.873046875 5.373046875  C 15.791015625 5.455078125  15.75 5.55989583333333  15.75 5.6875  L 15.75 6.5625  C 15.75 6.69010416666667  15.791015625 6.794921875  15.873046875 6.876953125  C 15.955078125 6.958984375  16.0598958333333 7  16.1875 7  L 24.0625 7  C 24.1901041666667 7  24.294921875 6.958984375  24.376953125 6.876953125  Z M 27.357421875 0.642578125000001  C 27.7858072916667 1.07096354166667  28 1.5859375  28 2.1875  L 28 18.8125  C 28 19.4140625  27.7858072916667 19.9290364583333  27.357421875 20.357421875  C 26.9290364583333 20.7858072916667  26.4140625 21  25.8125 21  L 21 21  L 21 19.6875  C 21 19.5598958333333  20.958984375 19.455078125  20.876953125 19.373046875  C 20.794921875 19.291015625  20.6901041666667 19.25  20.5625 19.25  L 19.6875 19.25  C 19.5598958333333 19.25  19.455078125 19.291015625  19.373046875 19.373046875  C 19.291015625 19.455078125  19.25 19.5598958333333  19.25 19.6875  L 19.25 21  L 8.75 21  L 8.75 19.6875  C 8.75 19.5598958333333  8.708984375 19.455078125  8.626953125 19.373046875  C 8.544921875 19.291015625  8.44010416666667 19.25  8.3125 19.25  L 7.4375 19.25  C 7.30989583333333 19.25  7.205078125 19.291015625  7.123046875 19.373046875  C 7.041015625 19.455078125  7 19.5598958333333  7 19.6875  L 7 21  L 2.1875 21  C 1.5859375 21  1.07096354166667 20.7858072916667  0.642578125 20.357421875  C 0.214192708333333 19.9290364583333  0 19.4140625  0 18.8125  L 0 2.1875  C 0 1.5859375  0.214192708333333 1.07096354166667  0.642578125 0.642578125000001  C 1.07096354166667 0.214192708333331  1.5859375 0  2.1875 0  L 25.8125 0  C 26.4140625 0  26.9290364583333 0.214192708333331  27.357421875 0.642578125000001  Z " fill-rule="nonzero" fill="#000000" stroke="none" transform="matrix(1 0 0 1 106 198 )" />
  </g>
</svg>