<?xml version="1.0" encoding="utf-8"?>
<svg version="1.1" xmlns:xlink="http://www.w3.org/1999/xlink" width="24px" height="24px" xmlns="http://www.w3.org/2000/svg">
  <g transform="matrix(1 0 0 1 -265 -343 )">
    <path d="M 15.859375 19.859375  C 15.953125 19.765625  16 19.6458333333333  16 19.5  L 16 17  C 16 16.8541666666667  15.953125 16.734375  15.859375 16.640625  C 15.765625 16.546875  15.6458333333333 16.5  15.5 16.5  L 14 16.5  L 14 8.5  C 14 8.35416666666667  13.953125 8.234375  13.859375 8.140625  C 13.765625 8.046875  13.6458333333333 8  13.5 8  L 8.5 8  C 8.35416666666667 8  8.234375 8.046875  8.140625 8.140625  C 8.046875 8.234375  8 8.35416666666667  8 8.5  L 8 11  C 8 11.1458333333333  8.046875 11.265625  8.140625 11.359375  C 8.234375 11.453125  8.35416666666667 11.5  8.5 11.5  L 10 11.5  L 10 16.5  L 8.5 16.5  C 8.35416666666667 16.5  8.234375 16.546875  8.140625 16.640625  C 8.046875 16.734375  8 16.8541666666667  8 17  L 8 19.5  C 8 19.6458333333333  8.046875 19.765625  8.140625 19.859375  C 8.234375 19.953125  8.35416666666667 20  8.5 20  L 15.5 20  C 15.6458333333333 20  15.765625 19.953125  15.859375 19.859375  Z M 13.859375 5.859375  C 13.953125 5.765625  14 5.64583333333333  14 5.5  L 14 3  C 14 2.85416666666667  13.953125 2.734375  13.859375 2.640625  C 13.765625 2.546875  13.6458333333333 2.5  13.5 2.5  L 10.5 2.5  C 10.3541666666667 2.5  10.234375 2.546875  10.140625 2.640625  C 10.046875 2.734375  10 2.85416666666667  10 3  L 10 5.5  C 10 5.64583333333333  10.046875 5.765625  10.140625 5.859375  C 10.234375 5.953125  10.3541666666667 6  10.5 6  L 13.5 6  C 13.6458333333333 6  13.765625 5.953125  13.859375 5.859375  Z M 22.390625 5.9765625  C 23.4635416666667 7.81510416666666  24 9.82291666666666  24 12  C 24 14.1770833333333  23.4635416666667 16.1848958333333  22.390625 18.0234375  C 21.3177083333333 19.8619791666667  19.8619791666667 21.3177083333333  18.0234375 22.390625  C 16.1848958333333 23.4635416666667  14.1770833333333 24  12 24  C 9.82291666666667 24  7.81510416666667 23.4635416666667  5.9765625 22.390625  C 4.13802083333333 21.3177083333333  2.68229166666667 19.8619791666667  1.609375 18.0234375  C 0.536458333333333 16.1848958333333  0 14.1770833333333  0 12  C 0 9.82291666666666  0.536458333333333 7.81510416666666  1.609375 5.9765625  C 2.68229166666667 4.13802083333333  4.13802083333333 2.68229166666666  5.9765625 1.609375  C 7.81510416666667 0.536458333333331  9.82291666666667 0  12 0  C 14.1770833333333 0  16.1848958333333 0.536458333333331  18.0234375 1.609375  C 19.8619791666667 2.68229166666666  21.3177083333333 4.13802083333333  22.390625 5.9765625  Z " fill-rule="nonzero" fill="#000000" stroke="none" transform="matrix(1 0 0 1 265 343 )" />
  </g>
</svg>