<?xml version="1.0" encoding="utf-8"?>
<svg version="1.1" xmlns:xlink="http://www.w3.org/1999/xlink" width="10px" height="15px" preserveAspectRatio="xMidYMin meet" viewBox="235 1265  8 15" xmlns="http://www.w3.org/2000/svg">
  <path d="M 622 368  L 622 487  A 3 3 0 0 1 625 490 A 3 3 0 0 1 622 493 L 622 838  A 5 5 0 0 1 617 843 L 558 843  A 3 3 0 0 0 555 840 A 3 3 0 0 0 552 843 L 31 843  A 5 5 0 0 0 26 848 L 26 1265  A 5 5 0 0 0 31 1270 L 234 1270  A 5 5 0 0 1 239 1275 L 239 1280  " stroke-width="2" stroke="#0099cc" fill="none" />
</svg>