<?xml version="1.0" encoding="utf-8"?>
<svg version="1.1" xmlns:xlink="http://www.w3.org/1999/xlink" width="258px" height="117px" xmlns="http://www.w3.org/2000/svg">
  <g transform="matrix(1 0 0 1 -1425 -491 )">
    <path d="M 1426 495  A 3 3 0 0 1 1429 492 L 1679 492  A 3 3 0 0 1 1682 495 L 1682 604  A 3 3 0 0 1 1679 607 L 1429 607  A 3 3 0 0 1 1426 604 L 1426 495  Z " fill-rule="nonzero" fill="#ff3399" stroke="none" fill-opacity="0.0980392156862745" />
    <path d="M 1425.5 495  A 3.5 3.5 0 0 1 1429 491.5 L 1679 491.5  A 3.5 3.5 0 0 1 1682.5 495 L 1682.5 604  A 3.5 3.5 0 0 1 1679 607.5 L 1429 607.5  A 3.5 3.5 0 0 1 1425.5 604 L 1425.5 495  Z " stroke-width="1" stroke-dasharray="9,4" stroke="#ff3399" fill="none" stroke-dashoffset="0.5" />
  </g>
</svg>