<?xml version="1.0" encoding="utf-8"?>
<svg version="1.1" xmlns:xlink="http://www.w3.org/1999/xlink" width="10px" height="18px" preserveAspectRatio="xMidYMin meet" viewBox="727 1865  8 18" xmlns="http://www.w3.org/2000/svg">
  <path d="M 487 585  L 487 595  A 5 5 0 0 0 492 600 L 728 600  A 3 3 0 0 1 731 597 A 3 3 0 0 1 734 600 L 925 600  A 5 5 0 0 1 930 605 L 930 1222  A 3 3 0 0 1 933 1225 A 3 3 0 0 1 930 1228 L 930 1865  A 5 5 0 0 1 925 1870 L 736 1870  A 5 5 0 0 0 731 1875 L 731 1883  " stroke-width="2" stroke="#0099cc" fill="none" />
</svg>