<?xml version="1.0" encoding="utf-8"?>
<svg version="1.1" xmlns:xlink="http://www.w3.org/1999/xlink" width="114px" height="10px" preserveAspectRatio="xMinYMid meet" viewBox="868 1252  114 8" xmlns="http://www.w3.org/2000/svg">
  <path d="M 868 1256  L 927 1256  A 3 3 0 0 1 930 1253 A 3 3 0 0 1 933 1256 L 946 1256  A 3 3 0 0 1 949 1253 A 3 3 0 0 1 952 1256 L 962 1256  A 3 3 0 0 1 965 1253 A 3 3 0 0 1 968 1256 L 972 1256  A 5 5 0 0 0 977 1251 L 977 1066  A 5 5 0 0 1 982 1061 L 987 1061  " stroke-width="2" stroke="#0099cc" fill="none" />
</svg>