<?xml version="1.0" encoding="utf-8"?>
<svg version="1.1" xmlns:xlink="http://www.w3.org/1999/xlink" width="10px" height="243px" preserveAspectRatio="xMidYMin meet" viewBox="1796 1552  8 243" xmlns="http://www.w3.org/2000/svg">
  <path d="M 765 1038.5  L 927 1038.5  A 3 3 0 0 1 930 1035.5 A 3 3 0 0 1 933 1038.5 L 946 1038.5  A 3 3 0 0 1 949 1035.5 A 3 3 0 0 1 952 1038.5 L 965 1038.5  A 5 5 0 0 1 970.5 1043 L 970.5 1253  A 3 3 0 0 1 973.5 1256 A 3 3 0 0 1 970.5 1259 L 970.5 1569  A 3 3 0 0 1 973.5 1572 A 3 3 0 0 1 970.5 1575 L 970.5 1785  A 5 5 0 0 0 975.5 1790.5 L 1795 1790.5  A 5 5 0 0 0 1800.5 1785.5 L 1800.5 1562  A 5 5 0 0 1 1805.5 1557.5 L 1811 1557.5  " stroke-width="1" stroke="#ff3399" fill="none" />
  <path d="M 767 1035.5  A 3 3 0 0 0 764 1038.5 A 3 3 0 0 0 767 1041.5 A 3 3 0 0 0 770 1038.5 A 3 3 0 0 0 767 1035.5 Z " fill-rule="nonzero" fill="#ff3399" stroke="none" />
</svg>