<?xml version="1.0" encoding="utf-8"?>
<svg version="1.1" xmlns:xlink="http://www.w3.org/1999/xlink" width="10px" height="9px" preserveAspectRatio="xMinYMid meet" viewBox="851 1042  10 7" xmlns="http://www.w3.org/2000/svg">
  <path d="M 856.624350313157 1042.48961583702  A 4 4 0 0 0 860.5 1045.5 L 924 1045.5  A 5 5 0 0 1 929.5 1050 L 929.5 1222  A 3 3 0 0 1 932.5 1225 A 3 3 0 0 1 929.5 1228 L 929.5 1567  A 5 5 0 0 0 934 1572.5 L 946 1572.5  A 3 3 0 0 1 949 1569.5 A 3 3 0 0 1 952 1572.5 L 1811 1572.5  " stroke-width="1" stroke="#ff3399" fill="none" />
  <path d="M 857.573244524505 1041.22655504009  A 3 3 0 0 0 854.573244524505 1044.22655504009 A 3 3 0 0 0 857.573244524505 1047.22655504009 A 3 3 0 0 0 860.573244524505 1044.22655504009 A 3 3 0 0 0 857.573244524505 1041.22655504009 Z " fill-rule="nonzero" fill="#ff3399" stroke="none" />
</svg>