<?xml version="1.0" encoding="utf-8"?>
<svg version="1.1" xmlns:xlink="http://www.w3.org/1999/xlink" width="319px" height="75px" xmlns="http://www.w3.org/2000/svg">
  <g transform="matrix(1 0 0 1 -1845 -2205 )">
    <path d="M 1846 2209  A 3 3 0 0 1 1849 2206 L 2160 2206  A 3 3 0 0 1 2163 2209 L 2163 2276  A 3 3 0 0 1 2160 2279 L 1849 2279  A 3 3 0 0 1 1846 2276 L 1846 2209  Z " fill-rule="nonzero" fill="#ff3399" stroke="none" fill-opacity="0.0980392156862745" />
    <path d="M 1845.5 2209  A 3.5 3.5 0 0 1 1849 2205.5 L 2160 2205.5  A 3.5 3.5 0 0 1 2163.5 2209 L 2163.5 2276  A 3.5 3.5 0 0 1 2160 2279.5 L 1849 2279.5  A 3.5 3.5 0 0 1 1845.5 2276 L 1845.5 2209  Z " stroke-width="1" stroke-dasharray="9,4" stroke="#ff3399" fill="none" stroke-dashoffset="0.5" />
  </g>
</svg>