<?xml version="1.0" encoding="utf-8"?>
<svg version="1.1" xmlns:xlink="http://www.w3.org/1999/xlink" width="436px" height="32px" xmlns="http://www.w3.org/2000/svg">
  <defs>
    <mask fill="white" id="clip240">
      <path d="M 0 28  L 0 4  C 0 1.75999999999999  1.74399999999999 0  3.96363636363636 0  L 432.036363636364 0  C 434.256 0  436 1.75999999999999  436 4  L 436 28  C 436 30.24  434.256 32  432.036363636364 32  L 47.5636363636364 32  L 3.96363636363636 32  C 1.74399999999999 32  0 30.24  0 28  Z " fill-rule="evenodd" />
    </mask>
  </defs>
  <g transform="matrix(1 0 0 1 -868 -1623 )">
    <path d="M 0 28  L 0 4  C 0 1.75999999999999  1.74399999999999 0  3.96363636363636 0  L 432.036363636364 0  C 434.256 0  436 1.75999999999999  436 4  L 436 28  C 436 30.24  434.256 32  432.036363636364 32  L 47.5636363636364 32  L 3.96363636363636 32  C 1.74399999999999 32  0 30.24  0 28  Z " fill-rule="nonzero" fill="#ffffff" stroke="none" transform="matrix(1 0 0 1 868 1623 )" />
    <path d="M 0 28  L 0 4  C 0 1.75999999999999  1.74399999999999 0  3.96363636363636 0  L 432.036363636364 0  C 434.256 0  436 1.75999999999999  436 4  L 436 28  C 436 30.24  434.256 32  432.036363636364 32  L 47.5636363636364 32  L 3.96363636363636 32  C 1.74399999999999 32  0 30.24  0 28  Z " stroke-width="2" stroke="#d9d9d9" fill="none" transform="matrix(1 0 0 1 868 1623 )" mask="url(#clip240)" />
  </g>
</svg>