<?xml version="1.0" encoding="utf-8"?>
<svg version="1.1" xmlns:xlink="http://www.w3.org/1999/xlink" width="391px" height="92px" xmlns="http://www.w3.org/2000/svg">
  <g transform="matrix(1 0 0 1 -350 -236 )">
    <path d="M 0 80.5  L 0 11.5  C 0 5.05999999999997  0.524512195121898 0  1.19207317073175 0  L 124.437301587302 0  L 130.953968253968 0  L 389.807926829268 0  C 390.475487804878 0  391 5.05999999999997  391 11.5  L 391 80.5  C 391 86.94  390.475487804878 92  389.807926829268 92  L 220.831554878049 92  L 166.950793650794 92  L 150.814285714286 92  L 138.09126984127 92  L 117.920634920635 92  L 1.19207317073175 92  C 0.524512195121898 92  0 86.94  0 80.5  Z " fill-rule="nonzero" fill="#ffffff" stroke="none" transform="matrix(1 0 0 1 350 236 )" />
  </g>
</svg>