<?xml version="1.0" encoding="utf-8"?>
<svg version="1.1" xmlns:xlink="http://www.w3.org/1999/xlink" width="177px" height="16px" xmlns="http://www.w3.org/2000/svg">
  <g transform="matrix(1 0 0 1 -771 -455 )">
    <path d="M 0 14  L 0 2  C 0 0.879999999999995  0.393333333333192 0  0.893939393939338 0  L 57.8825757575758 0  L 73.3030303030303 0  L 75.9848484848486 0  L 102.774193548387 0  L 115.620967741935 0  L 176.106060606061 0  C 176.606666666666 0  177 0.879999999999995  177 2  L 177 14  C 177 15.12  176.606666666666 16  176.106060606061 16  L 73.0795454545455 16  L 70.844696969697 16  L 59.223484848485 16  L 0.893939393939338 16  C 0.393333333333192 16  0 15.12  0 14  Z " fill-rule="nonzero" fill="#ffffff" stroke="none" transform="matrix(1 0 0 1 771 455 )" />
  </g>
</svg>