<?xml version="1.0" encoding="utf-8"?>
<svg version="1.1" xmlns:xlink="http://www.w3.org/1999/xlink" width="299px" height="92px" xmlns="http://www.w3.org/2000/svg">
  <g transform="matrix(1 0 0 1 -350 -429 )">
    <path d="M 0 80.5  L 0 11.5  C 0 5.05999999999997  0.401097560975569 0  0.911585365853693 0  L 95.1579365079365 0  L 100.14126984127 0  L 298.088414634146 0  C 298.598902439024 0  299 5.05999999999997  299 11.5  L 299 80.5  C 299 86.94  298.598902439024 92  298.088414634146 92  L 168.87118902439 92  L 127.668253968254 92  L 115.328571428571 92  L 105.599206349206 92  L 90.1746031746032 92  L 0.911585365853693 92  C 0.401097560975569 92  0 86.94  0 80.5  Z " fill-rule="nonzero" fill="#ffffff" stroke="none" transform="matrix(1 0 0 1 350 429 )" />
  </g>
</svg>