<?xml version="1.0" encoding="utf-8"?>
<svg version="1.1" xmlns:xlink="http://www.w3.org/1999/xlink" width="301px" height="92px" xmlns="http://www.w3.org/2000/svg">
  <g transform="matrix(1 0 0 1 -350 -429 )">
    <path d="M 0 80.5  L 0 11.5  C 0 5.05999999999997  0.403780487804837 0  0.917682926829303 0  L 95.7944444444444 0  L 100.811111111111 0  L 300.082317073171 0  C 300.596219512195 0  301 5.05999999999997  301 11.5  L 301 80.5  C 301 86.94  300.596219512195 92  300.082317073171 92  L 170.000762195122 92  L 128.522222222222 92  L 116.1 92  L 106.305555555556 92  L 90.7777777777778 92  L 0.917682926829303 92  C 0.403780487804837 92  0 86.94  0 80.5  Z " fill-rule="nonzero" fill="#ffffff" stroke="none" transform="matrix(1 0 0 1 350 429 )" />
  </g>
</svg>