<?xml version="1.0" encoding="utf-8"?>
<svg version="1.1" xmlns:xlink="http://www.w3.org/1999/xlink" width="343px" height="92px" xmlns="http://www.w3.org/2000/svg">
  <g transform="matrix(1 0 0 1 -350 -236 )">
    <path d="M 0 80.5  L 0 11.5  C 0 5.05999999999997  0.460121951219465 0  1.04573170731711 0  L 109.161111111111 0  L 114.877777777778 0  L 341.954268292683 0  C 342.539878048781 0  343 5.05999999999997  343 11.5  L 343 80.5  C 343 86.94  342.539878048781 92  341.954268292683 92  L 193.721798780488 92  L 146.455555555556 92  L 132.3 92  L 121.138888888889 92  L 103.444444444444 92  L 1.04573170731711 92  C 0.460121951219465 92  0 86.94  0 80.5  Z " fill-rule="nonzero" fill="#ffffff" stroke="none" transform="matrix(1 0 0 1 350 236 )" />
  </g>
</svg>