<?xml version="1.0" encoding="utf-8"?>
<svg version="1.1" xmlns:xlink="http://www.w3.org/1999/xlink" width="10px" height="79px" preserveAspectRatio="xMidYMin meet" viewBox="1466 215  8 79" xmlns="http://www.w3.org/2000/svg">
  <path d="M 1184.5 238  L 1184.5 225  A 5 5 0 0 1 1189.5 220.5 L 1465 220.5  A 5 5 0 0 1 1470.5 225.5 L 1470.5 284  A 5 5 0 0 0 1475.5 289.5 L 1481 289.5  " stroke-width="1" stroke="#ff3399" fill="none" />
  <path d="M 1184.5 233  A 3 3 0 0 0 1181.5 236 A 3 3 0 0 0 1184.5 239 A 3 3 0 0 0 1187.5 236 A 3 3 0 0 0 1184.5 233 Z " fill-rule="nonzero" fill="#ff3399" stroke="none" />
</svg>