<?xml version="1.0" encoding="utf-8"?>
<svg version="1.1" xmlns:xlink="http://www.w3.org/1999/xlink" width="277px" height="32px" xmlns="http://www.w3.org/2000/svg">
  <defs>
    <mask fill="white" id="clip42">
      <path d="M 0 28  L 0 4  C 0 1.75999999999999  1.10799999999999 0  2.51818181818182 0  L 274.481818181818 0  C 275.892 0  277 1.75999999999999  277 4  L 277 28  C 277 30.24  275.892 32  274.481818181818 32  L 30.2181818181818 32  L 2.51818181818182 32  C 1.10799999999999 32  0 30.24  0 28  Z " fill-rule="evenodd" />
    </mask>
  </defs>
  <g transform="matrix(1 0 0 1 -864 -1107 )">
    <path d="M 0 28  L 0 4  C 0 1.75999999999999  1.10799999999999 0  2.51818181818182 0  L 274.481818181818 0  C 275.892 0  277 1.75999999999999  277 4  L 277 28  C 277 30.24  275.892 32  274.481818181818 32  L 30.2181818181818 32  L 2.51818181818182 32  C 1.10799999999999 32  0 30.24  0 28  Z " fill-rule="nonzero" fill="#ffffff" stroke="none" transform="matrix(1 0 0 1 864 1107 )" />
    <path d="M 0 28  L 0 4  C 0 1.75999999999999  1.10799999999999 0  2.51818181818182 0  L 274.481818181818 0  C 275.892 0  277 1.75999999999999  277 4  L 277 28  C 277 30.24  275.892 32  274.481818181818 32  L 30.2181818181818 32  L 2.51818181818182 32  C 1.10799999999999 32  0 30.24  0 28  Z " stroke-width="2" stroke="#d9d9d9" fill="none" transform="matrix(1 0 0 1 864 1107 )" mask="url(#clip42)" />
  </g>
</svg>