<?xml version="1.0" encoding="utf-8"?><svg version="1.1" xmlns:xlink="http://www.w3.org/1999/xlink" width="1073px" height="178px" xmlns="http://www.w3.org/2000/svg"><g transform="matrix(1 0 0 1 -43 -184 )"><path d="M 0.5 0  L 0.5 176.181818181818  C 0 176.64  0.665587958607716 177  1.51269990592662 177.5  L 535.201604514534 177.5  L 1070.48730009407 177  C 1071.33441204139 177  1072 176.64  1072.5 176.181818181818  L 1072.5 0  L 0.5 0  Z " fill-rule="nonzero" fill="#ffffff" stroke="none" transform="matrix(1 0 0 1 43 184 )" /><path d="M 0.5 0  L 0.5 176.181818181818  C 0 176.64  0.665587958607716 177  1.51269990592662 177.5  L 535.201604514534 177.5  L 1070.48730009407 177  C 1071.33441204139 177  1072 176.64  1072.5 176.181818181818  L 1072.5 0  " stroke-width="1" stroke="#e9e9e9" fill="none" transform="matrix(1 0 0 1 43 184 )" /></g></svg>