<?xml version="1.0" encoding="utf-8"?>
<svg version="1.1" xmlns:xlink="http://www.w3.org/1999/xlink" width="1073px" height="305px" xmlns="http://www.w3.org/2000/svg">
  <g transform="matrix(1 0 0 1 -104 -194 )">
    <path d="M 0.5 0  L 0.5 302.594761171032  C 0 303.381694915254  0.665587958607716 304  1.51269990592662 304.5  L 535.201604514534 304.5  L 1070.48730009407 304  C 1071.33441204139 304  1072 303.381694915254  1072.5 302.594761171032  L 1072.5 0  L 0.5 0  Z " fill-rule="nonzero" fill="#ffffff" stroke="none" transform="matrix(1 0 0 1 104 194 )" />
    <path d="M 0.5 0  L 0.5 302.594761171032  C 0 303.381694915254  0.665587958607716 304  1.51269990592662 304.5  L 535.201604514534 304.5  L 1070.48730009407 304  C 1071.33441204139 304  1072 303.381694915254  1072.5 302.594761171032  L 1072.5 0  " stroke-width="1" stroke="#e9e9e9" fill="none" transform="matrix(1 0 0 1 104 194 )" />
  </g>
</svg>