<?xml version="1.0" encoding="utf-8"?>
<svg version="1.1" xmlns:xlink="http://www.w3.org/1999/xlink" width="10px" height="18px" preserveAspectRatio="xMidYMin meet" viewBox="542 835  8 18" xmlns="http://www.w3.org/2000/svg">
  <path d="M 620 260  L 620 268  A 5 5 0 0 1 615 273 L 448 273  A 5 5 0 0 0 443 278 L 443 377  A 3 3 0 0 1 446 380 A 3 3 0 0 1 443 383 L 443 824  A 3 3 0 0 1 446 827 A 3 3 0 0 1 443 830 L 443 835  A 5 5 0 0 0 448 840 L 541 840  A 5 5 0 0 1 546 845 L 546 853  " stroke-width="2" stroke="#0099cc" fill="none" />
</svg>