<?xml version="1.0" encoding="utf-8"?>
<svg version="1.1" xmlns:xlink="http://www.w3.org/1999/xlink" width="290px" height="32px" xmlns="http://www.w3.org/2000/svg">
  <defs>
    <mask fill="white" id="clip47">
      <path d="M 0 28  L 0 4  C 0 1.75999999999999  1.15999999999999 0  2.63636363636364 0  L 287.363636363636 0  C 288.84 0  290 1.75999999999999  290 4  L 290 28  C 290 30.24  288.84 32  287.363636363636 32  L 31.6363636363636 32  L 2.63636363636364 32  C 1.15999999999999 32  0 30.24  0 28  Z " fill-rule="evenodd" />
    </mask>
  </defs>
  <g transform="matrix(1 0 0 1 -864 -1335 )">
    <path d="M 0 28  L 0 4  C 0 1.75999999999999  1.15999999999999 0  2.63636363636364 0  L 287.363636363636 0  C 288.84 0  290 1.75999999999999  290 4  L 290 28  C 290 30.24  288.84 32  287.363636363636 32  L 31.6363636363636 32  L 2.63636363636364 32  C 1.15999999999999 32  0 30.24  0 28  Z " fill-rule="nonzero" fill="#ffffff" stroke="none" transform="matrix(1 0 0 1 864 1335 )" />
    <path d="M 0 28  L 0 4  C 0 1.75999999999999  1.15999999999999 0  2.63636363636364 0  L 287.363636363636 0  C 288.84 0  290 1.75999999999999  290 4  L 290 28  C 290 30.24  288.84 32  287.363636363636 32  L 31.6363636363636 32  L 2.63636363636364 32  C 1.15999999999999 32  0 30.24  0 28  Z " stroke-width="2" stroke="#d9d9d9" fill="none" transform="matrix(1 0 0 1 864 1335 )" mask="url(#clip47)" />
  </g>
</svg>