<?xml version="1.0" encoding="utf-8"?>
<svg version="1.1" xmlns:xlink="http://www.w3.org/1999/xlink" width="105px" height="40px" xmlns="http://www.w3.org/2000/svg">
  <g transform="matrix(1 0 0 1 -344 -284 )">
    <path d="M 345 288  A 3 3 0 0 1 348 285 L 445 285  A 3 3 0 0 1 448 288 L 448 320  A 3 3 0 0 1 445 323 L 348 323  A 3 3 0 0 1 345 320 L 345 288  Z " fill-rule="nonzero" fill="#ff3399" stroke="none" fill-opacity="0.0980392156862745" />
    <path d="M 344.5 288  A 3.5 3.5 0 0 1 348 284.5 L 445 284.5  A 3.5 3.5 0 0 1 448.5 288 L 448.5 320  A 3.5 3.5 0 0 1 445 323.5 L 348 323.5  A 3.5 3.5 0 0 1 344.5 320 L 344.5 288  Z " stroke-width="1" stroke-dasharray="9,4" stroke="#ff3399" fill="none" stroke-dashoffset="0.5" />
  </g>
</svg>