<?xml version="1.0" encoding="utf-8"?>
<svg version="1.1" xmlns:xlink="http://www.w3.org/1999/xlink" width="319px" height="135px" xmlns="http://www.w3.org/2000/svg">
  <g transform="matrix(1 0 0 1 -578 -1100 )">
    <path d="M 579 1104  A 3 3 0 0 1 582 1101 L 893 1101  A 3 3 0 0 1 896 1104 L 896 1231  A 3 3 0 0 1 893 1234 L 582 1234  A 3 3 0 0 1 579 1231 L 579 1104  Z " fill-rule="nonzero" fill="#ff3399" stroke="none" fill-opacity="0.0980392156862745" />
    <path d="M 578.5 1104  A 3.5 3.5 0 0 1 582 1100.5 L 893 1100.5  A 3.5 3.5 0 0 1 896.5 1104 L 896.5 1231  A 3.5 3.5 0 0 1 893 1234.5 L 582 1234.5  A 3.5 3.5 0 0 1 578.5 1231 L 578.5 1104  Z " stroke-width="1" stroke-dasharray="9,4" stroke="#ff3399" fill="none" stroke-dashoffset="0.5" />
  </g>
</svg>