<?xml version="1.0" encoding="utf-8"?>
<svg version="1.1" xmlns:xlink="http://www.w3.org/1999/xlink" width="398px" height="412px" xmlns="http://www.w3.org/2000/svg">
  <g transform="matrix(1 0 0 1 -987 -855 )">
    <path d="M 988 859  A 3 3 0 0 1 991 856 L 1381 856  A 3 3 0 0 1 1384 859 L 1384 1263  A 3 3 0 0 1 1381 1266 L 991 1266  A 3 3 0 0 1 988 1263 L 988 859  Z " fill-rule="nonzero" fill="#ff3399" stroke="none" fill-opacity="0.0980392156862745" />
    <path d="M 987.5 859  A 3.5 3.5 0 0 1 991 855.5 L 1381 855.5  A 3.5 3.5 0 0 1 1384.5 859 L 1384.5 1263  A 3.5 3.5 0 0 1 1381 1266.5 L 991 1266.5  A 3.5 3.5 0 0 1 987.5 1263 L 987.5 859  Z " stroke-width="1" stroke-dasharray="9,4" stroke="#ff3399" fill="none" stroke-dashoffset="0.5" />
  </g>
</svg>