<?xml version="1.0" encoding="utf-8"?>
<svg version="1.1" xmlns:xlink="http://www.w3.org/1999/xlink" width="403px" height="30px" xmlns="http://www.w3.org/2000/svg">
  <defs>
    <mask fill="white" id="clip37">
      <path d="M 0 28  L 0 2  C 0 0.880000000000003  0.879999999999995 0  2 0  L 401 0  C 402.12 0  403 0.880000000000003  403 2  L 403 28  C 403 29.12  402.12 30  401 30  L 128 30  L 116 30  L 2 30  C 0.879999999999995 30  0 29.12  0 28  Z " fill-rule="evenodd" />
    </mask>
  </defs>
  <g transform="matrix(1 0 0 1 -138 -47 )">
    <path d="M 0 28  L 0 2  C 0 0.880000000000003  0.879999999999995 0  2 0  L 401 0  C 402.12 0  403 0.880000000000003  403 2  L 403 28  C 403 29.12  402.12 30  401 30  L 128 30  L 116 30  L 2 30  C 0.879999999999995 30  0 29.12  0 28  Z " fill-rule="nonzero" fill="#f2f2f2" stroke="none" transform="matrix(1 0 0 1 138 47 )" />
    <path d="M 0 28  L 0 2  C 0 0.880000000000003  0.879999999999995 0  2 0  L 401 0  C 402.12 0  403 0.880000000000003  403 2  L 403 28  C 403 29.12  402.12 30  401 30  L 128 30  L 116 30  L 2 30  C 0.879999999999995 30  0 29.12  0 28  Z " stroke-width="2" stroke="#797979" fill="none" transform="matrix(1 0 0 1 138 47 )" mask="url(#clip37)" />
  </g>
</svg>