<?xml version="1.0" encoding="utf-8"?>
<svg version="1.1" xmlns:xlink="http://www.w3.org/1999/xlink" width="146px" height="73px" xmlns="http://www.w3.org/2000/svg">
  <g transform="matrix(1 0 0 1 -26 -385 )">
    <path d="M 27 389  A 3 3 0 0 1 30 386 L 168 386  A 3 3 0 0 1 171 389 L 171 454  A 3 3 0 0 1 168 457 L 30 457  A 3 3 0 0 1 27 454 L 27 389  Z " fill-rule="nonzero" fill="#ff3399" stroke="none" fill-opacity="0.0980392156862745" />
    <path d="M 26.5 389  A 3.5 3.5 0 0 1 30 385.5 L 168 385.5  A 3.5 3.5 0 0 1 171.5 389 L 171.5 454  A 3.5 3.5 0 0 1 168 457.5 L 30 457.5  A 3.5 3.5 0 0 1 26.5 454 L 26.5 389  Z " stroke-width="1" stroke-dasharray="9,4" stroke="#ff3399" fill="none" stroke-dashoffset="0.5" />
  </g>
</svg>