<?xml version="1.0" encoding="utf-8"?>
<svg version="1.1" xmlns:xlink="http://www.w3.org/1999/xlink" width="306px" height="312px" xmlns="http://www.w3.org/2000/svg">
  <g transform="matrix(1 0 0 1 -658 -1141 )">
    <path d="M 659 1145  A 3 3 0 0 1 662 1142 L 960 1142  A 3 3 0 0 1 963 1145 L 963 1449  A 3 3 0 0 1 960 1452 L 662 1452  A 3 3 0 0 1 659 1449 L 659 1145  Z " fill-rule="nonzero" fill="#ff3399" stroke="none" fill-opacity="0.0980392156862745" />
    <path d="M 658.5 1145  A 3.5 3.5 0 0 1 662 1141.5 L 960 1141.5  A 3.5 3.5 0 0 1 963.5 1145 L 963.5 1449  A 3.5 3.5 0 0 1 960 1452.5 L 662 1452.5  A 3.5 3.5 0 0 1 658.5 1449 L 658.5 1145  Z " stroke-width="1" stroke-dasharray="9,4" stroke="#ff3399" fill="none" stroke-dashoffset="0.5" />
  </g>
</svg>