<?xml version="1.0" encoding="utf-8"?>
<svg version="1.1" xmlns:xlink="http://www.w3.org/1999/xlink" width="374px" height="534px" xmlns="http://www.w3.org/2000/svg">
  <g transform="matrix(1 0 0 1 -658 -1007 )">
    <path d="M 659 1011  A 3 3 0 0 1 662 1008 L 1028 1008  A 3 3 0 0 1 1031 1011 L 1031 1537  A 3 3 0 0 1 1028 1540 L 662 1540  A 3 3 0 0 1 659 1537 L 659 1011  Z " fill-rule="nonzero" fill="#ff3399" stroke="none" fill-opacity="0.0980392156862745" />
    <path d="M 658.5 1011  A 3.5 3.5 0 0 1 662 1007.5 L 1028 1007.5  A 3.5 3.5 0 0 1 1031.5 1011 L 1031.5 1537  A 3.5 3.5 0 0 1 1028 1540.5 L 662 1540.5  A 3.5 3.5 0 0 1 658.5 1537 L 658.5 1011  Z " stroke-width="1" stroke-dasharray="9,4" stroke="#ff3399" fill="none" stroke-dashoffset="0.5" />
  </g>
</svg>