<?xml version="1.0" encoding="utf-8"?>
<svg version="1.1" xmlns:xlink="http://www.w3.org/1999/xlink" width="433px" height="41px" xmlns="http://www.w3.org/2000/svg">
  <defs>
    <filter x="1762px" y="463px" width="433px" height="41px" filterUnits="userSpaceOnUse" id="filter66">
      <feOffset dx="0" dy="0" in="SourceAlpha" result="shadowOffsetInner" />
      <feGaussianBlur stdDeviation="2" in="shadowOffsetInner" result="shadowGaussian" />
      <feComposite in2="shadowGaussian" operator="atop" in="SourceAlpha" result="shadowComposite" />
      <feColorMatrix type="matrix" values="0 0 0 0 0.850980392156863  0 0 0 0 0.850980392156863  0 0 0 0 0.850980392156863  0 0 0 0.988235294117647 0  " in="shadowComposite" />
    </filter>
    <g id="widget67">
      <path d="M 1766.5 471  A 3.5 3.5 0 0 1 1770 467.5 L 2187 467.5  A 3.5 3.5 0 0 1 2190.5 471 L 2190.5 496  A 3.5 3.5 0 0 1 2187 499.5 L 1770 499.5  A 3.5 3.5 0 0 1 1766.5 496 L 1766.5 471  Z " fill-rule="nonzero" fill="#ffffff" stroke="none" fill-opacity="0" />
      <path d="M 1766.5 471  A 3.5 3.5 0 0 1 1770 467.5 L 2187 467.5  A 3.5 3.5 0 0 1 2190.5 471 L 2190.5 496  A 3.5 3.5 0 0 1 2187 499.5 L 1770 499.5  A 3.5 3.5 0 0 1 1766.5 496 L 1766.5 471  Z " stroke-width="1" stroke="#d9d9d9" fill="none" />
    </g>
  </defs>
  <g transform="matrix(1 0 0 1 -1762 -463 )">
    <use xlink:href="#widget67" filter="url(#filter66)" />
    <use xlink:href="#widget67" />
  </g>
</svg>