<?xml version="1.0" encoding="utf-8"?>
<svg version="1.1" xmlns:xlink="http://www.w3.org/1999/xlink" width="286px" height="32px" xmlns="http://www.w3.org/2000/svg">
  <defs>
    <mask fill="white" id="clip34">
      <path d="M 0 28  L 0 4  C 0 1.75999999999999  1.14399999999999 0  2.6 0  L 283.4 0  C 284.856 0  286 1.75999999999999  286 4  L 286 28  C 286 30.24  284.856 32  283.4 32  L 31.2 32  L 2.6 32  C 1.14399999999999 32  0 30.24  0 28  Z " fill-rule="evenodd" />
    </mask>
  </defs>
  <g transform="matrix(1 0 0 1 -864 -1011 )">
    <path d="M 0 28  L 0 4  C 0 1.75999999999999  1.14399999999999 0  2.6 0  L 283.4 0  C 284.856 0  286 1.75999999999999  286 4  L 286 28  C 286 30.24  284.856 32  283.4 32  L 31.2 32  L 2.6 32  C 1.14399999999999 32  0 30.24  0 28  Z " fill-rule="nonzero" fill="#ffffff" stroke="none" transform="matrix(1 0 0 1 864 1011 )" />
    <path d="M 0 28  L 0 4  C 0 1.75999999999999  1.14399999999999 0  2.6 0  L 283.4 0  C 284.856 0  286 1.75999999999999  286 4  L 286 28  C 286 30.24  284.856 32  283.4 32  L 31.2 32  L 2.6 32  C 1.14399999999999 32  0 30.24  0 28  Z " stroke-width="2" stroke="#d9d9d9" fill="none" transform="matrix(1 0 0 1 864 1011 )" mask="url(#clip34)" />
  </g>
</svg>