<?xml version="1.0" encoding="utf-8"?>
<svg version="1.1" xmlns:xlink="http://www.w3.org/1999/xlink" width="90px" height="48px" xmlns="http://www.w3.org/2000/svg">
  <g transform="matrix(1 0 0 1 -1975 -8 )">
    <path d="M 1976 12  A 3 3 0 0 1 1979 9 L 2061 9  A 3 3 0 0 1 2064 12 L 2064 52  A 3 3 0 0 1 2061 55 L 1979 55  A 3 3 0 0 1 1976 52 L 1976 12  Z " fill-rule="nonzero" fill="#ff3399" stroke="none" fill-opacity="0.0980392156862745" />
    <path d="M 1975.5 12  A 3.5 3.5 0 0 1 1979 8.5 L 2061 8.5  A 3.5 3.5 0 0 1 2064.5 12 L 2064.5 52  A 3.5 3.5 0 0 1 2061 55.5 L 1979 55.5  A 3.5 3.5 0 0 1 1975.5 52 L 1975.5 12  Z " stroke-width="1" stroke-dasharray="9,4" stroke="#ff3399" fill="none" stroke-dashoffset="0.5" />
  </g>
</svg>