<?xml version="1.0" encoding="utf-8"?>
<svg version="1.1" xmlns:xlink="http://www.w3.org/1999/xlink" width="607px" height="424px" xmlns="http://www.w3.org/2000/svg">
  <g transform="matrix(1 0 0 1 -28 -880 )">
    <path d="M 29 884  A 3 3 0 0 1 32 881 L 631 881  A 3 3 0 0 1 634 884 L 634 1300  A 3 3 0 0 1 631 1303 L 32 1303  A 3 3 0 0 1 29 1300 L 29 884  Z " fill-rule="nonzero" fill="#ff3399" stroke="none" fill-opacity="0.0980392156862745" />
    <path d="M 28.5 884  A 3.5 3.5 0 0 1 32 880.5 L 631 880.5  A 3.5 3.5 0 0 1 634.5 884 L 634.5 1300  A 3.5 3.5 0 0 1 631 1303.5 L 32 1303.5  A 3.5 3.5 0 0 1 28.5 1300 L 28.5 884  Z " stroke-width="1" stroke-dasharray="9,4" stroke="#ff3399" fill="none" stroke-dashoffset="0.5" />
  </g>
</svg>