<?xml version="1.0" encoding="utf-8"?>
<svg version="1.1" xmlns:xlink="http://www.w3.org/1999/xlink" width="263px" height="82px" xmlns="http://www.w3.org/2000/svg">
  <g transform="matrix(1 0 0 1 -103 -463 )">
    <path d="M 104 467  A 3 3 0 0 1 107 464 L 362 464  A 3 3 0 0 1 365 467 L 365 541  A 3 3 0 0 1 362 544 L 107 544  A 3 3 0 0 1 104 541 L 104 467  Z " fill-rule="nonzero" fill="#ff3399" stroke="none" fill-opacity="0.0980392156862745" />
    <path d="M 103.5 467  A 3.5 3.5 0 0 1 107 463.5 L 362 463.5  A 3.5 3.5 0 0 1 365.5 467 L 365.5 541  A 3.5 3.5 0 0 1 362 544.5 L 107 544.5  A 3.5 3.5 0 0 1 103.5 541 L 103.5 467  Z " stroke-width="1" stroke-dasharray="9,4" stroke="#ff3399" fill="none" stroke-dashoffset="0.5" />
  </g>
</svg>