<?xml version="1.0" encoding="utf-8"?>
<svg version="1.1" xmlns:xlink="http://www.w3.org/1999/xlink" width="84px" height="28px" xmlns="http://www.w3.org/2000/svg">
  <g transform="matrix(1 0 0 1 -1058 -602 )">
    <path d="M 1059 606  A 3 3 0 0 1 1062 603 L 1138 603  A 3 3 0 0 1 1141 606 L 1141 626  A 3 3 0 0 1 1138 629 L 1062 629  A 3 3 0 0 1 1059 626 L 1059 606  Z " fill-rule="nonzero" fill="#ff3399" stroke="none" fill-opacity="0.0980392156862745" />
    <path d="M 1058.5 606  A 3.5 3.5 0 0 1 1062 602.5 L 1138 602.5  A 3.5 3.5 0 0 1 1141.5 606 L 1141.5 626  A 3.5 3.5 0 0 1 1138 629.5 L 1062 629.5  A 3.5 3.5 0 0 1 1058.5 626 L 1058.5 606  Z " stroke-width="1" stroke-dasharray="9,4" stroke="#ff3399" fill="none" stroke-dashoffset="0.5" />
  </g>
</svg>