<?xml version="1.0" encoding="utf-8"?>
<svg version="1.1" xmlns:xlink="http://www.w3.org/1999/xlink" width="19px" height="19px" xmlns="http://www.w3.org/2000/svg">
  <g transform="matrix(1 0 0 1 -364 -1189 )">
    <path d="M 10.7740885416667 12.9759114583333  C 10.8483072916667 13.0501302083333  10.8854166666667 13.1449652777778  10.8854166666667 13.2604166666667  L 10.8854166666667 15.2395833333333  C 10.8854166666667 15.3550347222222  10.8483072916667 15.4498697916667  10.7740885416667 15.5240885416667  C 10.6998697916667 15.5983072916667  10.6050347222222 15.6354166666667  10.4895833333333 15.6354166666667  L 8.51041666666667 15.6354166666667  C 8.39496527777778 15.6354166666667  8.30013020833333 15.5983072916667  8.22591145833333 15.5240885416667  C 8.15169270833333 15.4498697916667  8.11458333333333 15.3550347222222  8.11458333333333 15.2395833333333  L 8.11458333333333 13.2604166666667  C 8.11458333333333 13.1449652777778  8.15169270833333 13.0501302083333  8.22591145833333 12.9759114583333  C 8.30013020833333 12.9016927083333  8.39496527777778 12.8645833333333  8.51041666666667 12.8645833333333  L 10.4895833333333 12.8645833333333  C 10.6050347222222 12.8645833333333  10.6998697916667 12.9016927083333  10.7740885416667 12.9759114583333  Z M 12.6975911458333 4.4716796875  C 13.6005859375 5.20974392361111  14.0520833333333 6.09418402777778  14.0520833333333 7.125  C 14.0520833333333 7.53732638888889  13.990234375 7.90842013888889  13.8665364583333 8.23828125  C 13.7428385416667 8.56814236111111  13.5552300347222 8.85264756944444  13.3037109375 9.091796875  C 13.0521918402778 9.33094618055555  12.8377821180556 9.51236979166667  12.6604817708333 9.63606770833333  C 12.4831814236111 9.759765625  12.2378472222222 9.908203125  11.9244791666667 10.0813802083333  C 11.6605902777778 10.2298177083333  11.4688585069444 10.3452690972222  11.3492838541667 10.427734375  C 11.2297092013889 10.5101996527778  11.1225043402778 10.6091579861111  11.0276692708333 10.724609375  C 10.9328342013889 10.8400607638889  10.8854166666667 10.9596354166667  10.8854166666667 11.0833333333333  L 10.8854166666667 11.4791666666667  C 10.8854166666667 11.5946180555556  10.8483072916667 11.689453125  10.7740885416667 11.763671875  C 10.6998697916667 11.837890625  10.6050347222222 11.875  10.4895833333333 11.875  L 8.51041666666667 11.875  C 8.39496527777778 11.875  8.30013020833333 11.837890625  8.22591145833333 11.763671875  C 8.15169270833333 11.689453125  8.11458333333333 11.5946180555556  8.11458333333333 11.4791666666667  L 8.11458333333333 10.6380208333333  C 8.11458333333333 10.3493923611111  8.15787760416667 10.0834418402778  8.24446614583333 9.84016927083333  C 8.3310546875 9.59689670138889  8.43001302083333 9.40104166666667  8.54134114583333 9.25260416666667  C 8.65266927083333 9.10416666666667  8.8134765625 8.95779079861111  9.02376302083333 8.8134765625  C 9.23404947916667 8.66916232638889  9.40310329861111 8.56401909722222  9.53092447916667 8.498046875  C 9.65874565972223 8.43207465277778  9.84223090277778 8.34548611111111  10.0813802083333 8.23828125  C 10.5184461805556 8.03211805555555  10.8276909722222 7.85481770833333  11.0091145833333 7.70638020833333  C 11.1905381944444 7.55794270833333  11.28125 7.35590277777778  11.28125 7.10026041666667  C 11.28125 6.75390625  11.1018880208333 6.45909288194444  10.7431640625 6.2158203125  C 10.3844401041667 5.97254774305555  9.99066840277778 5.85091145833333  9.56184895833333 5.85091145833333  C 9.10004340277778 5.85091145833333  8.70833333333333 5.96223958333333  8.38671875 6.18489583333333  C 8.14756944444444 6.34982638888889  7.81770833333333 6.69205729166667  7.39713541666667 7.21158854166667  C 7.32291666666667 7.310546875  7.21983506944444 7.36002604166667  7.087890625 7.36002604166667  C 6.99717881944444 7.36002604166667  6.91883680555556 7.33528645833333  6.85286458333333 7.28580729166667  L 5.51692708333333 6.271484375  C 5.43446180555556 6.21375868055555  5.38498263888889 6.13129340277778  5.36848958333333 6.02408854166667  C 5.35199652777778 5.91688368055555  5.37261284722222 5.82204861111111  5.43033854166667 5.73958333333333  C 6.43641493055556 4.15625  7.87543402777778 3.36458333333333  9.74739583333333 3.36458333333333  C 10.8111979166667 3.36458333333333  11.7945963541667 3.73361545138889  12.6975911458333 4.4716796875  Z M 12.5738932291667 2.21419270833333  C 11.5966796875 1.79361979166667  10.5720486111111 1.58333333333333  9.5 1.58333333333333  C 8.42795138888889 1.58333333333333  7.4033203125 1.79361979166667  6.42610677083333 2.21419270833333  C 5.44889322916667 2.634765625  4.60774739583333 3.19759114583333  3.90266927083333 3.90266927083333  C 3.19759114583333 4.60774739583333  2.634765625 5.44889322916667  2.21419270833333 6.42610677083333  C 1.79361979166667 7.4033203125  1.58333333333333 8.42795138888889  1.58333333333333 9.5  C 1.58333333333333 10.5720486111111  1.79361979166667 11.5966796875  2.21419270833333 12.5738932291667  C 2.634765625 13.5511067708333  3.19759114583333 14.3922526041667  3.90266927083333 15.0973307291667  C 4.60774739583333 15.8024088541667  5.44889322916667 16.365234375  6.42610677083333 16.7858072916667  C 7.4033203125 17.2063802083333  8.42795138888889 17.4166666666667  9.5 17.4166666666667  C 10.5720486111111 17.4166666666667  11.5966796875 17.2063802083333  12.5738932291667 16.7858072916667  C 13.5511067708333 16.365234375  14.3922526041667 15.8024088541667  15.0973307291667 15.0973307291667  C 15.8024088541667 14.3922526041667  16.365234375 13.5511067708333  16.7858072916667 12.5738932291667  C 17.2063802083333 11.5966796875  17.4166666666667 10.5720486111111  17.4166666666667 9.5  C 17.4166666666667 8.42795138888889  17.2063802083333 7.4033203125  16.7858072916667 6.42610677083333  C 16.365234375 5.44889322916667  15.8024088541667 4.60774739583333  15.0973307291667 3.90266927083333  C 14.3922526041667 3.19759114583333  13.5511067708333 2.634765625  12.5738932291667 2.21419270833333  Z M 17.7259114583333 4.7314453125  C 18.5753038194444 6.18695746527778  19 7.77647569444444  19 9.5  C 19 11.2235243055556  18.5753038194444 12.8130425347222  17.7259114583333 14.2685546875  C 16.8765190972222 15.7240668402778  15.7240668402778 16.8765190972222  14.2685546875 17.7259114583333  C 12.8130425347222 18.5753038194444  11.2235243055556 19  9.5 19  C 7.77647569444444 19  6.18695746527778 18.5753038194444  4.7314453125 17.7259114583333  C 3.27593315972222 16.8765190972222  2.12348090277778 15.7240668402778  1.27408854166667 14.2685546875  C 0.424696180555555 12.8130425347222  0 11.2235243055556  0 9.5  C 0 7.77647569444444  0.424696180555555 6.18695746527778  1.27408854166667 4.7314453125  C 2.12348090277778 3.27593315972222  3.27593315972222 2.12348090277778  4.7314453125 1.27408854166667  C 6.18695746527778 0.424696180555554  7.77647569444444 0  9.5 0  C 11.2235243055556 0  12.8130425347222 0.424696180555554  14.2685546875 1.27408854166667  C 15.7240668402778 2.12348090277778  16.8765190972222 3.27593315972222  17.7259114583333 4.7314453125  Z " fill-rule="nonzero" fill="#000000" stroke="none" transform="matrix(1 0 0 1 364 1189 )" />
  </g>
</svg>