<?xml version="1.0" encoding="utf-8"?>
<svg version="1.1" xmlns:xlink="http://www.w3.org/1999/xlink" width="200px" height="50px" xmlns="http://www.w3.org/2000/svg">
  <g transform="matrix(1 0 0 1 -750 -1777 )">
    <path d="M 751 1781  A 3 3 0 0 1 754 1778 L 946 1778  A 3 3 0 0 1 949 1781 L 949 1823  A 3 3 0 0 1 946 1826 L 754 1826  A 3 3 0 0 1 751 1823 L 751 1781  Z " fill-rule="nonzero" fill="#ff3399" stroke="none" fill-opacity="0.0980392156862745" />
    <path d="M 750.5 1781  A 3.5 3.5 0 0 1 754 1777.5 L 946 1777.5  A 3.5 3.5 0 0 1 949.5 1781 L 949.5 1823  A 3.5 3.5 0 0 1 946 1826.5 L 754 1826.5  A 3.5 3.5 0 0 1 750.5 1823 L 750.5 1781  Z " stroke-width="1" stroke-dasharray="9,4" stroke="#ff3399" fill="none" stroke-dashoffset="0.5" />
  </g>
</svg>