<?xml version="1.0" encoding="utf-8"?>
<svg version="1.1" xmlns:xlink="http://www.w3.org/1999/xlink" width="275px" height="146px" xmlns="http://www.w3.org/2000/svg">
  <g transform="matrix(1 0 0 1 -667 -1217 )">
    <path d="M 668 1221  A 3 3 0 0 1 671 1218 L 938 1218  A 3 3 0 0 1 941 1221 L 941 1359  A 3 3 0 0 1 938 1362 L 671 1362  A 3 3 0 0 1 668 1359 L 668 1221  Z " fill-rule="nonzero" fill="#aaaaaa" stroke="none" fill-opacity="0.0980392156862745" />
    <path d="M 667.5 1221  A 3.5 3.5 0 0 1 671 1217.5 L 938 1217.5  A 3.5 3.5 0 0 1 941.5 1221 L 941.5 1359  A 3.5 3.5 0 0 1 938 1362.5 L 671 1362.5  A 3.5 3.5 0 0 1 667.5 1359 L 667.5 1221  Z " stroke-width="1" stroke-dasharray="9,4" stroke="#2a2a2a" fill="none" stroke-dashoffset="0.5" />
  </g>
</svg>