<?xml version="1.0" encoding="utf-8"?>
<svg version="1.1" xmlns:xlink="http://www.w3.org/1999/xlink" width="200px" height="100px" xmlns="http://www.w3.org/2000/svg">
  <g transform="matrix(1 0 0 1 -674 -1361 )">
    <path d="M 675 1365  A 3 3 0 0 1 678 1362 L 870 1362  A 3 3 0 0 1 873 1365 L 873 1457  A 3 3 0 0 1 870 1460 L 678 1460  A 3 3 0 0 1 675 1457 L 675 1365  Z " fill-rule="nonzero" fill="#ff3399" stroke="none" fill-opacity="0.0980392156862745" />
    <path d="M 674.5 1365  A 3.5 3.5 0 0 1 678 1361.5 L 870 1361.5  A 3.5 3.5 0 0 1 873.5 1365 L 873.5 1457  A 3.5 3.5 0 0 1 870 1460.5 L 678 1460.5  A 3.5 3.5 0 0 1 674.5 1457 L 674.5 1365  Z " stroke-width="1" stroke-dasharray="9,4" stroke="#ff3399" fill="none" stroke-dashoffset="0.5" />
  </g>
</svg>