<?xml version="1.0" encoding="utf-8"?>
<svg version="1.1" xmlns:xlink="http://www.w3.org/1999/xlink" width="200px" height="100px" xmlns="http://www.w3.org/2000/svg">
  <g transform="matrix(1 0 0 1 -752 -1581 )">
    <path d="M 753 1585  A 3 3 0 0 1 756 1582 L 948 1582  A 3 3 0 0 1 951 1585 L 951 1677  A 3 3 0 0 1 948 1680 L 756 1680  A 3 3 0 0 1 753 1677 L 753 1585  Z " fill-rule="nonzero" fill="#ff3399" stroke="none" fill-opacity="0.0980392156862745" />
    <path d="M 752.5 1585  A 3.5 3.5 0 0 1 756 1581.5 L 948 1581.5  A 3.5 3.5 0 0 1 951.5 1585 L 951.5 1677  A 3.5 3.5 0 0 1 948 1680.5 L 756 1680.5  A 3.5 3.5 0 0 1 752.5 1677 L 752.5 1585  Z " stroke-width="1" stroke-dasharray="9,4" stroke="#ff3399" fill="none" stroke-dashoffset="0.5" />
  </g>
</svg>