<?xml version="1.0" encoding="utf-8"?>
<svg version="1.1" xmlns:xlink="http://www.w3.org/1999/xlink" width="275px" height="50px" xmlns="http://www.w3.org/2000/svg">
  <g transform="matrix(1 0 0 1 -752 -1502 )">
    <path d="M 753 1506  A 3 3 0 0 1 756 1503 L 1023 1503  A 3 3 0 0 1 1026 1506 L 1026 1548  A 3 3 0 0 1 1023 1551 L 756 1551  A 3 3 0 0 1 753 1548 L 753 1506  Z " fill-rule="nonzero" fill="#ff3399" stroke="none" fill-opacity="0.0980392156862745" />
    <path d="M 752.5 1506  A 3.5 3.5 0 0 1 756 1502.5 L 1023 1502.5  A 3.5 3.5 0 0 1 1026.5 1506 L 1026.5 1548  A 3.5 3.5 0 0 1 1023 1551.5 L 756 1551.5  A 3.5 3.5 0 0 1 752.5 1548 L 752.5 1506  Z " stroke-width="1" stroke-dasharray="9,4" stroke="#ff3399" fill="none" stroke-dashoffset="0.5" />
  </g>
</svg>