<?xml version="1.0" encoding="utf-8"?>
<svg version="1.1" xmlns:xlink="http://www.w3.org/1999/xlink" width="200px" height="50px" xmlns="http://www.w3.org/2000/svg">
  <g transform="matrix(1 0 0 1 -750 -1860 )">
    <path d="M 751 1864  A 3 3 0 0 1 754 1861 L 946 1861  A 3 3 0 0 1 949 1864 L 949 1906  A 3 3 0 0 1 946 1909 L 754 1909  A 3 3 0 0 1 751 1906 L 751 1864  Z " fill-rule="nonzero" fill="#ff3399" stroke="none" fill-opacity="0.0980392156862745" />
    <path d="M 750.5 1864  A 3.5 3.5 0 0 1 754 1860.5 L 946 1860.5  A 3.5 3.5 0 0 1 949.5 1864 L 949.5 1906  A 3.5 3.5 0 0 1 946 1909.5 L 754 1909.5  A 3.5 3.5 0 0 1 750.5 1906 L 750.5 1864  Z " stroke-width="1" stroke-dasharray="9,4" stroke="#ff3399" fill="none" stroke-dashoffset="0.5" />
  </g>
</svg>