<?xml version="1.0" encoding="utf-8"?>
<svg version="1.1" xmlns:xlink="http://www.w3.org/1999/xlink" width="200px" height="50px" xmlns="http://www.w3.org/2000/svg">
  <g transform="matrix(1 0 0 1 -750 -2056 )">
    <path d="M 751 2060  A 3 3 0 0 1 754 2057 L 946 2057  A 3 3 0 0 1 949 2060 L 949 2102  A 3 3 0 0 1 946 2105 L 754 2105  A 3 3 0 0 1 751 2102 L 751 2060  Z " fill-rule="nonzero" fill="#ff3399" stroke="none" fill-opacity="0.0980392156862745" />
    <path d="M 750.5 2060  A 3.5 3.5 0 0 1 754 2056.5 L 946 2056.5  A 3.5 3.5 0 0 1 949.5 2060 L 949.5 2102  A 3.5 3.5 0 0 1 946 2105.5 L 754 2105.5  A 3.5 3.5 0 0 1 750.5 2102 L 750.5 2060  Z " stroke-width="1" stroke-dasharray="9,4" stroke="#ff3399" fill="none" stroke-dashoffset="0.5" />
  </g>
</svg>