<?xml version="1.0" encoding="utf-8"?>
<svg version="1.1" xmlns:xlink="http://www.w3.org/1999/xlink" width="200px" height="100px" xmlns="http://www.w3.org/2000/svg">
  <g transform="matrix(1 0 0 1 -752 -1777 )">
    <path d="M 753 1781  A 3 3 0 0 1 756 1778 L 948 1778  A 3 3 0 0 1 951 1781 L 951 1873  A 3 3 0 0 1 948 1876 L 756 1876  A 3 3 0 0 1 753 1873 L 753 1781  Z " fill-rule="nonzero" fill="#ff3399" stroke="none" fill-opacity="0.0980392156862745" />
    <path d="M 752.5 1781  A 3.5 3.5 0 0 1 756 1777.5 L 948 1777.5  A 3.5 3.5 0 0 1 951.5 1781 L 951.5 1873  A 3.5 3.5 0 0 1 948 1876.5 L 756 1876.5  A 3.5 3.5 0 0 1 752.5 1873 L 752.5 1781  Z " stroke-width="1" stroke-dasharray="9,4" stroke="#ff3399" fill="none" stroke-dashoffset="0.5" />
  </g>
</svg>