<?xml version="1.0" encoding="utf-8"?>
<svg version="1.1" xmlns:xlink="http://www.w3.org/1999/xlink" width="233px" height="50px" xmlns="http://www.w3.org/2000/svg">
  <g transform="matrix(1 0 0 1 -667 -904 )">
    <path d="M 668 908  A 3 3 0 0 1 671 905 L 896 905  A 3 3 0 0 1 899 908 L 899 950  A 3 3 0 0 1 896 953 L 671 953  A 3 3 0 0 1 668 950 L 668 908  Z " fill-rule="nonzero" fill="#ff3399" stroke="none" fill-opacity="0.0980392156862745" />
    <path d="M 667.5 908  A 3.5 3.5 0 0 1 671 904.5 L 896 904.5  A 3.5 3.5 0 0 1 899.5 908 L 899.5 950  A 3.5 3.5 0 0 1 896 953.5 L 671 953.5  A 3.5 3.5 0 0 1 667.5 950 L 667.5 908  Z " stroke-width="1" stroke-dasharray="9,4" stroke="#ff3399" fill="none" stroke-dashoffset="0.5" />
  </g>
</svg>