<?xml version="1.0" encoding="utf-8"?><svg version="1.1" xmlns:xlink="http://www.w3.org/1999/xlink" width="480px" height="32px" xmlns="http://www.w3.org/2000/svg"><g transform="matrix(1 0 0 1 -40 -143 )"><path d="M 41 147  A 3 3 0 0 1 44 144 L 516 144  A 3 3 0 0 1 519 147 L 519 171  A 3 3 0 0 1 516 174 L 44 174  A 3 3 0 0 1 41 171 L 41 147  Z " fill-rule="nonzero" fill="#ffffff" stroke="none" /><path d="M 40.5 147  A 3.5 3.5 0 0 1 44 143.5 L 516 143.5  A 3.5 3.5 0 0 1 519.5 147 L 519.5 171  A 3.5 3.5 0 0 1 516 174.5 L 44 174.5  A 3.5 3.5 0 0 1 40.5 171 L 40.5 147  Z " stroke-width="1" stroke-dasharray="9,4" stroke="#d9d9d9" fill="none" stroke-dashoffset="0.5" /></g></svg>