<?xml version="1.0" encoding="utf-8"?><svg version="1.1" xmlns:xlink="http://www.w3.org/1999/xlink" width="104px" height="104px" xmlns="http://www.w3.org/2000/svg"><g transform="matrix(1 0 0 1 -279 -5745 )"><path d="M 280 5749  A 3 3 0 0 1 283 5746 L 379 5746  A 3 3 0 0 1 382 5749 L 382 5845  A 3 3 0 0 1 379 5848 L 283 5848  A 3 3 0 0 1 280 5845 L 280 5749  Z " fill-rule="nonzero" fill="#000000" stroke="none" fill-opacity="0.0196078431372549" /><path d="M 279.5 5749  A 3.5 3.5 0 0 1 283 5745.5 L 379 5745.5  A 3.5 3.5 0 0 1 382.5 5749 L 382.5 5845  A 3.5 3.5 0 0 1 379 5848.5 L 283 5848.5  A 3.5 3.5 0 0 1 279.5 5845 L 279.5 5749  Z " stroke-width="1" stroke-dasharray="9,4" stroke="#d9d9d9" fill="none" stroke-dashoffset="0.5" /></g></svg>