<?xml version="1.0" encoding="utf-8"?><svg version="1.1" xmlns:xlink="http://www.w3.org/1999/xlink" width="48px" height="48px" xmlns="http://www.w3.org/2000/svg"><g transform="matrix(1 0 0 1 -396 -1562 )"><path d="M 397 1564  A 1 1 0 0 1 398 1563 L 442 1563  A 1 1 0 0 1 443 1564 L 443 1608  A 1 1 0 0 1 442 1609 L 398 1609  A 1 1 0 0 1 397 1608 L 397 1564  Z " fill-rule="nonzero" fill="#f2f2f2" stroke="none" /><path d="M 396.5 1564  A 1.5 1.5 0 0 1 398 1562.5 L 442 1562.5  A 1.5 1.5 0 0 1 443.5 1564 L 443.5 1608  A 1.5 1.5 0 0 1 442 1609.5 L 398 1609.5  A 1.5 1.5 0 0 1 396.5 1608 L 396.5 1564  Z " stroke-width="1" stroke="#000000" fill="none" stroke-opacity="0.0470588235294118" /></g></svg>