<?xml version="1.0" encoding="utf-8"?><svg version="1.1" xmlns:xlink="http://www.w3.org/1999/xlink" width="104px" height="104px" xmlns="http://www.w3.org/2000/svg"><g transform="matrix(1 0 0 1 -399 -5745 )"><path d="M 400 5749  A 3 3 0 0 1 403 5746 L 499 5746  A 3 3 0 0 1 502 5749 L 502 5845  A 3 3 0 0 1 499 5848 L 403 5848  A 3 3 0 0 1 400 5845 L 400 5749  Z " fill-rule="nonzero" fill="#ffffff" stroke="none" /><path d="M 399.5 5749  A 3.5 3.5 0 0 1 403 5745.5 L 499 5745.5  A 3.5 3.5 0 0 1 502.5 5749 L 502.5 5845  A 3.5 3.5 0 0 1 499 5848.5 L 403 5848.5  A 3.5 3.5 0 0 1 399.5 5845 L 399.5 5749  Z " stroke-width="1" stroke-dasharray="9,4" stroke="#d9d9d9" fill="none" stroke-dashoffset="0.5" /></g></svg>