<?xml version="1.0" encoding="utf-8"?><svg version="1.1" xmlns:xlink="http://www.w3.org/1999/xlink" width="89px" height="32px" xmlns="http://www.w3.org/2000/svg"><g transform="matrix(1 0 0 1 -253 -104 )"><path d="M 254 108  A 3 3 0 0 1 257 105 L 338 105  A 3 3 0 0 1 341 108 L 341 132  A 3 3 0 0 1 338 135 L 257 135  A 3 3 0 0 1 254 132 L 254 108  Z " fill-rule="nonzero" fill="#ffffff" stroke="none" /><path d="M 253.5 108  A 3.5 3.5 0 0 1 257 104.5 L 338 104.5  A 3.5 3.5 0 0 1 341.5 108 L 341.5 132  A 3.5 3.5 0 0 1 338 135.5 L 257 135.5  A 3.5 3.5 0 0 1 253.5 132 L 253.5 108  Z " stroke-width="1" stroke-dasharray="3,1" stroke="#d9d9d9" fill="none" stroke-dashoffset="0.5" /></g></svg>