<?xml version="1.0" encoding="utf-8"?><svg version="1.1" xmlns:xlink="http://www.w3.org/1999/xlink" width="480px" height="32px" xmlns="http://www.w3.org/2000/svg"><g transform="matrix(1 0 0 1 -55 -152 )"><path d="M 56 156  A 3 3 0 0 1 59 153 L 531 153  A 3 3 0 0 1 534 156 L 534 180  A 3 3 0 0 1 531 183 L 59 183  A 3 3 0 0 1 56 180 L 56 156  Z " fill-rule="nonzero" fill="#ffffff" stroke="none" /><path d="M 55.5 156  A 3.5 3.5 0 0 1 59 152.5 L 531 152.5  A 3.5 3.5 0 0 1 534.5 156 L 534.5 180  A 3.5 3.5 0 0 1 531 183.5 L 59 183.5  A 3.5 3.5 0 0 1 55.5 180 L 55.5 156  Z " stroke-width="1" stroke-dasharray="9,4" stroke="#d9d9d9" fill="none" stroke-dashoffset="0.5" /></g></svg>