<?xml version="1.0" encoding="utf-8"?><svg version="1.1" xmlns:xlink="http://www.w3.org/1999/xlink" width="40px" height="40px" xmlns="http://www.w3.org/2000/svg"><g transform="matrix(1 0 0 1 -946 -207 )"><path d="M 947 211  A 3 3 0 0 1 950 208 L 982 208  A 3 3 0 0 1 985 211 L 985 243  A 3 3 0 0 1 982 246 L 950 246  A 3 3 0 0 1 947 243 L 947 211  Z " fill-rule="nonzero" fill="#f6f6f6" stroke="none" /><path d="M 946.5 211  A 3.5 3.5 0 0 1 950 207.5 L 982 207.5  A 3.5 3.5 0 0 1 985.5 211 L 985.5 243  A 3.5 3.5 0 0 1 982 246.5 L 950 246.5  A 3.5 3.5 0 0 1 946.5 243 L 946.5 211  Z " stroke-width="1" stroke="#000000" fill="none" stroke-opacity="0.0470588235294118" /></g></svg>