<?xml version="1.0" encoding="utf-8"?><svg version="1.1" xmlns:xlink="http://www.w3.org/1999/xlink" width="438px" height="192px" xmlns="http://www.w3.org/2000/svg"><g transform="matrix(1 0 0 1 -279 -6001 )"><path d="M 280 6007  A 5 5 0 0 1 285 6002 L 711 6002  A 5 5 0 0 1 716 6007 L 716 6187  A 5 5 0 0 1 711 6192 L 285 6192  A 5 5 0 0 1 280 6187 L 280 6007  Z " fill-rule="nonzero" fill="#000000" stroke="none" fill-opacity="0.0196078431372549" /><path d="M 279.5 6007  A 5.5 5.5 0 0 1 285 6001.5 L 711 6001.5  A 5.5 5.5 0 0 1 716.5 6007 L 716.5 6187  A 5.5 5.5 0 0 1 711 6192.5 L 285 6192.5  A 5.5 5.5 0 0 1 279.5 6187 L 279.5 6007  Z " stroke-width="1" stroke-dasharray="9,4" stroke="#108ee9" fill="none" stroke-dashoffset="0.5" /></g></svg>