<?xml version="1.0" encoding="utf-8"?><svg version="1.1" xmlns:xlink="http://www.w3.org/1999/xlink" width="1072px" height="32px" xmlns="http://www.w3.org/2000/svg"><g transform="matrix(1 0 0 1 -380 -1180 )"><path d="M 381 1184  A 3 3 0 0 1 384 1181 L 1448 1181  A 3 3 0 0 1 1451 1184 L 1451 1208  A 3 3 0 0 1 1448 1211 L 384 1211  A 3 3 0 0 1 381 1208 L 381 1184  Z " fill-rule="nonzero" fill="#ffffff" stroke="none" /><path d="M 380.5 1184  A 3.5 3.5 0 0 1 384 1180.5 L 1448 1180.5  A 3.5 3.5 0 0 1 1451.5 1184 L 1451.5 1208  A 3.5 3.5 0 0 1 1448 1211.5 L 384 1211.5  A 3.5 3.5 0 0 1 380.5 1208 L 380.5 1184  Z " stroke-width="1" stroke-dasharray="9,4" stroke="#e8e8e8" fill="none" stroke-dashoffset="0.5" /></g></svg>