<?xml version="1.0" encoding="utf-8"?><svg version="1.1" xmlns:xlink="http://www.w3.org/1999/xlink" width="24px" height="24px" xmlns="http://www.w3.org/2000/svg"><g transform="matrix(1 0 0 1 -946 -299 )"><path d="M 947 303  A 3 3 0 0 1 950 300 L 966 300  A 3 3 0 0 1 969 303 L 969 319  A 3 3 0 0 1 966 322 L 950 322  A 3 3 0 0 1 947 319 L 947 303  Z " fill-rule="nonzero" fill="#f6f6f6" stroke="none" /><path d="M 946.5 303  A 3.5 3.5 0 0 1 950 299.5 L 966 299.5  A 3.5 3.5 0 0 1 969.5 303 L 969.5 319  A 3.5 3.5 0 0 1 966 322.5 L 950 322.5  A 3.5 3.5 0 0 1 946.5 319 L 946.5 303  Z " stroke-width="1" stroke="#000000" fill="none" stroke-opacity="0.0470588235294118" /></g></svg>