<?xml version="1.0" encoding="utf-8"?><svg version="1.1" xmlns:xlink="http://www.w3.org/1999/xlink" width="89px" height="32px" xmlns="http://www.w3.org/2000/svg"><g transform="matrix(1 0 0 1 -238 -95 )"><path d="M 239 99  A 3 3 0 0 1 242 96 L 323 96  A 3 3 0 0 1 326 99 L 326 123  A 3 3 0 0 1 323 126 L 242 126  A 3 3 0 0 1 239 123 L 239 99  Z " fill-rule="nonzero" fill="#ffffff" stroke="none" /><path d="M 238.5 99  A 3.5 3.5 0 0 1 242 95.5 L 323 95.5  A 3.5 3.5 0 0 1 326.5 99 L 326.5 123  A 3.5 3.5 0 0 1 323 126.5 L 242 126.5  A 3.5 3.5 0 0 1 238.5 123 L 238.5 99  Z " stroke-width="1" stroke-dasharray="3,1" stroke="#d9d9d9" fill="none" stroke-dashoffset="0.5" /></g></svg>