<?xml version="1.0" encoding="utf-8"?><svg version="1.1" xmlns:xlink="http://www.w3.org/1999/xlink" width="32px" height="32px" xmlns="http://www.w3.org/2000/svg"><g transform="matrix(1 0 0 1 -946 -257 )"><path d="M 947 261  A 3 3 0 0 1 950 258 L 974 258  A 3 3 0 0 1 977 261 L 977 285  A 3 3 0 0 1 974 288 L 950 288  A 3 3 0 0 1 947 285 L 947 261  Z " fill-rule="nonzero" fill="#f6f6f6" stroke="none" /><path d="M 946.5 261  A 3.5 3.5 0 0 1 950 257.5 L 974 257.5  A 3.5 3.5 0 0 1 977.5 261 L 977.5 285  A 3.5 3.5 0 0 1 974 288.5 L 950 288.5  A 3.5 3.5 0 0 1 946.5 285 L 946.5 261  Z " stroke-width="1" stroke="#000000" fill="none" stroke-opacity="0.0470588235294118" /></g></svg>