<?xml version="1.0" encoding="utf-8"?><svg version="1.1" xmlns:xlink="http://www.w3.org/1999/xlink" width="74px" height="28px" xmlns="http://www.w3.org/2000/svg"><defs><mask fill="white" id="clip11"><path d="M 74 24  L 74 4  C 74 1.76  71.965 0  69.375 0  L 0 0  L 0 28  L 69.375 28  C 71.965 28  74 26.24  74 24  Z " fill-rule="evenodd" /></mask></defs><g transform="matrix(1 0 0 1 -1089 -1120 )"><path d="M 74 24  L 74 4  C 74 1.76  71.965 0  69.375 0  L 0 0  L 0 28  L 69.375 28  C 71.965 28  74 26.24  74 24  Z " fill-rule="nonzero" fill="#ffffff" stroke="none" transform="matrix(1 0 0 1 1089 1120 )" /><path d="M 74 24  L 74 4  C 74 1.76  71.965 0  69.375 0  L 0 0  L 0 28  L 69.375 28  C 71.965 28  74 26.24  74 24  Z " stroke-width="2" stroke="#d9d9d9" fill="none" transform="matrix(1 0 0 1 1089 1120 )" mask="url(#clip11)" /></g></svg>