<?xml version="1.0" encoding="utf-8"?><svg version="1.1" xmlns:xlink="http://www.w3.org/1999/xlink" width="440px" height="32px" xmlns="http://www.w3.org/2000/svg"><g transform="matrix(1 0 0 1 -376 -3530 )"><path d="M 377 3534  A 3 3 0 0 1 380 3531 L 812 3531  A 3 3 0 0 1 815 3534 L 815 3558  A 3 3 0 0 1 812 3561 L 380 3561  A 3 3 0 0 1 377 3558 L 377 3534  Z " fill-rule="nonzero" fill="#ffffff" stroke="none" /><path d="M 376.5 3534  A 3.5 3.5 0 0 1 380 3530.5 L 812 3530.5  A 3.5 3.5 0 0 1 815.5 3534 L 815.5 3558  A 3.5 3.5 0 0 1 812 3561.5 L 380 3561.5  A 3.5 3.5 0 0 1 376.5 3558 L 376.5 3534  Z " stroke-width="1" stroke-dasharray="9,4" stroke="#d9d9d9" fill="none" stroke-dashoffset="0.5" /></g></svg>