<?xml version="1.0" encoding="utf-8"?><svg version="1.1" xmlns:xlink="http://www.w3.org/1999/xlink" width="68px" height="33px" xmlns="http://www.w3.org/2000/svg"><g transform="matrix(1 0 0 1 -710 -2058 )"><path d="M 66.5 26.2857142857143  L 66.5 5.71428571428571  C 66.3909090909091 2.19428571428573  64.5412697466468 0.571428571428571  60.7892697466468 0.571428571428571  L 0 0.571428571428571  L 0 31.5  L 60.7892697466468 31.5  C 64.5412697466468 31.4285714285714  66.3909090909091 29.8057142857143  66.5 26.2857142857143  Z " fill-rule="nonzero" fill="#ebebeb" stroke="none" transform="matrix(1 0 0 1 710 2058 )" /><path d="M 0 31.5  L 60.7892697466468 31.5  C 64.5412697466468 31.4285714285714  66.3909090909091 29.8057142857143  66.5 26.2857142857143  L 66.5 5.71428571428571  C 66.3909090909091 2.19428571428573  64.5412697466468 0.571428571428571  60.7892697466468 0.571428571428571  L 0 0.571428571428571  " stroke-width="1" stroke="#d9d9d9" fill="none" transform="matrix(1 0 0 1 710 2058 )" /></g></svg>