<?xml version="1.0" encoding="utf-8"?><svg version="1.1" xmlns:xlink="http://www.w3.org/1999/xlink" width="28px" height="28px" xmlns="http://www.w3.org/2000/svg"><g transform="matrix(1 0 0 1 -95 -2801 )"><path d="M 109 2802  C 116.28 2802  122 2807.72  122 2815  C 122 2822.28  116.28 2828  109 2828  C 101.72 2828  96 2822.28  96 2815  C 96 2807.72  101.72 2802  109 2802  Z " fill-rule="nonzero" fill="#ffffff" stroke="none" fill-opacity="0" /><path d="M 109 2802  C 116.28 2802  122 2807.72  122 2815  C 122 2822.28  116.28 2828  109 2828  C 101.72 2828  96 2822.28  96 2815  C 96 2807.72  101.72 2802  109 2802  Z " stroke-width="2" stroke="#cccccc" fill="none" /></g></svg>