<?xml version="1.0" encoding="utf-8"?><svg version="1.1" xmlns:xlink="http://www.w3.org/1999/xlink" width="28px" height="28px" xmlns="http://www.w3.org/2000/svg"><g transform="matrix(1 0 0 1 -95 -2485 )"><path d="M 109 2486  C 116.28 2486  122 2491.72  122 2499  C 122 2506.28  116.28 2512  109 2512  C 101.72 2512  96 2506.28  96 2499  C 96 2491.72  101.72 2486  109 2486  Z " fill-rule="nonzero" fill="#1890ff" stroke="none" /><path d="M 109 2486  C 116.28 2486  122 2491.72  122 2499  C 122 2506.28  116.28 2512  109 2512  C 101.72 2512  96 2506.28  96 2499  C 96 2491.72  101.72 2486  109 2486  Z " stroke-width="2" stroke="#108ee9" fill="none" /></g></svg>