<?xml version="1.0" encoding="utf-8"?><svg version="1.1" xmlns:xlink="http://www.w3.org/1999/xlink" width="28px" height="28px" xmlns="http://www.w3.org/2000/svg"><g transform="matrix(1 0 0 1 -266 -5453 )"><path d="M 280 5454  C 287.28 5454  293 5459.72  293 5467  C 293 5474.28  287.28 5480  280 5480  C 272.72 5480  267 5474.28  267 5467  C 267 5459.72  272.72 5454  280 5454  Z " fill-rule="nonzero" fill="#ffffff" stroke="none" fill-opacity="0" /><path d="M 280 5454  C 287.28 5454  293 5459.72  293 5467  C 293 5474.28  287.28 5480  280 5480  C 272.72 5480  267 5474.28  267 5467  C 267 5459.72  272.72 5454  280 5454  Z " stroke-width="2" stroke="#cccccc" fill="none" /></g></svg>