<?xml version="1.0" encoding="utf-8"?><svg version="1.1" xmlns:xlink="http://www.w3.org/1999/xlink" width="28px" height="28px" xmlns="http://www.w3.org/2000/svg"><g transform="matrix(1 0 0 1 -95 -2368 )"><path d="M 109 2369  C 116.28 2369  122 2374.72  122 2382  C 122 2389.28  116.28 2395  109 2395  C 101.72 2395  96 2389.28  96 2382  C 96 2374.72  101.72 2369  109 2369  Z " fill-rule="nonzero" fill="#ffffff" stroke="none" /><path d="M 109 2369  C 116.28 2369  122 2374.72  122 2382  C 122 2389.28  116.28 2395  109 2395  C 101.72 2395  96 2389.28  96 2382  C 96 2374.72  101.72 2369  109 2369  Z " stroke-width="2" stroke="#1890ff" fill="none" /></g></svg>