<?xml version="1.0" encoding="utf-8"?><svg version="1.1" xmlns:xlink="http://www.w3.org/1999/xlink" width="440px" height="32px" xmlns="http://www.w3.org/2000/svg"><g transform="matrix(1 0 0 1 -205 -878 )"><path d="M 206 882  A 3 3 0 0 1 209 879 L 641 879  A 3 3 0 0 1 644 882 L 644 906  A 3 3 0 0 1 641 909 L 209 909  A 3 3 0 0 1 206 906 L 206 882  Z " fill-rule="nonzero" fill="#ffffff" stroke="none" /><path d="M 205.5 882  A 3.5 3.5 0 0 1 209 878.5 L 641 878.5  A 3.5 3.5 0 0 1 644.5 882 L 644.5 906  A 3.5 3.5 0 0 1 641 909.5 L 209 909.5  A 3.5 3.5 0 0 1 205.5 906 L 205.5 882  Z " stroke-width="1" stroke-dasharray="9,4" stroke="#d9d9d9" fill="none" stroke-dashoffset="0.5" /></g></svg>