<?xml version="1.0" encoding="utf-8"?>
<svg version="1.1" xmlns:xlink="http://www.w3.org/1999/xlink" width="10px" height="437px" preserveAspectRatio="xMidYMin meet" viewBox="22 838  8 437" xmlns="http://www.w3.org/2000/svg">
  <path d="M 621 368  L 621 487  A 3 3 0 0 1 624 490 A 3 3 0 0 1 621 493 L 621 838  A 5 5 0 0 1 616 843 L 242 843  A 3 3 0 0 0 239 840 A 3 3 0 0 0 236 843 L 31 843  A 5 5 0 0 0 26 848 L 26 1265  A 5 5 0 0 0 31 1270 L 234 1270  A 5 5 0 0 1 239 1275 L 239 1280  " stroke-width="2" stroke="#0099cc" fill="none" />
</svg>