<?xml version="1.0" encoding="utf-8"?>
<svg version="1.1" xmlns:xlink="http://www.w3.org/1999/xlink" width="14px" height="14px" xmlns="http://www.w3.org/2000/svg">
  <g transform="matrix(1 0 0 1 -612 -96 )">
    <path d="M 619 96  C 622.92 96  626 99.08  626 103  C 626 106.92  622.92 110  619 110  C 615.08 110  612 106.92  612 103  C 612 99.08  615.08 96  619 96  Z " fill-rule="nonzero" fill="#ffffff" stroke="none" fill-opacity="0" />
    <path d="M 619 96.5  C 622.64 96.5  625.5 99.36  625.5 103  C 625.5 106.64  622.64 109.5  619 109.5  C 615.36 109.5  612.5 106.64  612.5 103  C 612.5 99.36  615.36 96.5  619 96.5  Z " stroke-width="1" stroke="#1890ff" fill="none" />
  </g>
</svg>