<?xml version="1.0" encoding="utf-8"?>
<svg version="1.1" xmlns:xlink="http://www.w3.org/1999/xlink" width="292px" height="100px" xmlns="http://www.w3.org/2000/svg">
  <g transform="matrix(1 0 0 1 -799 -511 )">
    <path d="M 800 515  A 3 3 0 0 1 803 512 L 1087 512  A 3 3 0 0 1 1090 515 L 1090 607  A 3 3 0 0 1 1087 610 L 803 610  A 3 3 0 0 1 800 607 L 800 515  Z " fill-rule="nonzero" fill="#ff3399" stroke="none" fill-opacity="0.0980392156862745" />
    <path d="M 799.5 515  A 3.5 3.5 0 0 1 803 511.5 L 1087 511.5  A 3.5 3.5 0 0 1 1090.5 515 L 1090.5 607  A 3.5 3.5 0 0 1 1087 610.5 L 803 610.5  A 3.5 3.5 0 0 1 799.5 607 L 799.5 515  Z " stroke-width="1" stroke-dasharray="9,4" stroke="#ff3399" fill="none" stroke-dashoffset="0.5" />
  </g>
</svg>