<?xml version="1.0" encoding="utf-8"?>
<svg version="1.1" xmlns:xlink="http://www.w3.org/1999/xlink" width="120px" height="120px" xmlns="http://www.w3.org/2000/svg">
  <g transform="matrix(1 0 0 1 -296 -153 )">
    <path d="M 296 153  L 416 153  L 416 273  L 296 273  L 296 153  " fill-rule="nonzero" fill="#cccccc" stroke="none" />
    <path d="M 304 161  L 408 161  L 408 265  L 304 265  L 304 161  " fill-rule="nonzero" fill="#ffffff" stroke="none" />
    <path d="M 367.4 189  C 362.36 189  358.4 185.04  358.4 180  C 358.4 174.96  362.36 171  367.4 171  C 372.44 171  376.4 174.96  376.4 180  C 376.4 185.04  372.44 189  367.4 189  " fill-rule="nonzero" fill="#cccccc" stroke="none" />
    <path d="M 307 262  L 307 208.1  L 331.5 183.6  L 365.8 203.2  L 385.4 198.3  L 405 203.2  L 405 262  L 307 262  " fill-rule="nonzero" fill="#169bd5" stroke="none" />
  </g>
</svg>