<?xml version="1.0" encoding="utf-8"?>
<svg version="1.1" xmlns:xlink="http://www.w3.org/1999/xlink" width="177px" height="19px" xmlns="http://www.w3.org/2000/svg">
  <defs>
    <mask fill="white" id="clip145">
      <path d="M 0 19  L 0 0  L 76.9565217391304 0  L 177 0  L 177 19  L 153.821428571428 19  L 0 19  Z " fill-rule="evenodd" />
    </mask>
  </defs>
  <g transform="matrix(1 0 0 1 -611 -164 )">
    <path d="M 0 19  L 0 0  L 76.9565217391304 0  L 177 0  L 177 19  L 153.821428571428 19  L 0 19  Z " fill-rule="nonzero" fill="#ffffff" stroke="none" transform="matrix(1 0 0 1 611 164 )" />
    <path d="M 0 19  L 0 0  L 76.9565217391304 0  L 177 0  L 177 19  L 153.821428571428 19  L 0 19  Z " stroke-width="2" stroke-dasharray="9,4" stroke="#ff684d" fill="none" transform="matrix(1 0 0 1 611 164 )" mask="url(#clip145)" />
  </g>
</svg>