<?xml version="1.0" encoding="utf-8"?><svg version="1.1" xmlns:xlink="http://www.w3.org/1999/xlink" width="120px" height="120px" xmlns="http://www.w3.org/2000/svg"><g transform="matrix(1 0 0 1 -284 -228 )"><path d="M 284 228  L 404 228  L 404 348  L 284 348  L 284 228  " fill-rule="nonzero" fill="#cccccc" stroke="none" /><path d="M 292 236  L 396 236  L 396 340  L 292 340  L 292 236  " fill-rule="nonzero" fill="#ffffff" stroke="none" /><path d="M 355.4 264  C 350.36 264  346.4 260.04  346.4 255  C 346.4 249.96  350.36 246  355.4 246  C 360.44 246  364.4 249.96  364.4 255  C 364.4 260.04  360.44 264  355.4 264  " fill-rule="nonzero" fill="#cccccc" stroke="none" /><path d="M 295 337  L 295 283.1  L 319.5 258.6  L 353.8 278.2  L 373.4 273.3  L 393 278.2  L 393 337  L 295 337  " fill-rule="nonzero" fill="#169bd5" stroke="none" /></g></svg>