<?xml version="1.0" encoding="utf-8"?>
<svg version="1.1" xmlns:xlink="http://www.w3.org/1999/xlink" width="81px" height="31px" xmlns="http://www.w3.org/2000/svg">
  <g transform="matrix(1 0 0 1 -800 -129 )">
    <path d="M 801 133  A 3 3 0 0 1 804 130 L 877 130  A 3 3 0 0 1 880 133 L 880 156  A 3 3 0 0 1 877 159 L 804 159  A 3 3 0 0 1 801 156 L 801 133  Z " fill-rule="nonzero" fill="#ff3399" stroke="none" fill-opacity="0.0980392156862745" />
    <path d="M 800.5 133  A 3.5 3.5 0 0 1 804 129.5 L 877 129.5  A 3.5 3.5 0 0 1 880.5 133 L 880.5 156  A 3.5 3.5 0 0 1 877 159.5 L 804 159.5  A 3.5 3.5 0 0 1 800.5 156 L 800.5 133  Z " stroke-width="1" stroke-dasharray="9,4" stroke="#ff3399" fill="none" stroke-dashoffset="0.5" />
  </g>
</svg>