<?xml version="1.0" encoding="utf-8"?>
<svg version="1.1" xmlns:xlink="http://www.w3.org/1999/xlink" width="120px" height="120px" xmlns="http://www.w3.org/2000/svg">
  <g transform="matrix(1 0 0 1 -385 -151 )">
    <path d="M 385 151  L 505 151  L 505 271  L 385 271  L 385 151  " fill-rule="nonzero" fill="#cccccc" stroke="none" />
    <path d="M 393 159  L 497 159  L 497 263  L 393 263  L 393 159  " fill-rule="nonzero" fill="#ffffff" stroke="none" />
    <path d="M 456.4 187  C 451.36 187  447.4 183.04  447.4 178  C 447.4 172.96  451.36 169  456.4 169  C 461.44 169  465.4 172.96  465.4 178  C 465.4 183.04  461.44 187  456.4 187  " fill-rule="nonzero" fill="#cccccc" stroke="none" />
    <path d="M 396 260  L 396 206.1  L 420.5 181.6  L 454.8 201.2  L 474.4 196.3  L 494 201.2  L 494 260  L 396 260  " fill-rule="nonzero" fill="#169bd5" stroke="none" />
  </g>
</svg>