<?xml version="1.0" encoding="utf-8"?>
<svg version="1.1" xmlns:xlink="http://www.w3.org/1999/xlink" width="134px" height="41px" xmlns="http://www.w3.org/2000/svg">
  <g transform="matrix(1 0 0 1 -495 -973 )">
    <path d="M 496 977  A 3 3 0 0 1 499 974 L 625 974  A 3 3 0 0 1 628 977 L 628 1010  A 3 3 0 0 1 625 1013 L 499 1013  A 3 3 0 0 1 496 1010 L 496 977  Z " fill-rule="nonzero" fill="#ff3399" stroke="none" fill-opacity="0.0980392156862745" />
    <path d="M 495.5 977  A 3.5 3.5 0 0 1 499 973.5 L 625 973.5  A 3.5 3.5 0 0 1 628.5 977 L 628.5 1010  A 3.5 3.5 0 0 1 625 1013.5 L 499 1013.5  A 3.5 3.5 0 0 1 495.5 1010 L 495.5 977  Z " stroke-width="1" stroke-dasharray="9,4" stroke="#ff3399" fill="none" stroke-dashoffset="0.5" />
  </g>
</svg>