<?xml version="1.0" encoding="utf-8"?>
<svg version="1.1" xmlns:xlink="http://www.w3.org/1999/xlink" width="398px" height="172px" xmlns="http://www.w3.org/2000/svg">
  <g transform="matrix(1 0 0 1 -968 -903 )">
    <path d="M 969 907  A 3 3 0 0 1 972 904 L 1362 904  A 3 3 0 0 1 1365 907 L 1365 1071  A 3 3 0 0 1 1362 1074 L 972 1074  A 3 3 0 0 1 969 1071 L 969 907  Z " fill-rule="nonzero" fill="#ff3399" stroke="none" fill-opacity="0.0980392156862745" />
    <path d="M 968.5 907  A 3.5 3.5 0 0 1 972 903.5 L 1362 903.5  A 3.5 3.5 0 0 1 1365.5 907 L 1365.5 1071  A 3.5 3.5 0 0 1 1362 1074.5 L 972 1074.5  A 3.5 3.5 0 0 1 968.5 1071 L 968.5 907  Z " stroke-width="1" stroke-dasharray="9,4" stroke="#ff3399" fill="none" stroke-dashoffset="0.5" />
  </g>
</svg>