<?xml version="1.0" encoding="utf-8"?>
<svg version="1.1" xmlns:xlink="http://www.w3.org/1999/xlink" width="361px" height="100px" xmlns="http://www.w3.org/2000/svg">
  <g transform="matrix(1 0 0 1 -1423 -327 )">
    <path d="M 1424 331  A 3 3 0 0 1 1427 328 L 1780 328  A 3 3 0 0 1 1783 331 L 1783 423  A 3 3 0 0 1 1780 426 L 1427 426  A 3 3 0 0 1 1424 423 L 1424 331  Z " fill-rule="nonzero" fill="#ff3399" stroke="none" fill-opacity="0.0980392156862745" />
    <path d="M 1423.5 331  A 3.5 3.5 0 0 1 1427 327.5 L 1780 327.5  A 3.5 3.5 0 0 1 1783.5 331 L 1783.5 423  A 3.5 3.5 0 0 1 1780 426.5 L 1427 426.5  A 3.5 3.5 0 0 1 1423.5 423 L 1423.5 331  Z " stroke-width="1" stroke-dasharray="9,4" stroke="#ff3399" fill="none" stroke-dashoffset="0.5" />
  </g>
</svg>