<?xml version="1.0" encoding="utf-8"?>
<svg version="1.1" xmlns:xlink="http://www.w3.org/1999/xlink" width="633px" height="237px" xmlns="http://www.w3.org/2000/svg">
  <g transform="matrix(1 0 0 1 -808 -818 )">
    <path d="M 809 822  A 3 3 0 0 1 812 819 L 1437 819  A 3 3 0 0 1 1440 822 L 1440 1051  A 3 3 0 0 1 1437 1054 L 812 1054  A 3 3 0 0 1 809 1051 L 809 822  Z " fill-rule="nonzero" fill="#ff3399" stroke="none" fill-opacity="0.0980392156862745" />
    <path d="M 808.5 822  A 3.5 3.5 0 0 1 812 818.5 L 1437 818.5  A 3.5 3.5 0 0 1 1440.5 822 L 1440.5 1051  A 3.5 3.5 0 0 1 1437 1054.5 L 812 1054.5  A 3.5 3.5 0 0 1 808.5 1051 L 808.5 822  Z " stroke-width="1" stroke-dasharray="9,4" stroke="#ff3399" fill="none" stroke-dashoffset="0.5" />
  </g>
</svg>