<?xml version="1.0" encoding="utf-8"?><svg version="1.1" xmlns:xlink="http://www.w3.org/1999/xlink" width="28px" height="28px" xmlns="http://www.w3.org/2000/svg"><g transform="matrix(1 0 0 1 -621 -1110 )"><path d="M 635 1111  C 642.28 1111  648 1116.72  648 1124  C 648 1131.28  642.28 1137  635 1137  C 627.72 1137  622 1131.28  622 1124  C 622 1116.72  627.72 1111  635 1111  Z " fill-rule="nonzero" fill="#1890ff" stroke="none" /><path d="M 635 1111  C 642.28 1111  648 1116.72  648 1124  C 648 1131.28  642.28 1137  635 1137  C 627.72 1137  622 1131.28  622 1124  C 622 1116.72  627.72 1111  635 1111  Z " stroke-width="2" stroke="#108ee9" fill="none" /></g></svg>