<?xml version="1.0" encoding="utf-8"?><svg version="1.1" xmlns:xlink="http://www.w3.org/1999/xlink" width="28px" height="28px" xmlns="http://www.w3.org/2000/svg"><g transform="matrix(1 0 0 1 -619 -137 )"><path d="M 633 138  C 640.28 138  646 143.72  646 151  C 646 158.28  640.28 164  633 164  C 625.72 164  620 158.28  620 151  C 620 143.72  625.72 138  633 138  Z " fill-rule="nonzero" fill="#ffffff" stroke="none" /><path d="M 633 138  C 640.28 138  646 143.72  646 151  C 646 158.28  640.28 164  633 164  C 625.72 164  620 158.28  620 151  C 620 143.72  625.72 138  633 138  Z " stroke-width="2" stroke="#1890ff" fill="none" /></g></svg>