<?xml version="1.0" encoding="utf-8"?>
<svg version="1.1" xmlns:xlink="http://www.w3.org/1999/xlink" width="28px" height="28px" xmlns="http://www.w3.org/2000/svg">
  <g transform="matrix(1 0 0 1 -620 -1334 )">
    <path d="M 634 1335  C 641.28 1335  647 1340.72  647 1348  C 647 1355.28  641.28 1361  634 1361  C 626.72 1361  621 1355.28  621 1348  C 621 1340.72  626.72 1335  634 1335  Z " fill-rule="nonzero" fill="#1890ff" stroke="none" />
    <path d="M 634 1335  C 641.28 1335  647 1340.72  647 1348  C 647 1355.28  641.28 1361  634 1361  C 626.72 1361  621 1355.28  621 1348  C 621 1340.72  626.72 1335  634 1335  Z " stroke-width="2" stroke="#108ee9" fill="none" />
  </g>
</svg>