<?xml version="1.0" encoding="utf-8"?>
<svg version="1.1" xmlns:xlink="http://www.w3.org/1999/xlink" width="14px" height="14px" xmlns="http://www.w3.org/2000/svg">
  <g transform="matrix(1 0 0 1 -741 -232 )">
    <path d="M 748 232  C 751.92 232  755 235.08  755 239  C 755 242.92  751.92 246  748 246  C 744.08 246  741 242.92  741 239  C 741 235.08  744.08 232  748 232  Z " fill-rule="nonzero" fill="#ffffff" stroke="none" fill-opacity="0" />
    <path d="M 748 232.5  C 751.64 232.5  754.5 235.36  754.5 239  C 754.5 242.64  751.64 245.5  748 245.5  C 744.36 245.5  741.5 242.64  741.5 239  C 741.5 235.36  744.36 232.5  748 232.5  Z " stroke-width="1" stroke="#d9d9d9" fill="none" />
  </g>
</svg>