<?xml version="1.0" encoding="utf-8"?>
<svg version="1.1" xmlns:xlink="http://www.w3.org/1999/xlink" width="52px" height="10px" preserveAspectRatio="xMinYMid meet" viewBox="525 206  52 8" xmlns="http://www.w3.org/2000/svg">
  <path d="M 508 215.5  L 527.5 215.5  A 2.5 2.5 0 0 0 530.5 213 A 2.5 2.5 0 0 1 533 210.5 L 567 210.5  A 5 5 0 0 1 572.5 215.5 L 572.5 221  " stroke-width="1" stroke="#ff3399" fill="none" />
  <path d="M 510 212.5  A 3 3 0 0 0 507 215.5 A 3 3 0 0 0 510 218.5 A 3 3 0 0 0 513 215.5 A 3 3 0 0 0 510 212.5 Z " fill-rule="nonzero" fill="#ff3399" stroke="none" />
</svg>