<?xml version="1.0" encoding="utf-8"?>
<svg version="1.1" xmlns:xlink="http://www.w3.org/1999/xlink" width="210px" height="36px" xmlns="http://www.w3.org/2000/svg">
  <g transform="matrix(1 0 0 1 -400 -1409 )">
    <path d="M 401 1413  A 3 3 0 0 1 404 1410 L 606 1410  A 3 3 0 0 1 609 1413 L 609 1441  A 3 3 0 0 1 606 1444 L 404 1444  A 3 3 0 0 1 401 1441 L 401 1413  Z " fill-rule="nonzero" fill="#ff3399" stroke="none" fill-opacity="0.0980392156862745" />
    <path d="M 400.5 1413  A 3.5 3.5 0 0 1 404 1409.5 L 606 1409.5  A 3.5 3.5 0 0 1 609.5 1413 L 609.5 1441  A 3.5 3.5 0 0 1 606 1444.5 L 404 1444.5  A 3.5 3.5 0 0 1 400.5 1441 L 400.5 1413  Z " stroke-width="1" stroke-dasharray="9,4" stroke="#ff3399" fill="none" stroke-dashoffset="0.5" />
  </g>
</svg>