<?xml version="1.0" encoding="utf-8"?>
<svg version="1.1" xmlns:xlink="http://www.w3.org/1999/xlink" width="210px" height="36px" xmlns="http://www.w3.org/2000/svg">
  <g transform="matrix(1 0 0 1 -400 -1374 )">
    <path d="M 401 1378  A 3 3 0 0 1 404 1375 L 606 1375  A 3 3 0 0 1 609 1378 L 609 1406  A 3 3 0 0 1 606 1409 L 404 1409  A 3 3 0 0 1 401 1406 L 401 1378  Z " fill-rule="nonzero" fill="#ff3399" stroke="none" fill-opacity="0.0980392156862745" />
    <path d="M 400.5 1378  A 3.5 3.5 0 0 1 404 1374.5 L 606 1374.5  A 3.5 3.5 0 0 1 609.5 1378 L 609.5 1406  A 3.5 3.5 0 0 1 606 1409.5 L 404 1409.5  A 3.5 3.5 0 0 1 400.5 1406 L 400.5 1378  Z " stroke-width="1" stroke-dasharray="9,4" stroke="#ff3399" fill="none" stroke-dashoffset="0.5" />
  </g>
</svg>