<?xml version="1.0" encoding="utf-8"?>
<svg version="1.1" xmlns:xlink="http://www.w3.org/1999/xlink" width="302px" height="36px" xmlns="http://www.w3.org/2000/svg">
  <g transform="matrix(1 0 0 1 -815 -1444 )">
    <path d="M 816 1448  A 3 3 0 0 1 819 1445 L 1113 1445  A 3 3 0 0 1 1116 1448 L 1116 1476  A 3 3 0 0 1 1113 1479 L 819 1479  A 3 3 0 0 1 816 1476 L 816 1448  Z " fill-rule="nonzero" fill="#ff3399" stroke="none" fill-opacity="0.0980392156862745" />
    <path d="M 815.5 1448  A 3.5 3.5 0 0 1 819 1444.5 L 1113 1444.5  A 3.5 3.5 0 0 1 1116.5 1448 L 1116.5 1476  A 3.5 3.5 0 0 1 1113 1479.5 L 819 1479.5  A 3.5 3.5 0 0 1 815.5 1476 L 815.5 1448  Z " stroke-width="1" stroke-dasharray="9,4" stroke="#ff3399" fill="none" stroke-dashoffset="0.5" />
  </g>
</svg>