<?xml version="1.0" encoding="utf-8"?>
<svg version="1.1" xmlns:xlink="http://www.w3.org/1999/xlink" width="302px" height="36px" xmlns="http://www.w3.org/2000/svg">
  <g transform="matrix(1 0 0 1 -544 -1409 )">
    <path d="M 545 1413  A 3 3 0 0 1 548 1410 L 842 1410  A 3 3 0 0 1 845 1413 L 845 1441  A 3 3 0 0 1 842 1444 L 548 1444  A 3 3 0 0 1 545 1441 L 545 1413  Z " fill-rule="nonzero" fill="#ff3399" stroke="none" fill-opacity="0.0980392156862745" />
    <path d="M 544.5 1413  A 3.5 3.5 0 0 1 548 1409.5 L 842 1409.5  A 3.5 3.5 0 0 1 845.5 1413 L 845.5 1441  A 3.5 3.5 0 0 1 842 1444.5 L 548 1444.5  A 3.5 3.5 0 0 1 544.5 1441 L 544.5 1413  Z " stroke-width="1" stroke-dasharray="9,4" stroke="#ff3399" fill="none" stroke-dashoffset="0.5" />
  </g>
</svg>