<?xml version="1.0" encoding="utf-8"?>
<svg version="1.1" xmlns:xlink="http://www.w3.org/1999/xlink" width="302px" height="36px" xmlns="http://www.w3.org/2000/svg">
  <g transform="matrix(1 0 0 1 -815 -1478 )">
    <path d="M 816 1482  A 3 3 0 0 1 819 1479 L 1113 1479  A 3 3 0 0 1 1116 1482 L 1116 1510  A 3 3 0 0 1 1113 1513 L 819 1513  A 3 3 0 0 1 816 1510 L 816 1482  Z " fill-rule="nonzero" fill="#ff3399" stroke="none" fill-opacity="0.0980392156862745" />
    <path d="M 815.5 1482  A 3.5 3.5 0 0 1 819 1478.5 L 1113 1478.5  A 3.5 3.5 0 0 1 1116.5 1482 L 1116.5 1510  A 3.5 3.5 0 0 1 1113 1513.5 L 819 1513.5  A 3.5 3.5 0 0 1 815.5 1510 L 815.5 1482  Z " stroke-width="1" stroke-dasharray="9,4" stroke="#ff3399" fill="none" stroke-dashoffset="0.5" />
  </g>
</svg>