<?xml version="1.0" encoding="utf-8"?>
<svg version="1.1" xmlns:xlink="http://www.w3.org/1999/xlink" width="506px" height="32px" xmlns="http://www.w3.org/2000/svg">
  <defs>
    <mask fill="white" id="clip3">
      <path d="M 0 28  L 0 4  C 0 1.75999999999999  2.02399999999999 0  4.6 0  L 501.4 0  C 503.976 0  506 1.75999999999999  506 4  L 506 28  C 506 30.24  503.976 32  501.4 32  L 55.2 32  L 4.6 32  C 2.02399999999999 32  0 30.24  0 28  Z " fill-rule="evenodd" />
    </mask>
  </defs>
  <g transform="matrix(1 0 0 1 -788 -966 )">
    <path d="M 0 28  L 0 4  C 0 1.75999999999999  2.02399999999999 0  4.6 0  L 501.4 0  C 503.976 0  506 1.75999999999999  506 4  L 506 28  C 506 30.24  503.976 32  501.4 32  L 55.2 32  L 4.6 32  C 2.02399999999999 32  0 30.24  0 28  Z " fill-rule="nonzero" fill="#ffffff" stroke="none" transform="matrix(1 0 0 1 788 966 )" />
    <path d="M 0 28  L 0 4  C 0 1.75999999999999  2.02399999999999 0  4.6 0  L 501.4 0  C 503.976 0  506 1.75999999999999  506 4  L 506 28  C 506 30.24  503.976 32  501.4 32  L 55.2 32  L 4.6 32  C 2.02399999999999 32  0 30.24  0 28  Z " stroke-width="2" stroke="#d9d9d9" fill="none" transform="matrix(1 0 0 1 788 966 )" mask="url(#clip3)" />
  </g>
</svg>