<?xml version="1.0" encoding="utf-8"?>
<svg version="1.1" xmlns:xlink="http://www.w3.org/1999/xlink" width="639px" height="16px" xmlns="http://www.w3.org/2000/svg">
  <g transform="matrix(1 0 0 1 -119 -447 )">
    <path d="M 0 14  L 0 2  C 0 0.879999999999995  0.940334448160527 0  2.13712374581941 0  L 38.0751295336788 0  L 55.1813471502591 0  L 138.5 0  L 143.5 0  L 636.862876254181 0  C 638.059665551839 0  639 0.879999999999995  639 2  L 639 14  C 639 15.12  638.059665551839 16  636.862876254181 16  L 166 16  L 120 16  L 51.318652849741 16  L 49.688127090301 16  L 14.89896373057 16  L 2.13712374581941 16  C 0.940334448160527 16  0 15.12  0 14  Z " fill-rule="nonzero" fill="#ffffff" stroke="none" transform="matrix(1 0 0 1 119 447 )" />
  </g>
</svg>