<?xml version="1.0" encoding="utf-8"?>
<svg version="1.1" xmlns:xlink="http://www.w3.org/1999/xlink" width="360px" height="32px" xmlns="http://www.w3.org/2000/svg">
  <defs>
    <mask fill="white" id="clip101">
      <path d="M 0 28  L 0 4  C 0 1.75999999999999  1.43999999999999 0  3.27272727272727 0  L 356.727272727273 0  C 358.56 0  360 1.75999999999999  360 4  L 360 28  C 360 30.24  358.56 32  356.727272727273 32  L 39.2727272727273 32  L 3.27272727272727 32  C 1.43999999999999 32  0 30.24  0 28  Z " fill-rule="evenodd" />
    </mask>
  </defs>
  <g transform="matrix(1 0 0 1 -575 -942 )">
    <path d="M 0 28  L 0 4  C 0 1.75999999999999  1.43999999999999 0  3.27272727272727 0  L 356.727272727273 0  C 358.56 0  360 1.75999999999999  360 4  L 360 28  C 360 30.24  358.56 32  356.727272727273 32  L 39.2727272727273 32  L 3.27272727272727 32  C 1.43999999999999 32  0 30.24  0 28  Z " fill-rule="nonzero" fill="#ffffff" stroke="none" transform="matrix(1 0 0 1 575 942 )" />
    <path d="M 0 28  L 0 4  C 0 1.75999999999999  1.43999999999999 0  3.27272727272727 0  L 356.727272727273 0  C 358.56 0  360 1.75999999999999  360 4  L 360 28  C 360 30.24  358.56 32  356.727272727273 32  L 39.2727272727273 32  L 3.27272727272727 32  C 1.43999999999999 32  0 30.24  0 28  Z " stroke-width="2" stroke="#d9d9d9" fill="none" transform="matrix(1 0 0 1 575 942 )" mask="url(#clip101)" />
  </g>
</svg>