<?xml version="1.0" encoding="utf-8"?>
<svg version="1.1" xmlns:xlink="http://www.w3.org/1999/xlink" width="459px" height="93px" xmlns="http://www.w3.org/2000/svg">
  <g transform="matrix(1 0 0 1 -674 -524 )">
    <path d="M 675 528  A 3 3 0 0 1 678 525 L 1129 525  A 3 3 0 0 1 1132 528 L 1132 613  A 3 3 0 0 1 1129 616 L 678 616  A 3 3 0 0 1 675 613 L 675 528  Z " fill-rule="nonzero" fill="#ff3399" stroke="none" fill-opacity="0.0980392156862745" />
    <path d="M 674.5 528  A 3.5 3.5 0 0 1 678 524.5 L 1129 524.5  A 3.5 3.5 0 0 1 1132.5 528 L 1132.5 613  A 3.5 3.5 0 0 1 1129 616.5 L 678 616.5  A 3.5 3.5 0 0 1 674.5 613 L 674.5 528  Z " stroke-width="1" stroke-dasharray="9,4" stroke="#ff3399" fill="none" stroke-dashoffset="0.5" />
  </g>
</svg>