<?xml version="1.0" encoding="utf-8"?>
<svg version="1.1" xmlns:xlink="http://www.w3.org/1999/xlink" width="274px" height="83px" xmlns="http://www.w3.org/2000/svg">
  <g transform="matrix(1 0 0 1 -650 -1117 )">
    <path d="M 651 1121  A 3 3 0 0 1 654 1118 L 920 1118  A 3 3 0 0 1 923 1121 L 923 1196  A 3 3 0 0 1 920 1199 L 654 1199  A 3 3 0 0 1 651 1196 L 651 1121  Z " fill-rule="nonzero" fill="#ff3399" stroke="none" fill-opacity="0.0980392156862745" />
    <path d="M 650.5 1121  A 3.5 3.5 0 0 1 654 1117.5 L 920 1117.5  A 3.5 3.5 0 0 1 923.5 1121 L 923.5 1196  A 3.5 3.5 0 0 1 920 1199.5 L 654 1199.5  A 3.5 3.5 0 0 1 650.5 1196 L 650.5 1121  Z " stroke-width="1" stroke-dasharray="9,4" stroke="#ff3399" fill="none" stroke-dashoffset="0.5" />
  </g>
</svg>