<?xml version="1.0" encoding="utf-8"?>
<svg version="1.1" xmlns:xlink="http://www.w3.org/1999/xlink" width="90px" height="48px" xmlns="http://www.w3.org/2000/svg">
  <g transform="matrix(1 0 0 1 -1182 -8 )">
    <path d="M 1183 12  A 3 3 0 0 1 1186 9 L 1268 9  A 3 3 0 0 1 1271 12 L 1271 52  A 3 3 0 0 1 1268 55 L 1186 55  A 3 3 0 0 1 1183 52 L 1183 12  Z " fill-rule="nonzero" fill="#ff3399" stroke="none" fill-opacity="0.0980392156862745" />
    <path d="M 1182.5 12  A 3.5 3.5 0 0 1 1186 8.5 L 1268 8.5  A 3.5 3.5 0 0 1 1271.5 12 L 1271.5 52  A 3.5 3.5 0 0 1 1268 55.5 L 1186 55.5  A 3.5 3.5 0 0 1 1182.5 52 L 1182.5 12  Z " stroke-width="1" stroke-dasharray="9,4" stroke="#ff3399" fill="none" stroke-dashoffset="0.5" />
  </g>
</svg>