<?xml version="1.0" encoding="utf-8"?>
<svg version="1.1" xmlns:xlink="http://www.w3.org/1999/xlink" width="130px" height="41px" xmlns="http://www.w3.org/2000/svg">
  <defs>
    <filter x="751px" y="916px" width="130px" height="41px" filterUnits="userSpaceOnUse" id="filter42">
      <feOffset dx="0" dy="0" in="SourceAlpha" result="shadowOffsetInner" />
      <feGaussianBlur stdDeviation="2" in="shadowOffsetInner" result="shadowGaussian" />
      <feComposite in2="shadowGaussian" operator="atop" in="SourceAlpha" result="shadowComposite" />
      <feColorMatrix type="matrix" values="0 0 0 0 0.850980392156863  0 0 0 0 0.850980392156863  0 0 0 0 0.850980392156863  0 0 0 0.988235294117647 0  " in="shadowComposite" />
    </filter>
    <g id="widget43">
      <path d="M 755.5 924  A 3.5 3.5 0 0 1 759 920.5 L 873 920.5  A 3.5 3.5 0 0 1 876.5 924 L 876.5 949  A 3.5 3.5 0 0 1 873 952.5 L 759 952.5  A 3.5 3.5 0 0 1 755.5 949 L 755.5 924  Z " fill-rule="nonzero" fill="#ffffff" stroke="none" fill-opacity="0" />
      <path d="M 755.5 924  A 3.5 3.5 0 0 1 759 920.5 L 873 920.5  A 3.5 3.5 0 0 1 876.5 924 L 876.5 949  A 3.5 3.5 0 0 1 873 952.5 L 759 952.5  A 3.5 3.5 0 0 1 755.5 949 L 755.5 924  Z " stroke-width="1" stroke="#d9d9d9" fill="none" />
    </g>
  </defs>
  <g transform="matrix(1 0 0 1 -751 -916 )">
    <use xlink:href="#widget43" filter="url(#filter42)" />
    <use xlink:href="#widget43" />
  </g>
</svg>