<?xml version="1.0" encoding="utf-8"?>
<svg version="1.1" xmlns:xlink="http://www.w3.org/1999/xlink" width="10px" height="10px" xmlns="http://www.w3.org/2000/svg">
  <g transform="matrix(1 0 0 1 -3373 -2631 )">
    <path d="M 3378 2632  C 3380.24 2632  3382 2633.76  3382 2636  C 3382 2638.24  3380.24 2640  3378 2640  C 3375.76 2640  3374 2638.24  3374 2636  C 3374 2633.76  3375.76 2632  3378 2632  Z " fill-rule="nonzero" fill="#ffffff" stroke="none" />
    <path d="M 3378 2632  C 3380.24 2632  3382 2633.76  3382 2636  C 3382 2638.24  3380.24 2640  3378 2640  C 3375.76 2640  3374 2638.24  3374 2636  C 3374 2633.76  3375.76 2632  3378 2632  Z " stroke-width="2" stroke="#d9d9d9" fill="none" />
  </g>
</svg>