<?xml version="1.0" encoding="utf-8"?>
<svg version="1.1" xmlns:xlink="http://www.w3.org/1999/xlink" width="10px" height="10px" xmlns="http://www.w3.org/2000/svg">
  <g transform="matrix(1 0 0 1 -3373 -2337 )">
    <path d="M 3378 2338  C 3380.24 2338  3382 2339.76  3382 2342  C 3382 2344.24  3380.24 2346  3378 2346  C 3375.76 2346  3374 2344.24  3374 2342  C 3374 2339.76  3375.76 2338  3378 2338  Z " fill-rule="nonzero" fill="#ffffff" stroke="none" />
    <path d="M 3378 2338  C 3380.24 2338  3382 2339.76  3382 2342  C 3382 2344.24  3380.24 2346  3378 2346  C 3375.76 2346  3374 2344.24  3374 2342  C 3374 2339.76  3375.76 2338  3378 2338  Z " stroke-width="2" stroke="#1890ff" fill="none" />
  </g>
</svg>