<?xml version="1.0" encoding="utf-8"?>
<svg version="1.1" xmlns:xlink="http://www.w3.org/1999/xlink" width="8px" height="16px" xmlns="http://www.w3.org/2000/svg">
  <g transform="matrix(1 0 0 1 -249 -165 )">
    <path d="M 7.86254295532649 7.63126252505006  C 7.95418098510879 7.73814295257186  8 7.86105544422177  8 8  C 8 8.13894455577823  7.95418098510879 8.26185704742814  7.86254295532649 8.36873747494994  L 1.45704467353949 15.8396793587174  C 1.36540664375718 15.9465597862391  1.26002290950748 16  1.14089347079039 16  C 1.02176403207329 16  0.916380297823594 15.9465597862391  0.824742268041291 15.8396793587174  L 0.137457044673511 15.0380761523047  C 0.0458190148912081 14.9311957247829  0 14.8082832331329  0 14.6693386773547  C 0 14.5303941215764  0.0458190148912081 14.4074816299265  0.137457044673511 14.3006012024048  L 5.53951890034364 8  L 0.137457044673511 1.69939879759517  C 0.0458190148912081 1.59251837007347  0 1.46960587842356  0 1.33066132264528  C 0 1.1917167668671  0.0458190148912081 1.06880427521714  0.137457044673511 0.961923847695339  L 0.824742268041291 0.160320641282599  C 0.916380297823594 0.0534402137608999  1.02176403207329 0  1.14089347079039 0  C 1.26002290950748 0  1.36540664375718 0.0534402137608999  1.45704467353949 0.160320641282599  L 7.86254295532649 7.63126252505006  Z " fill-rule="nonzero" fill="#e4e4e4" stroke="none" transform="matrix(1 0 0 1 249 165 )" />
  </g>
</svg>