<?xml version="1.0" encoding="utf-8"?>
<svg version="1.1" xmlns:xlink="http://www.w3.org/1999/xlink" width="399px" height="120px" xmlns="http://www.w3.org/2000/svg">
  <g transform="matrix(1 0 0 1 -1391 -155 )">
    <path d="M 1392 159  A 3 3 0 0 1 1395 156 L 1786 156  A 3 3 0 0 1 1789 159 L 1789 271  A 3 3 0 0 1 1786 274 L 1395 274  A 3 3 0 0 1 1392 271 L 1392 159  Z " fill-rule="nonzero" fill="#ff3399" stroke="none" fill-opacity="0.0980392156862745" />
    <path d="M 1391.5 159  A 3.5 3.5 0 0 1 1395 155.5 L 1786 155.5  A 3.5 3.5 0 0 1 1789.5 159 L 1789.5 271  A 3.5 3.5 0 0 1 1786 274.5 L 1395 274.5  A 3.5 3.5 0 0 1 1391.5 271 L 1391.5 159  Z " stroke-width="1" stroke-dasharray="9,4" stroke="#ff3399" fill="none" stroke-dashoffset="0.5" />
  </g>
</svg>