<?xml version="1.0" encoding="utf-8"?>
<svg version="1.1" xmlns:xlink="http://www.w3.org/1999/xlink" width="430px" height="311px" xmlns="http://www.w3.org/2000/svg">
  <g transform="matrix(1 0 0 1 -1384 -333 )">
    <path d="M 1385 337  A 3 3 0 0 1 1388 334 L 1810 334  A 3 3 0 0 1 1813 337 L 1813 640  A 3 3 0 0 1 1810 643 L 1388 643  A 3 3 0 0 1 1385 640 L 1385 337  Z " fill-rule="nonzero" fill="#ff3399" stroke="none" fill-opacity="0.0980392156862745" />
    <path d="M 1384.5 337  A 3.5 3.5 0 0 1 1388 333.5 L 1810 333.5  A 3.5 3.5 0 0 1 1813.5 337 L 1813.5 640  A 3.5 3.5 0 0 1 1810 643.5 L 1388 643.5  A 3.5 3.5 0 0 1 1384.5 640 L 1384.5 337  Z " stroke-width="1" stroke-dasharray="9,4" stroke="#ff3399" fill="none" stroke-dashoffset="0.5" />
  </g>
</svg>