<?xml version="1.0" encoding="utf-8"?>
<svg version="1.1" xmlns:xlink="http://www.w3.org/1999/xlink" width="85px" height="36px" xmlns="http://www.w3.org/2000/svg">
  <g transform="matrix(1 0 0 1 -1161 -167 )">
    <path d="M 1162 171  A 3 3 0 0 1 1165 168 L 1242 168  A 3 3 0 0 1 1245 171 L 1245 199  A 3 3 0 0 1 1242 202 L 1165 202  A 3 3 0 0 1 1162 199 L 1162 171  Z " fill-rule="nonzero" fill="#ff3399" stroke="none" fill-opacity="0.0980392156862745" />
    <path d="M 1161.5 171  A 3.5 3.5 0 0 1 1165 167.5 L 1242 167.5  A 3.5 3.5 0 0 1 1245.5 171 L 1245.5 199  A 3.5 3.5 0 0 1 1242 202.5 L 1165 202.5  A 3.5 3.5 0 0 1 1161.5 199 L 1161.5 171  Z " stroke-width="1" stroke-dasharray="9,4" stroke="#ff3399" fill="none" stroke-dashoffset="0.5" />
  </g>
</svg>