<?xml version="1.0" encoding="utf-8"?>
<svg version="1.1" xmlns:xlink="http://www.w3.org/1999/xlink" width="566px" height="587px" xmlns="http://www.w3.org/2000/svg">
  <g transform="matrix(1 0 0 1 -1384 -110 )">
    <path d="M 1385 114  A 3 3 0 0 1 1388 111 L 1946 111  A 3 3 0 0 1 1949 114 L 1949 693  A 3 3 0 0 1 1946 696 L 1388 696  A 3 3 0 0 1 1385 693 L 1385 114  Z " fill-rule="nonzero" fill="#ff3399" stroke="none" fill-opacity="0.0980392156862745" />
    <path d="M 1384.5 114  A 3.5 3.5 0 0 1 1388 110.5 L 1946 110.5  A 3.5 3.5 0 0 1 1949.5 114 L 1949.5 693  A 3.5 3.5 0 0 1 1946 696.5 L 1388 696.5  A 3.5 3.5 0 0 1 1384.5 693 L 1384.5 114  Z " stroke-width="1" stroke-dasharray="9,4" stroke="#ff3399" fill="none" stroke-dashoffset="0.5" />
  </g>
</svg>