<?xml version="1.0" encoding="utf-8"?>
<svg version="1.1" xmlns:xlink="http://www.w3.org/1999/xlink" width="327px" height="100px" xmlns="http://www.w3.org/2000/svg">
  <g transform="matrix(1 0 0 1 -1401 -431 )">
    <path d="M 1402 435  A 3 3 0 0 1 1405 432 L 1724 432  A 3 3 0 0 1 1727 435 L 1727 527  A 3 3 0 0 1 1724 530 L 1405 530  A 3 3 0 0 1 1402 527 L 1402 435  Z " fill-rule="nonzero" fill="#ff3399" stroke="none" fill-opacity="0.0980392156862745" />
    <path d="M 1401.5 435  A 3.5 3.5 0 0 1 1405 431.5 L 1724 431.5  A 3.5 3.5 0 0 1 1727.5 435 L 1727.5 527  A 3.5 3.5 0 0 1 1724 530.5 L 1405 530.5  A 3.5 3.5 0 0 1 1401.5 527 L 1401.5 435  Z " stroke-width="1" stroke-dasharray="9,4" stroke="#ff3399" fill="none" stroke-dashoffset="0.5" />
  </g>
</svg>