<?xml version="1.0" encoding="utf-8"?>
<svg version="1.1" xmlns:xlink="http://www.w3.org/1999/xlink" width="192px" height="10px" preserveAspectRatio="xMinYMid meet" viewBox="513 1176  192 8" xmlns="http://www.w3.org/2000/svg">
  <path d="M 521 245  L 521 268  A 5 5 0 0 0 526 273 L 655 273  A 5 5 0 0 1 660 278 L 660 965  A 5 5 0 0 0 665 970 L 695 970  A 5 5 0 0 1 700 975 L 700 1175  A 5 5 0 0 1 695 1180 L 523 1180  A 5 5 0 0 0 518 1185 L 518 1196  " stroke-width="2" stroke="#0099cc" fill="none" />
</svg>