<?xml version="1.0" encoding="utf-8"?>
<svg version="1.1" xmlns:xlink="http://www.w3.org/1999/xlink" width="14px" height="16px" xmlns="http://www.w3.org/2000/svg">
  <g transform="matrix(1 0 0 1 -710 -361 )">
    <path d="M 13.910941475827 9.71428571428572  C 13.8337574215437 9.85119047619047  13.7090754877014 9.9375  13.5368956743003 9.97321428571428  L 12.0496183206107 10.2678571428571  L 13.706106870229 11.2232142857143  C 13.842663273961 11.3005952380952  13.9302374893978 11.4151785714286  13.9688295165394 11.5669642857143  C 14.0074215436811 11.71875  13.9881255301103 11.8630952380952  13.910941475827 12  C 13.8278201865988 12.1369047619048  13.7120441051739 12.2247023809524  13.5636132315522 12.2633928571429  C 13.4151823579305 12.3020833333333  13.2726887192536 12.2827380952381  13.1361323155216 12.2053571428571  L 11.4796437659033 11.2589285714286  L 11.969465648855 12.6875  C 12.0466497031383 12.9136904761905  12.011026293469 13.1026785714286  11.8625954198473 13.2544642857143  C 11.7141645462256 13.40625  11.5345631891433 13.4672619047619  11.3237913486005 13.4375  C 11.1130195080577 13.4077380952381  10.9690415606446 13.2827380952381  10.8918575063613 13.0625  L 9.98346055979644 10.3839285714286  L 7.56997455470738 8.99107142857143  L 7.56997455470738 11.7857142857143  L 9.42239185750636 13.9107142857143  C 9.51738761662426 14.0178571428571  9.56785411365564 14.1339285714286  9.57379134860051 14.2589285714286  C 9.57972858354538 14.3839285714286  9.5470737913486 14.4925595238095  9.47582697201018 14.5848214285714  C 9.40458015267176 14.6770833333333  9.31997455470738 14.7514880952381  9.22201017811705 14.8080357142857  C 9.12404580152672 14.8645833333333  9.01420695504665 14.8809523809524  8.89249363867684 14.8571428571429  C 8.77078032230704 14.8333333333333  8.66242578456319 14.7678571428571  8.56743002544529 14.6607142857143  L 7.56997455470738 13.5178571428571  L 7.56997455470738 15.4285714285714  C 7.56997455470738 15.5833333333333  7.51357082273113 15.7172619047619  7.40076335877863 15.8303571428571  C 7.28795589482613 15.9434523809524  7.15436810856658 16  7 16  C 6.84563189143342 16  6.71204410517388 15.9434523809524  6.59923664122137 15.8303571428571  C 6.48642917726887 15.7172619047619  6.43002544529262 15.5833333333333  6.43002544529262 15.4285714285714  L 6.43002544529262 13.5178571428571  L 5.43256997455471 14.6607142857143  C 5.33757421543681 14.7678571428571  5.22921967769296 14.8333333333333  5.10750636132316 14.8571428571429  C 4.98579304495335 14.8809523809524  4.87595419847328 14.8645833333333  4.77798982188295 14.8080357142857  C 4.68002544529262 14.7514880952381  4.59541984732824 14.6770833333333  4.52417302798982 14.5848214285714  C 4.4529262086514 14.4925595238095  4.42027141645462 14.3839285714286  4.42620865139949 14.2589285714286  C 4.43214588634436 14.1339285714286  4.48261238337574 14.0178571428571  4.57760814249364 13.9107142857143  L 6.43002544529262 11.7857142857143  L 6.43002544529262 8.99107142857143  L 4.01653944020356 10.3839285714286  L 3.10814249363868 13.0625  C 3.03095843935539 13.2827380952381  2.88698049194232 13.4077380952381  2.67620865139949 13.4375  C 2.46543681085666 13.4672619047619  2.28583545377439 13.40625  2.13740458015267 13.2544642857143  C 1.98897370653096 13.1026785714286  1.95335029686175 12.9136904761905  2.03053435114504 12.6875  L 2.52035623409669 11.2589285714286  L 0.863867684478372 12.2053571428571  C 0.727311280746395 12.2827380952381  0.584817642069551 12.3020833333333  0.436386768447837 12.2633928571429  C 0.287955894826124 12.2247023809524  0.172179813401188 12.1369047619048  0.089058524173028 12  C 0.0118744698897371 11.8630952380952  -0.00742154368108562 11.71875  0.0311704834605598 11.5669642857143  C 0.0697625106022053 11.4151785714286  0.157336726039016 11.3005952380952  0.293893129770992 11.2232142857143  L 1.95038167938931 10.2678571428571  L 0.463104325699746 9.97321428571428  C 0.290924512298558 9.9375  0.166242578456319 9.85119047619047  0.089058524173028 9.71428571428572  C 0.0118744698897371 9.57738095238095  -0.0133587786259542 9.43898809523809  0.0133587786259542 9.29910714285714  C 0.0400763358778626 9.15922619047619  0.115776081424936 9.04017857142857  0.240458015267176 8.94196428571428  C 0.365139949109415 8.84375  0.513570822731128 8.8125  0.685750636132316 8.84821428571428  L 3.44656488549618 9.40178571428572  L 5.86005089058524 8  L 3.44656488549618 6.59821428571429  L 0.685750636132316 7.15178571428571  C 0.662001696352841 7.15773809523809  0.623409669211196 7.16071428571429  0.569974554707379 7.16071428571429  C 0.409669211195929 7.16071428571429  0.279050042408821 7.10714285714286  0.178117048346056 7  C 0.077184054283291 6.89285714285714  0.0207803223070399 6.77380952380952  0.0089058524173028 6.64285714285714  C -0.00296861747243422 6.51190476190476  0.0296861747243427 6.38392857142857  0.106870229007634 6.25892857142857  C 0.184054283290925 6.13392857142857  0.302798982188295 6.05654761904762  0.463104325699746 6.02678571428571  L 1.95038167938931 5.73214285714286  L 0.293893129770992 4.77678571428571  C 0.157336726039016 4.69940476190476  0.0697625106022053 4.58482142857143  0.0311704834605598 4.43303571428571  C -0.00742154368108562 4.28125  0.0118744698897371 4.13690476190476  0.089058524173028 4  C 0.166242578456319 3.86309523809524  0.282018659881255 3.77380952380952  0.436386768447837 3.73214285714286  C 0.590754877014419 3.69047619047619  0.733248515691264 3.71130952380952  0.863867684478372 3.79464285714286  L 2.52035623409669 4.74107142857143  L 2.03053435114504 3.3125  C 1.95335029686175 3.08630952380952  1.98897370653096 2.89732142857143  2.13740458015267 2.74553571428571  C 2.28583545377439 2.59375  2.46543681085666 2.53273809523809  2.67620865139949 2.5625  C 2.88698049194232 2.5922619047619  3.03095843935539 2.7172619047619  3.10814249363868 2.9375  L 4.01653944020356 5.61607142857143  L 6.43002544529262 7.00892857142857  L 6.43002544529262 4.21428571428571  L 4.57760814249364 2.08928571428571  C 4.48261238337574 1.98214285714286  4.43214588634436 1.86607142857143  4.42620865139949 1.74107142857143  C 4.42027141645462 1.61607142857143  4.4529262086514 1.50744047619048  4.52417302798982 1.41517857142857  C 4.59541984732824 1.32291666666667  4.68002544529262 1.2485119047619  4.77798982188295 1.19196428571429  C 4.87595419847328 1.13541666666667  4.98579304495335 1.11904761904762  5.10750636132316 1.14285714285714  C 5.22921967769296 1.16666666666667  5.33757421543681 1.23214285714286  5.43256997455471 1.33928571428571  L 6.43002544529262 2.48214285714286  L 6.43002544529262 0.571428571428571  C 6.43002544529262 0.416666666666666  6.48642917726887 0.282738095238093  6.59923664122137 0.169642857142858  C 6.71204410517388 0.0565476190476204  6.84563189143342 0  7 0  C 7.15436810856658 0  7.28795589482613 0.0565476190476204  7.40076335877863 0.169642857142858  C 7.51357082273113 0.282738095238093  7.56997455470738 0.416666666666666  7.56997455470738 0.571428571428571  L 7.56997455470738 2.48214285714286  L 8.56743002544529 1.33928571428571  C 8.66242578456319 1.23214285714286  8.77078032230704 1.16666666666667  8.89249363867684 1.14285714285714  C 9.01420695504665 1.11904761904762  9.12404580152672 1.13541666666667  9.22201017811705 1.19196428571429  C 9.31997455470738 1.2485119047619  9.40458015267176 1.32291666666667  9.47582697201018 1.41517857142857  C 9.5470737913486 1.50744047619048  9.57972858354538 1.61607142857143  9.57379134860051 1.74107142857143  C 9.56785411365564 1.86607142857143  9.51738761662426 1.98214285714286  9.42239185750636 2.08928571428571  L 7.56997455470738 4.21428571428571  L 7.56997455470738 7.00892857142857  L 9.98346055979644 5.61607142857143  L 10.8918575063613 2.9375  C 10.9690415606446 2.7172619047619  11.1130195080577 2.5922619047619  11.3237913486005 2.5625  C 11.5345631891433 2.53273809523809  11.7141645462256 2.59375  11.8625954198473 2.74553571428571  C 12.011026293469 2.89732142857143  12.0466497031383 3.08630952380952  11.969465648855 3.3125  L 11.4796437659033 4.74107142857143  L 13.1361323155216 3.79464285714286  C 13.2726887192536 3.7172619047619  13.4151823579305 3.69791666666667  13.5636132315522 3.73660714285714  C 13.7120441051739 3.77529761904762  13.8278201865988 3.86309523809524  13.910941475827 4  C 13.9881255301103 4.13690476190476  14.0074215436811 4.28125  13.9688295165394 4.43303571428571  C 13.9302374893978 4.58482142857143  13.842663273961 4.69940476190476  13.706106870229 4.77678571428571  L 12.0496183206107 5.73214285714286  L 13.5368956743003 6.02678571428571  C 13.6972010178117 6.05654761904762  13.8159457167091 6.13392857142857  13.8931297709924 6.25892857142857  C 13.9703138252757 6.38392857142857  14.0029686174724 6.51190476190476  13.9910941475827 6.64285714285714  C 13.979219677693 6.77380952380952  13.9228159457167 6.89285714285714  13.8218829516539 7  C 13.7209499575912 7.10714285714286  13.5903307888041 7.16071428571429  13.4300254452926 7.16071428571429  C 13.3765903307888 7.16071428571429  13.3379983036472 7.15773809523809  13.3142493638677 7.15178571428571  L 10.5534351145038 6.59821428571429  L 8.13994910941476 8  L 10.5534351145038 9.40178571428572  L 13.3142493638677 8.84821428571428  C 13.4864291772689 8.8125  13.6348600508906 8.84375  13.7595419847328 8.94196428571428  C 13.8842239185751 9.04017857142857  13.9599236641221 9.15922619047619  13.986641221374 9.29910714285714  C 14.013358778626 9.43898809523809  13.9881255301103 9.57738095238095  13.910941475827 9.71428571428572  Z " fill-rule="nonzero" fill="#000000" stroke="none" transform="matrix(1 0 0 1 710 361 )" />
  </g>
</svg>