<?xml version="1.0" encoding="utf-8"?>
<svg version="1.1" xmlns:xlink="http://www.w3.org/1999/xlink" width="10px" height="1122px" preserveAspectRatio="xMidYMin meet" viewBox="1446 503  8 1122" xmlns="http://www.w3.org/2000/svg">
  <path d="M 1313 508  L 1377 508  A 3 3 0 0 1 1380 505 A 3 3 0 0 1 1383 508 L 1393 508  A 3 3 0 0 1 1396 505 A 3 3 0 0 1 1399 508 L 1405 508  A 3 3 0 0 1 1408 505 A 3 3 0 0 1 1411 508 L 1445 508  A 5 5 0 0 1 1450 513 L 1450 1615  A 5 5 0 0 0 1455 1620 L 1598 1620  A 5 5 0 0 1 1603 1625 L 1603 1630  " stroke-width="2" stroke="#0099cc" fill="none" />
</svg>