<?xml version="1.0" encoding="utf-8"?><svg version="1.1" xmlns:xlink="http://www.w3.org/1999/xlink" width="219px" height="127px" xmlns="http://www.w3.org/2000/svg"><g transform="matrix(1 0 0 1 -961 -1721 )"><path d="M 962 1725  A 3 3 0 0 1 965 1722 L 1176 1722  A 3 3 0 0 1 1179 1725 L 1179 1844  A 3 3 0 0 1 1176 1847 L 965 1847  A 3 3 0 0 1 962 1844 L 962 1725  Z " fill-rule="nonzero" fill="#ff3399" stroke="none" fill-opacity="0.0980392156862745" /><path d="M 961.5 1725  A 3.5 3.5 0 0 1 965 1721.5 L 1176 1721.5  A 3.5 3.5 0 0 1 1179.5 1725 L 1179.5 1844  A 3.5 3.5 0 0 1 1176 1847.5 L 965 1847.5  A 3.5 3.5 0 0 1 961.5 1844 L 961.5 1725  Z " stroke-width="1" stroke-dasharray="9,4" stroke="#ff3399" fill="none" stroke-dashoffset="0.5" /></g></svg>