<?xml version="1.0" encoding="utf-8"?><svg version="1.1" xmlns:xlink="http://www.w3.org/1999/xlink" width="277px" height="321px" xmlns="http://www.w3.org/2000/svg"><g transform="matrix(1 0 0 1 -987 -1791 )"><path d="M 988 1795  A 3 3 0 0 1 991 1792 L 1260 1792  A 3 3 0 0 1 1263 1795 L 1263 2108  A 3 3 0 0 1 1260 2111 L 991 2111  A 3 3 0 0 1 988 2108 L 988 1795  Z " fill-rule="nonzero" fill="#ff3399" stroke="none" fill-opacity="0.0980392156862745" /><path d="M 987.5 1795  A 3.5 3.5 0 0 1 991 1791.5 L 1260 1791.5  A 3.5 3.5 0 0 1 1263.5 1795 L 1263.5 2108  A 3.5 3.5 0 0 1 1260 2111.5 L 991 2111.5  A 3.5 3.5 0 0 1 987.5 2108 L 987.5 1795  Z " stroke-width="1" stroke-dasharray="9,4" stroke="#ff3399" fill="none" stroke-dashoffset="0.5" /></g></svg>