<?xml version="1.0" encoding="utf-8"?>
<svg version="1.1" xmlns:xlink="http://www.w3.org/1999/xlink" width="6px" height="16px" viewBox="728 1867  6 16" xmlns="http://www.w3.org/2000/svg">
  <path d="M 488 585  L 488 595  A 5 5 0 0 0 493 600 L 728 600  A 3 3 0 0 1 731 597 A 3 3 0 0 1 734 600 L 944 600  A 5 5 0 0 1 949 605 L 949 1222  A 3 3 0 0 1 952 1225 A 3 3 0 0 1 949 1228 L 949 1865  A 5 5 0 0 1 944 1870 L 736 1870  A 5 5 0 0 0 731 1875 L 731 1883  " stroke-width="2" stroke="#0099cc" fill="none" />
</svg>