<?xml version="1.0" encoding="utf-8"?>
<svg version="1.1" xmlns:xlink="http://www.w3.org/1999/xlink" width="6px" height="16px" viewBox="728 1867  6 16" xmlns="http://www.w3.org/2000/svg">
  <path d="M 731 1883  L 731 1875  A 5 5 0 0 1 736 1870 L 944 1870  A 5 5 0 0 0 949 1865 L 949 1228  A 3 3 0 0 0 952 1225 A 3 3 0 0 0 949 1222 L 949 252  A 5 5 0 0 0 944 247 L 653 247  A 3 3 0 0 0 650 244 A 3 3 0 0 0 647 247 L 620 247  A 3 3 0 0 0 617 244 A 3 3 0 0 0 614 247 L 501 247  A 5 5 0 0 1 496 242 L 496 222  " stroke-width="2" stroke="#0099cc" fill="none" />
</svg>