<?xml version="1.0" encoding="utf-8"?>
<svg version="1.1" xmlns:xlink="http://www.w3.org/1999/xlink" width="461px" height="6px" viewBox="491 272  461 6" xmlns="http://www.w3.org/2000/svg">
  <path d="M 731 1883  L 731 1875  A 5 5 0 0 1 736 1870 L 944 1870  A 5 5 0 0 0 949 1865 L 949 1228  A 3 3 0 0 0 952 1225 A 3 3 0 0 0 949 1222 L 949 280  A 5 5 0 0 0 944 275 L 734 275  A 3 3 0 0 0 731 272 A 3 3 0 0 0 728 275 L 618 275  A 3 3 0 0 0 615 272 A 3 3 0 0 0 612 275 L 499 275  A 5 5 0 0 1 494 270 L 494 260  " stroke-width="2" stroke="#0099cc" fill="none" />
</svg>