<?xml version="1.0" encoding="utf-8"?>
<svg version="1.1" xmlns:xlink="http://www.w3.org/1999/xlink" width="531px" height="346px" xmlns="http://www.w3.org/2000/svg">
  <g transform="matrix(1 0 0 1 -1992 -982 )">
    <path d="M 1993 986  A 3 3 0 0 1 1996 983 L 2519 983  A 3 3 0 0 1 2522 986 L 2522 1324  A 3 3 0 0 1 2519 1327 L 1996 1327  A 3 3 0 0 1 1993 1324 L 1993 986  Z " fill-rule="nonzero" fill="#ff3399" stroke="none" fill-opacity="0.0980392156862745" />
    <path d="M 1992.5 986  A 3.5 3.5 0 0 1 1996 982.5 L 2519 982.5  A 3.5 3.5 0 0 1 2522.5 986 L 2522.5 1324  A 3.5 3.5 0 0 1 2519 1327.5 L 1996 1327.5  A 3.5 3.5 0 0 1 1992.5 1324 L 1992.5 986  Z " stroke-width="1" stroke-dasharray="9,4" stroke="#ff3399" fill="none" stroke-dashoffset="0.5" />
  </g>
</svg>