<?xml version="1.0" encoding="utf-8"?>
<svg version="1.1" xmlns:xlink="http://www.w3.org/1999/xlink" width="16px" height="16px" xmlns="http://www.w3.org/2000/svg">
  <g transform="matrix(1 0 0 1 -852 -1248 )">
    <path d="M 3.984375 1.07291666666667  C 5.21006944444444 0.357638888888888  6.54861111111111 0  8 0  C 9.45138888888889 0  10.7899305555556 0.357638888888888  12.015625 1.07291666666667  C 13.2413194444444 1.78819444444444  14.2118055555556 2.75868055555556  14.9270833333333 3.984375  C 15.6423611111111 5.21006944444444  16 6.54861111111111  16 8  C 16 9.45138888888889  15.6423611111111 10.7899305555556  14.9270833333333 12.015625  C 14.2118055555556 13.2413194444444  13.2413194444444 14.2118055555556  12.015625 14.9270833333333  C 10.7899305555556 15.6423611111111  9.45138888888889 16  8 16  C 6.54861111111111 16  5.21006944444444 15.6423611111111  3.984375 14.9270833333333  C 2.75868055555556 14.2118055555556  1.78819444444444 13.2413194444444  1.07291666666667 12.015625  C 0.357638888888889 10.7899305555556  0 9.45138888888889  0 8  C 0 6.54861111111111  0.357638888888889 5.21006944444444  1.07291666666667 3.984375  C 1.78819444444444 2.75868055555556  2.75868055555556 1.78819444444444  3.984375 1.07291666666667  Z M 9.23958333333333 13.234375  C 9.30208333333333 13.1684027777778  9.33333333333333 13.0868055555556  9.33333333333333 12.9895833333333  L 9.33333333333333 11.0104166666667  C 9.33333333333333 10.9131944444444  9.30208333333333 10.8315972222222  9.23958333333333 10.765625  C 9.17708333333333 10.6996527777778  9.10069444444444 10.6666666666667  9.01041666666667 10.6666666666667  L 7.01041666666667 10.6666666666667  C 6.92013888888889 10.6666666666667  6.84027777777778 10.7013888888889  6.77083333333333 10.7708333333333  C 6.70138888888889 10.8402777777778  6.66666666666667 10.9201388888889  6.66666666666667 11.0104166666667  L 6.66666666666667 12.9895833333333  C 6.66666666666667 13.0798611111111  6.70138888888889 13.1597222222222  6.77083333333333 13.2291666666667  C 6.84027777777778 13.2986111111111  6.92013888888889 13.3333333333333  7.01041666666667 13.3333333333333  L 9.01041666666667 13.3333333333333  C 9.10069444444444 13.3333333333333  9.17708333333333 13.3003472222222  9.23958333333333 13.234375  Z M 9.203125 9.58854166666667  C 9.26909722222222 9.53645833333333  9.30555555555556 9.47569444444444  9.3125 9.40625  L 9.5 2.9375  C 9.5 2.85416666666667  9.46527777777778 2.79166666666667  9.39583333333333 2.75  C 9.32638888888889 2.69444444444444  9.24305555555556 2.66666666666667  9.14583333333333 2.66666666666667  L 6.85416666666667 2.66666666666667  C 6.75694444444445 2.66666666666667  6.67361111111111 2.69444444444444  6.60416666666667 2.75  C 6.53472222222222 2.79166666666667  6.5 2.85416666666667  6.5 2.9375  L 6.67708333333333 9.40625  C 6.67708333333333 9.47569444444444  6.71180555555556 9.53645833333333  6.78125 9.58854166666667  C 6.85069444444445 9.640625  6.93402777777778 9.66666666666667  7.03125 9.66666666666667  L 8.95833333333333 9.66666666666667  C 9.05555555555556 9.66666666666667  9.13715277777778 9.640625  9.203125 9.58854166666667  Z " fill-rule="nonzero" fill="#000000" stroke="none" transform="matrix(1 0 0 1 852 1248 )" />
  </g>
</svg>