<?xml version="1.0" encoding="utf-8"?>
<svg version="1.1" xmlns:xlink="http://www.w3.org/1999/xlink" width="319px" height="95px" xmlns="http://www.w3.org/2000/svg">
  <g transform="matrix(1 0 0 1 -578 -1274 )">
    <path d="M 579 1278  A 3 3 0 0 1 582 1275 L 893 1275  A 3 3 0 0 1 896 1278 L 896 1365  A 3 3 0 0 1 893 1368 L 582 1368  A 3 3 0 0 1 579 1365 L 579 1278  Z " fill-rule="nonzero" fill="#ff3399" stroke="none" fill-opacity="0.0980392156862745" />
    <path d="M 578.5 1278  A 3.5 3.5 0 0 1 582 1274.5 L 893 1274.5  A 3.5 3.5 0 0 1 896.5 1278 L 896.5 1365  A 3.5 3.5 0 0 1 893 1368.5 L 582 1368.5  A 3.5 3.5 0 0 1 578.5 1365 L 578.5 1278  Z " stroke-width="1" stroke-dasharray="9,4" stroke="#ff3399" fill="none" stroke-dashoffset="0.5" />
  </g>
</svg>