<?xml version="1.0" encoding="utf-8"?>
<svg version="1.1" xmlns:xlink="http://www.w3.org/1999/xlink" width="234px" height="6px" viewBox="84 1267  234 6" xmlns="http://www.w3.org/2000/svg">
  <path d="M 620 368  L 620 487  A 3 3 0 0 1 623 490 A 3 3 0 0 1 620 493 L 620 835  A 5 5 0 0 1 615 840 L 556 840  A 3 3 0 0 0 553 837 A 3 3 0 0 0 550 840 L 92 840  A 5 5 0 0 0 87 845 L 87 1265  A 5 5 0 0 0 92 1270 L 310 1270  A 5 5 0 0 1 315 1275 L 315 1285  " stroke-width="2" stroke="#0099cc" fill="none" />
</svg>