<?xml version="1.0" encoding="utf-8"?>
<svg version="1.1" xmlns:xlink="http://www.w3.org/1999/xlink" width="200px" height="100px" xmlns="http://www.w3.org/2000/svg">
  <g transform="matrix(1 0 0 1 -1415 -972 )">
    <path d="M 1416 976  A 3 3 0 0 1 1419 973 L 1611 973  A 3 3 0 0 1 1614 976 L 1614 1068  A 3 3 0 0 1 1611 1071 L 1419 1071  A 3 3 0 0 1 1416 1068 L 1416 976  Z " fill-rule="nonzero" fill="#ff3399" stroke="none" fill-opacity="0.0980392156862745" />
    <path d="M 1415.5 976  A 3.5 3.5 0 0 1 1419 972.5 L 1611 972.5  A 3.5 3.5 0 0 1 1614.5 976 L 1614.5 1068  A 3.5 3.5 0 0 1 1611 1071.5 L 1419 1071.5  A 3.5 3.5 0 0 1 1415.5 1068 L 1415.5 976  Z " stroke-width="1" stroke-dasharray="9,4" stroke="#ff3399" fill="none" stroke-dashoffset="0.5" />
  </g>
</svg>