<?xml version="1.0" encoding="utf-8"?>
<svg version="1.1" xmlns:xlink="http://www.w3.org/1999/xlink" width="200px" height="100px" xmlns="http://www.w3.org/2000/svg">
  <g transform="matrix(1 0 0 1 -1299 -996 )">
    <path d="M 1300 1000  A 3 3 0 0 1 1303 997 L 1495 997  A 3 3 0 0 1 1498 1000 L 1498 1092  A 3 3 0 0 1 1495 1095 L 1303 1095  A 3 3 0 0 1 1300 1092 L 1300 1000  Z " fill-rule="nonzero" fill="#ff3399" stroke="none" fill-opacity="0.0980392156862745" />
    <path d="M 1299.5 1000  A 3.5 3.5 0 0 1 1303 996.5 L 1495 996.5  A 3.5 3.5 0 0 1 1498.5 1000 L 1498.5 1092  A 3.5 3.5 0 0 1 1495 1095.5 L 1303 1095.5  A 3.5 3.5 0 0 1 1299.5 1092 L 1299.5 1000  Z " stroke-width="1" stroke-dasharray="9,4" stroke="#ff3399" fill="none" stroke-dashoffset="0.5" />
  </g>
</svg>