<?xml version="1.0" encoding="utf-8"?>
<svg version="1.1" xmlns:xlink="http://www.w3.org/1999/xlink" width="200px" height="100px" xmlns="http://www.w3.org/2000/svg">
  <g transform="matrix(1 0 0 1 -1398 -1016 )">
    <path d="M 1399 1020  A 3 3 0 0 1 1402 1017 L 1594 1017  A 3 3 0 0 1 1597 1020 L 1597 1112  A 3 3 0 0 1 1594 1115 L 1402 1115  A 3 3 0 0 1 1399 1112 L 1399 1020  Z " fill-rule="nonzero" fill="#ff3399" stroke="none" fill-opacity="0.0980392156862745" />
    <path d="M 1398.5 1020  A 3.5 3.5 0 0 1 1402 1016.5 L 1594 1016.5  A 3.5 3.5 0 0 1 1597.5 1020 L 1597.5 1112  A 3.5 3.5 0 0 1 1594 1115.5 L 1402 1115.5  A 3.5 3.5 0 0 1 1398.5 1112 L 1398.5 1020  Z " stroke-width="1" stroke-dasharray="9,4" stroke="#ff3399" fill="none" stroke-dashoffset="0.5" />
  </g>
</svg>