<?xml version="1.0" encoding="utf-8"?><svg version="1.1" xmlns:xlink="http://www.w3.org/1999/xlink" width="14px" height="14px" xmlns="http://www.w3.org/2000/svg"><g transform="matrix(1 0 0 1 -181 -319 )"><path d="M 188 319  C 191.92 319  195 322.08  195 326  C 195 329.92  191.92 333  188 333  C 184.08 333  181 329.92  181 326  C 181 322.08  184.08 319  188 319  Z " fill-rule="nonzero" fill="#ffffff" stroke="none" fill-opacity="0" /><path d="M 188 319.5  C 191.64 319.5  194.5 322.36  194.5 326  C 194.5 329.64  191.64 332.5  188 332.5  C 184.36 332.5  181.5 329.64  181.5 326  C 181.5 322.36  184.36 319.5  188 319.5  Z " stroke-width="1" stroke="#d9d9d9" fill="none" /></g></svg>