<?xml version="1.0" encoding="utf-8"?><svg version="1.1" xmlns:xlink="http://www.w3.org/1999/xlink" width="1073px" height="262px" xmlns="http://www.w3.org/2000/svg"><g transform="matrix(1 0 0 1 -59 -179 )"><path d="M 0.5 0  L 0.5 259.793528505393  C 0 260.469152542373  0.665587958607716 261  1.51269990592662 261.5  L 535.201604514534 261.5  L 1070.48730009407 261  C 1071.33441204139 261  1072 260.469152542373  1072.5 259.793528505393  L 1072.5 0  L 0.5 0  Z " fill-rule="nonzero" fill="#ffffff" stroke="none" transform="matrix(1 0 0 1 59 179 )" /><path d="M 0.5 0  L 0.5 259.793528505393  C 0 260.469152542373  0.665587958607716 261  1.51269990592662 261.5  L 535.201604514534 261.5  L 1070.48730009407 261  C 1071.33441204139 261  1072 260.469152542373  1072.5 259.793528505393  L 1072.5 0  " stroke-width="1" stroke="#e9e9e9" fill="none" transform="matrix(1 0 0 1 59 179 )" /></g></svg>