<?xml version="1.0" encoding="utf-8"?><svg version="1.1" xmlns:xlink="http://www.w3.org/1999/xlink" width="14px" height="14px" xmlns="http://www.w3.org/2000/svg"><g transform="matrix(1 0 0 1 -181 -286 )"><path d="M 188 286  C 191.92 286  195 289.08  195 293  C 195 296.92  191.92 300  188 300  C 184.08 300  181 296.92  181 293  C 181 289.08  184.08 286  188 286  Z " fill-rule="nonzero" fill="#ffffff" stroke="none" fill-opacity="0" /><path d="M 188 286.5  C 191.64 286.5  194.5 289.36  194.5 293  C 194.5 296.64  191.64 299.5  188 299.5  C 184.36 299.5  181.5 296.64  181.5 293  C 181.5 289.36  184.36 286.5  188 286.5  Z " stroke-width="1" stroke="#d9d9d9" fill="none" /></g></svg>