<?xml version="1.0" encoding="utf-8"?><svg version="1.1" xmlns:xlink="http://www.w3.org/1999/xlink" width="200px" height="100px" xmlns="http://www.w3.org/2000/svg"><g transform="matrix(1 0 0 1 -395 -166 )"><path d="M 396 170  A 3 3 0 0 1 399 167 L 591 167  A 3 3 0 0 1 594 170 L 594 262  A 3 3 0 0 1 591 265 L 399 265  A 3 3 0 0 1 396 262 L 396 170  Z " fill-rule="nonzero" fill="#ff3399" stroke="none" fill-opacity="0.0980392156862745" /><path d="M 395.5 170  A 3.5 3.5 0 0 1 399 166.5 L 591 166.5  A 3.5 3.5 0 0 1 594.5 170 L 594.5 262  A 3.5 3.5 0 0 1 591 265.5 L 399 265.5  A 3.5 3.5 0 0 1 395.5 262 L 395.5 170  Z " stroke-width="1" stroke-dasharray="9,4" stroke="#ff3399" fill="none" stroke-dashoffset="0.5" /></g></svg>