<?xml version="1.0" encoding="utf-8"?><svg version="1.1" xmlns:xlink="http://www.w3.org/1999/xlink" width="200px" height="100px" xmlns="http://www.w3.org/2000/svg"><g transform="matrix(1 0 0 1 -513 -220 )"><path d="M 514 224  A 3 3 0 0 1 517 221 L 709 221  A 3 3 0 0 1 712 224 L 712 316  A 3 3 0 0 1 709 319 L 517 319  A 3 3 0 0 1 514 316 L 514 224  Z " fill-rule="nonzero" fill="#ff3399" stroke="none" fill-opacity="0.0980392156862745" /><path d="M 513.5 224  A 3.5 3.5 0 0 1 517 220.5 L 709 220.5  A 3.5 3.5 0 0 1 712.5 224 L 712.5 316  A 3.5 3.5 0 0 1 709 319.5 L 517 319.5  A 3.5 3.5 0 0 1 513.5 316 L 513.5 224  Z " stroke-width="1" stroke-dasharray="9,4" stroke="#ff3399" fill="none" stroke-dashoffset="0.5" /></g></svg>