<?xml version="1.0" encoding="utf-8"?>
<svg version="1.1" xmlns:xlink="http://www.w3.org/1999/xlink" width="981px" height="262px" xmlns="http://www.w3.org/2000/svg">
  <g transform="matrix(1 0 0 1 -177 -233 )">
    <path d="M 0.5 0  L 0.5 259.793528505393  C 0 260.469152542373  0.608466603951084 261  1.38287864534337 261.5  L 489.270123530078 261.5  L 978.617121354657 261  C 979.391533396049 261  980 260.469152542373  980.5 259.793528505393  L 980.5 0  L 0.5 0  Z " fill-rule="nonzero" fill="#ffffff" stroke="none" transform="matrix(1 0 0 1 177 233 )" />
    <path d="M 0.5 0  L 0.5 259.793528505393  C 0 260.469152542373  0.608466603951084 261  1.38287864534337 261.5  L 489.270123530078 261.5  L 978.617121354657 261  C 979.391533396049 261  980 260.469152542373  980.5 259.793528505393  L 980.5 0  " stroke-width="1" stroke="#e9e9e9" fill="none" transform="matrix(1 0 0 1 177 233 )" />
  </g>
</svg>