<?xml version="1.0" encoding="utf-8"?><svg version="1.1" xmlns:xlink="http://www.w3.org/1999/xlink" width="14px" height="14px" xmlns="http://www.w3.org/2000/svg"><g transform="matrix(1 0 0 1 -299 -340 )"><path d="M 306 340  C 309.92 340  313 343.08  313 347  C 313 350.92  309.92 354  306 354  C 302.08 354  299 350.92  299 347  C 299 343.08  302.08 340  306 340  Z " fill-rule="nonzero" fill="#ffffff" stroke="none" fill-opacity="0" /><path d="M 306 340.5  C 309.64 340.5  312.5 343.36  312.5 347  C 312.5 350.64  309.64 353.5  306 353.5  C 302.36 353.5  299.5 350.64  299.5 347  C 299.5 343.36  302.36 340.5  306 340.5  Z " stroke-width="1" stroke="#d9d9d9" fill="none" /></g></svg>