<?xml version="1.0" encoding="utf-8"?>
<svg version="1.1" xmlns:xlink="http://www.w3.org/1999/xlink" width="19px" height="19px" xmlns="http://www.w3.org/2000/svg">
  <g transform="matrix(1 0 0 1 -1493 -394 )">
    <path d="M 18.6221590909091 7.28693181818182  C 18.874053030303 7.53882575757575  19 7.84469696969697  19 8.20454545454545  L 19 10.7954545454545  C 19 11.155303030303  18.874053030303 11.4611742424242  18.6221590909091 11.7130681818182  C 18.3702651515152 11.9649621212121  18.0643939393939 12.0909090909091  17.7045454545455 12.0909090909091  L 12.0909090909091 12.0909090909091  L 12.0909090909091 17.7045454545455  C 12.0909090909091 18.0643939393939  11.9649621212121 18.3702651515151  11.7130681818182 18.6221590909091  C 11.4611742424242 18.874053030303  11.155303030303 19  10.7954545454545 19  L 8.20454545454546 19  C 7.84469696969697 19  7.53882575757576 18.874053030303  7.28693181818182 18.6221590909091  C 7.03503787878788 18.3702651515151  6.90909090909091 18.0643939393939  6.90909090909091 17.7045454545455  L 6.90909090909091 12.0909090909091  L 1.29545454545455 12.0909090909091  C 0.935606060606061 12.0909090909091  0.629734848484849 11.9649621212121  0.377840909090909 11.7130681818182  C 0.12594696969697 11.4611742424242  0 11.155303030303  0 10.7954545454545  L 0 8.20454545454545  C 0 7.84469696969697  0.12594696969697 7.53882575757575  0.377840909090909 7.28693181818182  C 0.629734848484849 7.03503787878788  0.935606060606061 6.90909090909091  1.29545454545455 6.90909090909091  L 6.90909090909091 6.90909090909091  L 6.90909090909091 1.29545454545455  C 6.90909090909091 0.93560606060606  7.03503787878788 0.629734848484847  7.28693181818182 0.377840909090909  C 7.53882575757576 0.125946969696969  7.84469696969697 0  8.20454545454546 0  L 10.7954545454545 0  C 11.155303030303 0  11.4611742424242 0.125946969696969  11.7130681818182 0.377840909090909  C 11.9649621212121 0.629734848484847  12.0909090909091 0.93560606060606  12.0909090909091 1.29545454545455  L 12.0909090909091 6.90909090909091  L 17.7045454545455 6.90909090909091  C 18.0643939393939 6.90909090909091  18.3702651515152 7.03503787878788  18.6221590909091 7.28693181818182  Z " fill-rule="nonzero" fill="#000000" stroke="none" transform="matrix(1 0 0 1 1493 394 )" />
  </g>
</svg>