<?xml version="1.0" encoding="utf-8"?>
<svg version="1.1" xmlns:xlink="http://www.w3.org/1999/xlink" width="200px" height="49px" xmlns="http://www.w3.org/2000/svg">
  <g transform="matrix(1 0 0 1 -841 -44 )">
    <path d="M 842 48  A 3 3 0 0 1 845 45 L 1037 45  A 3 3 0 0 1 1040 48 L 1040 89  A 3 3 0 0 1 1037 92 L 845 92  A 3 3 0 0 1 842 89 L 842 48  Z " fill-rule="nonzero" fill="#ff3399" stroke="none" fill-opacity="0.0980392156862745" />
    <path d="M 841.5 48  A 3.5 3.5 0 0 1 845 44.5 L 1037 44.5  A 3.5 3.5 0 0 1 1040.5 48 L 1040.5 89  A 3.5 3.5 0 0 1 1037 92.5 L 845 92.5  A 3.5 3.5 0 0 1 841.5 89 L 841.5 48  Z " stroke-width="1" stroke-dasharray="9,4" stroke="#ff3399" fill="none" stroke-dashoffset="0.5" />
  </g>
</svg>