<?xml version="1.0" encoding="utf-8"?>
<svg version="1.1" xmlns:xlink="http://www.w3.org/1999/xlink" width="132px" height="41px" xmlns="http://www.w3.org/2000/svg">
  <g transform="matrix(1 0 0 1 -82 -360 )">
    <path d="M 82 360  L 214 360  L 214 401  L 82 401  L 82 360  " fill-rule="nonzero" fill="#cccccc" stroke="none" />
    <path d="M 85 363  L 211 363  L 211 398  L 85 398  L 85 363  " fill-rule="nonzero" fill="#ffffff" stroke="none" />
    <path d="M 153.715 372.3  C 151.993 372.3  150.64 370.947  150.64 369.225  C 150.64 367.503  151.993 366.15  153.715 366.15  C 155.437 366.15  156.79 367.503  156.79 369.225  C 156.79 370.947  155.437 372.3  153.715 372.3  " fill-rule="nonzero" fill="#cccccc" stroke="none" />
    <path d="M 86 397  L 86 378.85  L 117 370.6  L 160.4 390.85  L 185.2 375.55  L 210 390.85  L 210 397  L 86 397  " fill-rule="nonzero" fill="#169bd5" stroke="none" />
  </g>
</svg>