<?xml version="1.0" encoding="utf-8"?>
<svg version="1.1" xmlns:xlink="http://www.w3.org/1999/xlink" width="247px" height="55px" xmlns="http://www.w3.org/2000/svg">
  <g transform="matrix(1 0 0 1 -322 -197 )">
    <path d="M 323 201  A 3 3 0 0 1 326 198 L 565 198  A 3 3 0 0 1 568 201 L 568 248  A 3 3 0 0 1 565 251 L 326 251  A 3 3 0 0 1 323 248 L 323 201  Z " fill-rule="nonzero" fill="#ff3399" stroke="none" fill-opacity="0.0980392156862745" />
    <path d="M 322.5 201  A 3.5 3.5 0 0 1 326 197.5 L 565 197.5  A 3.5 3.5 0 0 1 568.5 201 L 568.5 248  A 3.5 3.5 0 0 1 565 251.5 L 326 251.5  A 3.5 3.5 0 0 1 322.5 248 L 322.5 201  Z " stroke-width="1" stroke-dasharray="9,4" stroke="#ff3399" fill="none" stroke-dashoffset="0.5" />
  </g>
</svg>