<?xml version="1.0" encoding="utf-8"?>
<svg version="1.1" xmlns:xlink="http://www.w3.org/1999/xlink" width="247px" height="55px" xmlns="http://www.w3.org/2000/svg">
  <g transform="matrix(1 0 0 1 -202 -104 )">
    <path d="M 203 108  A 3 3 0 0 1 206 105 L 445 105  A 3 3 0 0 1 448 108 L 448 155  A 3 3 0 0 1 445 158 L 206 158  A 3 3 0 0 1 203 155 L 203 108  Z " fill-rule="nonzero" fill="#ff3399" stroke="none" fill-opacity="0.0980392156862745" />
    <path d="M 202.5 108  A 3.5 3.5 0 0 1 206 104.5 L 445 104.5  A 3.5 3.5 0 0 1 448.5 108 L 448.5 155  A 3.5 3.5 0 0 1 445 158.5 L 206 158.5  A 3.5 3.5 0 0 1 202.5 155 L 202.5 108  Z " stroke-width="1" stroke-dasharray="9,4" stroke="#ff3399" fill="none" stroke-dashoffset="0.5" />
  </g>
</svg>