<?xml version="1.0" encoding="utf-8"?>
<svg version="1.1" xmlns:xlink="http://www.w3.org/1999/xlink" width="356px" height="179px" xmlns="http://www.w3.org/2000/svg">
  <g transform="matrix(1 0 0 1 -806 -161 )">
    <path d="M 807 165  A 3 3 0 0 1 810 162 L 1158 162  A 3 3 0 0 1 1161 165 L 1161 336  A 3 3 0 0 1 1158 339 L 810 339  A 3 3 0 0 1 807 336 L 807 165  Z " fill-rule="nonzero" fill="#ff3399" stroke="none" fill-opacity="0.0980392156862745" />
    <path d="M 806.5 165  A 3.5 3.5 0 0 1 810 161.5 L 1158 161.5  A 3.5 3.5 0 0 1 1161.5 165 L 1161.5 336  A 3.5 3.5 0 0 1 1158 339.5 L 810 339.5  A 3.5 3.5 0 0 1 806.5 336 L 806.5 165  Z " stroke-width="1" stroke-dasharray="9,4" stroke="#ff3399" fill="none" stroke-dashoffset="0.5" />
  </g>
</svg>