<?xml version="1.0" encoding="utf-8"?>
<svg version="1.1" xmlns:xlink="http://www.w3.org/1999/xlink" width="281px" height="53px" xmlns="http://www.w3.org/2000/svg">
  <g transform="matrix(1 0 0 1 -155 -56 )">
    <path d="M 156 60  A 3 3 0 0 1 159 57 L 432 57  A 3 3 0 0 1 435 60 L 435 105  A 3 3 0 0 1 432 108 L 159 108  A 3 3 0 0 1 156 105 L 156 60  Z " fill-rule="nonzero" fill="#ff3399" stroke="none" fill-opacity="0.0980392156862745" />
    <path d="M 155.5 60  A 3.5 3.5 0 0 1 159 56.5 L 432 56.5  A 3.5 3.5 0 0 1 435.5 60 L 435.5 105  A 3.5 3.5 0 0 1 432 108.5 L 159 108.5  A 3.5 3.5 0 0 1 155.5 105 L 155.5 60  Z " stroke-width="1" stroke-dasharray="9,4" stroke="#ff3399" fill="none" stroke-dashoffset="0.5" />
  </g>
</svg>