<?xml version="1.0" encoding="utf-8"?>
<svg version="1.1" xmlns:xlink="http://www.w3.org/1999/xlink" width="471px" height="41px" xmlns="http://www.w3.org/2000/svg">
  <defs>
    <filter x="1925px" y="1851px" width="471px" height="41px" filterUnits="userSpaceOnUse" id="filter59">
      <feOffset dx="0" dy="0" in="SourceAlpha" result="shadowOffsetInner" />
      <feGaussianBlur stdDeviation="2" in="shadowOffsetInner" result="shadowGaussian" />
      <feComposite in2="shadowGaussian" operator="atop" in="SourceAlpha" result="shadowComposite" />
      <feColorMatrix type="matrix" values="0 0 0 0 0.850980392156863  0 0 0 0 0.850980392156863  0 0 0 0 0.850980392156863  0 0 0 0.988235294117647 0  " in="shadowComposite" />
    </filter>
    <g id="widget60">
      <path d="M 1929.5 1859  A 3.5 3.5 0 0 1 1933 1855.5 L 2388 1855.5  A 3.5 3.5 0 0 1 2391.5 1859 L 2391.5 1884  A 3.5 3.5 0 0 1 2388 1887.5 L 1933 1887.5  A 3.5 3.5 0 0 1 1929.5 1884 L 1929.5 1859  Z " fill-rule="nonzero" fill="#ffffff" stroke="none" fill-opacity="0" />
      <path d="M 1929.5 1859  A 3.5 3.5 0 0 1 1933 1855.5 L 2388 1855.5  A 3.5 3.5 0 0 1 2391.5 1859 L 2391.5 1884  A 3.5 3.5 0 0 1 2388 1887.5 L 1933 1887.5  A 3.5 3.5 0 0 1 1929.5 1884 L 1929.5 1859  Z " stroke-width="1" stroke="#d9d9d9" fill="none" />
    </g>
  </defs>
  <g transform="matrix(1 0 0 1 -1925 -1851 )">
    <use xlink:href="#widget60" filter="url(#filter59)" />
    <use xlink:href="#widget60" />
  </g>
</svg>