<?xml version="1.0" encoding="utf-8"?>
<svg version="1.1" xmlns:xlink="http://www.w3.org/1999/xlink" width="132px" height="41px" xmlns="http://www.w3.org/2000/svg">
  <g transform="matrix(1 0 0 1 -82 -464 )">
    <path d="M 82 464  L 214 464  L 214 505  L 82 505  L 82 464  " fill-rule="nonzero" fill="#cccccc" stroke="none" />
    <path d="M 85 467  L 211 467  L 211 502  L 85 502  L 85 467  " fill-rule="nonzero" fill="#ffffff" stroke="none" />
    <path d="M 153.715 476.3  C 151.993 476.3  150.64 474.947  150.64 473.225  C 150.64 471.503  151.993 470.15  153.715 470.15  C 155.437 470.15  156.79 471.503  156.79 473.225  C 156.79 474.947  155.437 476.3  153.715 476.3  " fill-rule="nonzero" fill="#cccccc" stroke="none" />
    <path d="M 86 501  L 86 482.85  L 117 474.6  L 160.4 494.85  L 185.2 479.55  L 210 494.85  L 210 501  L 86 501  " fill-rule="nonzero" fill="#169bd5" stroke="none" />
  </g>
</svg>