<?xml version="1.0" encoding="utf-8"?><svg version="1.1" xmlns:xlink="http://www.w3.org/1999/xlink" width="28px" height="28px" xmlns="http://www.w3.org/2000/svg"><g transform="matrix(1 0 0 1 -1081 -265 )"><path d="M 1095 266  C 1102.28 266  1108 271.72  1108 279  C 1108 286.28  1102.28 292  1095 292  C 1087.72 292  1082 286.28  1082 279  C 1082 271.72  1087.72 266  1095 266  Z " fill-rule="nonzero" fill="#ffffff" stroke="none" /><path d="M 1095 266  C 1102.28 266  1108 271.72  1108 279  C 1108 286.28  1102.28 292  1095 292  C 1087.72 292  1082 286.28  1082 279  C 1082 271.72  1087.72 266  1095 266  Z " stroke-width="2" stroke="#1890ff" fill="none" /></g></svg>