<?xml version="1.0" encoding="utf-8"?><svg version="1.1" xmlns:xlink="http://www.w3.org/1999/xlink" width="28px" height="28px" xmlns="http://www.w3.org/2000/svg"><g transform="matrix(1 0 0 1 -1083 -1238 )"><path d="M 1097 1239  C 1104.28 1239  1110 1244.72  1110 1252  C 1110 1259.28  1104.28 1265  1097 1265  C 1089.72 1265  1084 1259.28  1084 1252  C 1084 1244.72  1089.72 1239  1097 1239  Z " fill-rule="nonzero" fill="#1890ff" stroke="none" /><path d="M 1097 1239  C 1104.28 1239  1110 1244.72  1110 1252  C 1110 1259.28  1104.28 1265  1097 1265  C 1089.72 1265  1084 1259.28  1084 1252  C 1084 1244.72  1089.72 1239  1097 1239  Z " stroke-width="2" stroke="#108ee9" fill="none" /></g></svg>