<?xml version="1.0" encoding="utf-8"?>
<svg version="1.1" xmlns:xlink="http://www.w3.org/1999/xlink" width="629px" height="101px" xmlns="http://www.w3.org/2000/svg">
  <g transform="matrix(1 0 0 1 -784 -1128 )">
    <path d="M 785 1132  A 3 3 0 0 1 788 1129 L 1409 1129  A 3 3 0 0 1 1412 1132 L 1412 1225  A 3 3 0 0 1 1409 1228 L 788 1228  A 3 3 0 0 1 785 1225 L 785 1132  Z " fill-rule="nonzero" fill="#ff3399" stroke="none" fill-opacity="0.0980392156862745" />
    <path d="M 784.5 1132  A 3.5 3.5 0 0 1 788 1128.5 L 1409 1128.5  A 3.5 3.5 0 0 1 1412.5 1132 L 1412.5 1225  A 3.5 3.5 0 0 1 1409 1228.5 L 788 1228.5  A 3.5 3.5 0 0 1 784.5 1225 L 784.5 1132  Z " stroke-width="1" stroke-dasharray="9,4" stroke="#ff3399" fill="none" stroke-dashoffset="0.5" />
  </g>
</svg>