<?xml version="1.0" encoding="utf-8"?>
<svg version="1.1" xmlns:xlink="http://www.w3.org/1999/xlink" width="240px" height="53px" xmlns="http://www.w3.org/2000/svg">
  <g transform="matrix(1 0 0 1 -608 -159 )">
    <path d="M 609 163  A 3 3 0 0 1 612 160 L 844 160  A 3 3 0 0 1 847 163 L 847 208  A 3 3 0 0 1 844 211 L 612 211  A 3 3 0 0 1 609 208 L 609 163  Z " fill-rule="nonzero" fill="#ff3399" stroke="none" fill-opacity="0.0980392156862745" />
    <path d="M 608.5 163  A 3.5 3.5 0 0 1 612 159.5 L 844 159.5  A 3.5 3.5 0 0 1 847.5 163 L 847.5 208  A 3.5 3.5 0 0 1 844 211.5 L 612 211.5  A 3.5 3.5 0 0 1 608.5 208 L 608.5 163  Z " stroke-width="1" stroke-dasharray="9,4" stroke="#ff3399" fill="none" stroke-dashoffset="0.5" />
  </g>
</svg>