<?xml version="1.0" encoding="utf-8"?>
<svg version="1.1" xmlns:xlink="http://www.w3.org/1999/xlink" width="291px" height="100px" xmlns="http://www.w3.org/2000/svg">
  <g transform="matrix(1 0 0 1 -1427 -168 )">
    <path d="M 1428 172  A 3 3 0 0 1 1431 169 L 1714 169  A 3 3 0 0 1 1717 172 L 1717 264  A 3 3 0 0 1 1714 267 L 1431 267  A 3 3 0 0 1 1428 264 L 1428 172  Z " fill-rule="nonzero" fill="#ff3399" stroke="none" fill-opacity="0.0980392156862745" />
    <path d="M 1427.5 172  A 3.5 3.5 0 0 1 1431 168.5 L 1714 168.5  A 3.5 3.5 0 0 1 1717.5 172 L 1717.5 264  A 3.5 3.5 0 0 1 1714 267.5 L 1431 267.5  A 3.5 3.5 0 0 1 1427.5 264 L 1427.5 172  Z " stroke-width="1" stroke-dasharray="9,4" stroke="#ff3399" fill="none" stroke-dashoffset="0.5" />
  </g>
</svg>