<?xml version="1.0" encoding="utf-8"?>
<svg version="1.1" xmlns:xlink="http://www.w3.org/1999/xlink" width="268px" height="53px" xmlns="http://www.w3.org/2000/svg">
  <g transform="matrix(1 0 0 1 -1427 -521 )">
    <path d="M 1428 525  A 3 3 0 0 1 1431 522 L 1691 522  A 3 3 0 0 1 1694 525 L 1694 570  A 3 3 0 0 1 1691 573 L 1431 573  A 3 3 0 0 1 1428 570 L 1428 525  Z " fill-rule="nonzero" fill="#ff3399" stroke="none" fill-opacity="0.0980392156862745" />
    <path d="M 1427.5 525  A 3.5 3.5 0 0 1 1431 521.5 L 1691 521.5  A 3.5 3.5 0 0 1 1694.5 525 L 1694.5 570  A 3.5 3.5 0 0 1 1691 573.5 L 1431 573.5  A 3.5 3.5 0 0 1 1427.5 570 L 1427.5 525  Z " stroke-width="1" stroke-dasharray="9,4" stroke="#ff3399" fill="none" stroke-dashoffset="0.5" />
  </g>
</svg>