<?xml version="1.0" encoding="utf-8"?>
<svg version="1.1" xmlns:xlink="http://www.w3.org/1999/xlink" width="582px" height="185px" xmlns="http://www.w3.org/2000/svg">
  <g transform="matrix(1 0 0 1 -156 -124 )">
    <path d="M 157 128  A 3 3 0 0 1 160 125 L 734 125  A 3 3 0 0 1 737 128 L 737 305  A 3 3 0 0 1 734 308 L 160 308  A 3 3 0 0 1 157 305 L 157 128  Z " fill-rule="nonzero" fill="#ff3399" stroke="none" fill-opacity="0.0980392156862745" />
    <path d="M 156.5 128  A 3.5 3.5 0 0 1 160 124.5 L 734 124.5  A 3.5 3.5 0 0 1 737.5 128 L 737.5 305  A 3.5 3.5 0 0 1 734 308.5 L 160 308.5  A 3.5 3.5 0 0 1 156.5 305 L 156.5 128  Z " stroke-width="1" stroke-dasharray="9,4" stroke="#ff3399" fill="none" stroke-dashoffset="0.5" />
  </g>
</svg>