<?xml version="1.0" encoding="utf-8"?><svg version="1.1" xmlns:xlink="http://www.w3.org/1999/xlink" width="1073px" height="610px" xmlns="http://www.w3.org/2000/svg"><g transform="matrix(1 0 0 1 -43 -414 )"><path d="M 0.5 0  L 0.5 606.184899845917  C 0 607.761355932202  0.66558795860771 609  1.51269990592662 609.5  L 1070.48730009407 609.5  C 1071.33441204139 609  1072 607.761355932202  1072.5 606.184899845917  L 1072.5 0  L 0.5 0  Z " fill-rule="nonzero" fill="#ffffff" stroke="none" transform="matrix(1 0 0 1 43 414 )" /><path d="M 0.5 0  L 0.5 606.184899845917  C 0 607.761355932202  0.66558795860771 609  1.51269990592662 609.5  L 1070.48730009407 609.5  C 1071.33441204139 609  1072 607.761355932202  1072.5 606.184899845917  L 1072.5 0  " stroke-width="1" stroke="#e9e9e9" fill="none" transform="matrix(1 0 0 1 43 414 )" /></g></svg>