<?xml version="1.0" encoding="utf-8"?><svg version="1.1" xmlns:xlink="http://www.w3.org/1999/xlink" width="32px" height="32px" xmlns="http://www.w3.org/2000/svg"><g transform="matrix(1 0 0 1 -734 -55 )"><path d="M 750 55.5  C 758.68 55.5  765.5 62.32  765.5 71  C 765.5 79.68  758.68 86.5  750 86.5  C 741.32 86.5  734.5 79.68  734.5 71  C 734.5 62.32  741.32 55.5  750 55.5  Z " fill-rule="nonzero" fill="#ffffff" stroke="none" fill-opacity="0" /><path d="M 750 55.5  C 758.68 55.5  765.5 62.32  765.5 71  C 765.5 79.68  758.68 86.5  750 86.5  C 741.32 86.5  734.5 79.68  734.5 71  C 734.5 62.32  741.32 55.5  750 55.5  Z " stroke-width="1" stroke="#000000" fill="none" stroke-opacity="0.149019607843137" /></g></svg>