<?xml version="1.0" encoding="utf-8"?><svg version="1.1" xmlns:xlink="http://www.w3.org/1999/xlink" width="1073px" height="1106px" xmlns="http://www.w3.org/2000/svg"><g transform="matrix(1 0 0 1 -43 -414 )"><path d="M 0.5 0  L 0.5 1099.89214175655  C 0 1102.75254237288  0.66558795860771 1105  1.51269990592662 1105.5  L 1070.48730009407 1105.5  C 1071.33441204139 1105  1072 1102.75254237288  1072.5 1099.89214175655  L 1072.5 0  L 0.5 0  Z " fill-rule="nonzero" fill="#ffffff" stroke="none" transform="matrix(1 0 0 1 43 414 )" /><path d="M 0.5 0  L 0.5 1099.89214175655  C 0 1102.75254237288  0.66558795860771 1105  1.51269990592662 1105.5  L 1070.48730009407 1105.5  C 1071.33441204139 1105  1072 1102.75254237288  1072.5 1099.89214175655  L 1072.5 0  " stroke-width="1" stroke="#e9e9e9" fill="none" transform="matrix(1 0 0 1 43 414 )" /></g></svg>