<?xml version="1.0" encoding="utf-8"?><svg version="1.1" xmlns:xlink="http://www.w3.org/1999/xlink" width="1073px" height="933px" xmlns="http://www.w3.org/2000/svg"><g transform="matrix(1 0 0 1 -43 -414 )"><path d="M 0.5 0  L 0.5 927.691833590138  C 0 930.10440677966  0.66558795860771 932  1.51269990592662 932.5  L 1070.48730009407 932.5  C 1071.33441204139 932  1072 930.10440677966  1072.5 927.691833590138  L 1072.5 0  L 0.5 0  Z " fill-rule="nonzero" fill="#ffffff" stroke="none" transform="matrix(1 0 0 1 43 414 )" /><path d="M 0.5 0  L 0.5 927.691833590138  C 0 930.10440677966  0.66558795860771 932  1.51269990592662 932.5  L 1070.48730009407 932.5  C 1071.33441204139 932  1072 930.10440677966  1072.5 927.691833590138  L 1072.5 0  " stroke-width="1" stroke="#e9e9e9" fill="none" transform="matrix(1 0 0 1 43 414 )" /></g></svg>