<?xml version="1.0" encoding="utf-8"?><svg version="1.1" xmlns:xlink="http://www.w3.org/1999/xlink" width="14px" height="14px" xmlns="http://www.w3.org/2000/svg"><g transform="matrix(1 0 0 1 -609 -537 )"><path d="M 616 537  C 619.92 537  623 540.08  623 544  C 623 547.92  619.92 551  616 551  C 612.08 551  609 547.92  609 544  C 609 540.08  612.08 537  616 537  Z " fill-rule="nonzero" fill="#ffffff" stroke="none" fill-opacity="0" /><path d="M 616 537.5  C 619.64 537.5  622.5 540.36  622.5 544  C 622.5 547.64  619.64 550.5  616 550.5  C 612.36 550.5  609.5 547.64  609.5 544  C 609.5 540.36  612.36 537.5  616 537.5  Z " stroke-width="1" stroke="#1890ff" fill="none" /></g></svg>