<?xml version="1.0" encoding="utf-8"?><svg version="1.1" xmlns:xlink="http://www.w3.org/1999/xlink" width="328px" height="32px" xmlns="http://www.w3.org/2000/svg"><g transform="matrix(1 0 0 1 -136 -1254 )"><path d="M 137 1258  A 3 3 0 0 1 140 1255 L 460 1255  A 3 3 0 0 1 463 1258 L 463 1282  A 3 3 0 0 1 460 1285 L 140 1285  A 3 3 0 0 1 137 1282 L 137 1258  Z " fill-rule="nonzero" fill="#ffffff" stroke="none" /><path d="M 136.5 1258  A 3.5 3.5 0 0 1 140 1254.5 L 460 1254.5  A 3.5 3.5 0 0 1 463.5 1258 L 463.5 1282  A 3.5 3.5 0 0 1 460 1285.5 L 140 1285.5  A 3.5 3.5 0 0 1 136.5 1282 L 136.5 1258  Z " stroke-width="1" stroke-dasharray="9,4" stroke="#d9d9d9" fill="none" stroke-dashoffset="0.5" /></g></svg>