<?xml version="1.0" encoding="utf-8"?><svg version="1.1" xmlns:xlink="http://www.w3.org/1999/xlink" width="261px" height="150px" xmlns="http://www.w3.org/2000/svg"><g transform="matrix(1 0 0 1 -157 -1310 )"><path d="M 158 1316  A 5 5 0 0 1 163 1311 L 412 1311  A 5 5 0 0 1 417 1316 L 417 1454  A 5 5 0 0 1 412 1459 L 163 1459  A 5 5 0 0 1 158 1454 L 158 1316  Z " fill-rule="nonzero" fill="#000000" stroke="none" fill-opacity="0.0196078431372549" /><path d="M 157.5 1316  A 5.5 5.5 0 0 1 163 1310.5 L 412 1310.5  A 5.5 5.5 0 0 1 417.5 1316 L 417.5 1454  A 5.5 5.5 0 0 1 412 1459.5 L 163 1459.5  A 5.5 5.5 0 0 1 157.5 1454 L 157.5 1316  Z " stroke-width="1" stroke-dasharray="9,4" stroke="#108ee9" fill="none" stroke-dashoffset="0.5" /></g></svg>