<?xml version="1.0" encoding="utf-8"?><svg version="1.1" xmlns:xlink="http://www.w3.org/1999/xlink" width="32px" height="32px" xmlns="http://www.w3.org/2000/svg"><g transform="matrix(1 0 0 1 -767 -45 )"><path d="M 783 45.5  C 791.68 45.5  798.5 52.32  798.5 61  C 798.5 69.68  791.68 76.5  783 76.5  C 774.32 76.5  767.5 69.68  767.5 61  C 767.5 52.32  774.32 45.5  783 45.5  Z " fill-rule="nonzero" fill="#ffffff" stroke="none" fill-opacity="0" /><path d="M 783 45.5  C 791.68 45.5  798.5 52.32  798.5 61  C 798.5 69.68  791.68 76.5  783 76.5  C 774.32 76.5  767.5 69.68  767.5 61  C 767.5 52.32  774.32 45.5  783 45.5  Z " stroke-width="1" stroke="#000000" fill="none" stroke-opacity="0.149019607843137" /></g></svg>