<?xml version="1.0" encoding="utf-8"?><svg version="1.1" xmlns:xlink="http://www.w3.org/1999/xlink" width="1073px" height="167px" xmlns="http://www.w3.org/2000/svg"><g transform="matrix(1 0 0 1 -76 -174 )"><path d="M 0.5 0  L 0.5 165.232665639445  C 0 165.662372881356  0.665587958607716 166  1.51269990592662 166.5  L 535.201604514534 166.5  L 1070.48730009407 166  C 1071.33441204139 166  1072 165.662372881356  1072.5 165.232665639445  L 1072.5 0  L 0.5 0  Z " fill-rule="nonzero" fill="#ffffff" stroke="none" transform="matrix(1 0 0 1 76 174 )" /><path d="M 0.5 0  L 0.5 165.232665639445  C 0 165.662372881356  0.665587958607716 166  1.51269990592662 166.5  L 535.201604514534 166.5  L 1070.48730009407 166  C 1071.33441204139 166  1072 165.662372881356  1072.5 165.232665639445  L 1072.5 0  " stroke-width="1" stroke="#e9e9e9" fill="none" transform="matrix(1 0 0 1 76 174 )" /></g></svg>