<?xml version="1.0" encoding="utf-8"?><svg version="1.1" xmlns:xlink="http://www.w3.org/1999/xlink" width="1073px" height="1346px" xmlns="http://www.w3.org/2000/svg"><g transform="matrix(1 0 0 1 -76 -404 )"><path d="M 0.5 0  L 0.5 1338.78274268105  C 0 1342.26440677966  0.66558795860771 1345  1.51269990592662 1345.5  L 1070.48730009407 1345.5  C 1071.33441204139 1345  1072 1342.26440677966  1072.5 1338.78274268105  L 1072.5 0  L 0.5 0  Z " fill-rule="nonzero" fill="#ffffff" stroke="none" transform="matrix(1 0 0 1 76 404 )" /><path d="M 0.5 0  L 0.5 1338.78274268105  C 0 1342.26440677966  0.66558795860771 1345  1.51269990592662 1345.5  L 1070.48730009407 1345.5  C 1071.33441204139 1345  1072 1342.26440677966  1072.5 1338.78274268105  L 1072.5 0  " stroke-width="1" stroke="#e9e9e9" fill="none" transform="matrix(1 0 0 1 76 404 )" /></g></svg>