<?xml version="1.0" encoding="utf-8"?>
<svg version="1.1" xmlns:xlink="http://www.w3.org/1999/xlink" width="14px" height="14px" xmlns="http://www.w3.org/2000/svg">
  <g transform="matrix(1 0 0 1 -642 -527 )">
    <path d="M 649 527  C 652.92 527  656 530.08  656 534  C 656 537.92  652.92 541  649 541  C 645.08 541  642 537.92  642 534  C 642 530.08  645.08 527  649 527  Z " fill-rule="nonzero" fill="#ffffff" stroke="none" fill-opacity="0" />
    <path d="M 649 527.5  C 652.64 527.5  655.5 530.36  655.5 534  C 655.5 537.64  652.64 540.5  649 540.5  C 645.36 540.5  642.5 537.64  642.5 534  C 642.5 530.36  645.36 527.5  649 527.5  Z " stroke-width="1" stroke="#1890ff" fill="none" />
  </g>
</svg>