<?xml version="1.0" encoding="utf-8"?><svg version="1.1" xmlns:xlink="http://www.w3.org/1999/xlink" width="328px" height="32px" xmlns="http://www.w3.org/2000/svg"><g transform="matrix(1 0 0 1 -169 -1244 )"><path d="M 170 1248  A 3 3 0 0 1 173 1245 L 493 1245  A 3 3 0 0 1 496 1248 L 496 1272  A 3 3 0 0 1 493 1275 L 173 1275  A 3 3 0 0 1 170 1272 L 170 1248  Z " fill-rule="nonzero" fill="#ffffff" stroke="none" /><path d="M 169.5 1248  A 3.5 3.5 0 0 1 173 1244.5 L 493 1244.5  A 3.5 3.5 0 0 1 496.5 1248 L 496.5 1272  A 3.5 3.5 0 0 1 493 1275.5 L 173 1275.5  A 3.5 3.5 0 0 1 169.5 1272 L 169.5 1248  Z " stroke-width="1" stroke-dasharray="9,4" stroke="#d9d9d9" fill="none" stroke-dashoffset="0.5" /></g></svg>