<?xml version="1.0" encoding="utf-8"?><svg version="1.1" xmlns:xlink="http://www.w3.org/1999/xlink" width="261px" height="150px" xmlns="http://www.w3.org/2000/svg"><g transform="matrix(1 0 0 1 -190 -1300 )"><path d="M 191 1306  A 5 5 0 0 1 196 1301 L 445 1301  A 5 5 0 0 1 450 1306 L 450 1444  A 5 5 0 0 1 445 1449 L 196 1449  A 5 5 0 0 1 191 1444 L 191 1306  Z " fill-rule="nonzero" fill="#000000" stroke="none" fill-opacity="0.0196078431372549" /><path d="M 190.5 1306  A 5.5 5.5 0 0 1 196 1300.5 L 445 1300.5  A 5.5 5.5 0 0 1 450.5 1306 L 450.5 1444  A 5.5 5.5 0 0 1 445 1449.5 L 196 1449.5  A 5.5 5.5 0 0 1 190.5 1444 L 190.5 1306  Z " stroke-width="1" stroke-dasharray="9,4" stroke="#108ee9" fill="none" stroke-dashoffset="0.5" /></g></svg>