<?xml version="1.0" encoding="utf-8"?>
<svg version="1.1" xmlns:xlink="http://www.w3.org/1999/xlink" width="261px" height="150px" xmlns="http://www.w3.org/2000/svg">
  <g transform="matrix(1 0 0 1 -190 -1472 )">
    <path d="M 191 1478  A 5 5 0 0 1 196 1473 L 445 1473  A 5 5 0 0 1 450 1478 L 450 1616  A 5 5 0 0 1 445 1621 L 196 1621  A 5 5 0 0 1 191 1616 L 191 1478  Z " fill-rule="nonzero" fill="#000000" stroke="none" fill-opacity="0.0196078431372549" />
    <path d="M 190.5 1478  A 5.5 5.5 0 0 1 196 1472.5 L 445 1472.5  A 5.5 5.5 0 0 1 450.5 1478 L 450.5 1616  A 5.5 5.5 0 0 1 445 1621.5 L 196 1621.5  A 5.5 5.5 0 0 1 190.5 1616 L 190.5 1478  Z " stroke-width="1" stroke-dasharray="9,4" stroke="#108ee9" fill="none" stroke-dashoffset="0.5" />
  </g>
</svg>